<svg width="392" height="231" viewBox="0 0 392 231" fill="none" xmlns="http://www.w3.org/2000/svg">
<g opacity="0.8">
<g filter="url(#filter0_di)">
<path d="M372.423 0L13.5283 0C6.60912 0 1 4.98414 1 11.1324L1 209.771C1 215.919 6.60912 220.904 13.5283 220.904L372.423 220.904C379.342 220.904 384.951 215.919 384.951 209.771V11.1324C384.951 4.98414 379.342 0 372.423 0Z" fill="url(#paint0_angular)"/>
<path d="M372.423 0L13.5283 0C6.60912 0 1 4.98414 1 11.1324L1 209.771C1 215.919 6.60912 220.904 13.5283 220.904L372.423 220.904C379.342 220.904 384.951 215.919 384.951 209.771V11.1324C384.951 4.98414 379.342 0 372.423 0Z" fill="url(#paint1_linear)"/>
</g>
<g filter="url(#filter1_d)">
<path d="M85.1295 34.7134H47.3088C42.0668 34.7134 37.8173 38.9894 37.8173 44.2642L37.8173 70.3952C37.8173 75.67 42.0668 79.946 47.3088 79.946H85.1295C90.3715 79.946 94.621 75.67 94.621 70.3952V44.2642C94.621 38.9894 90.3715 34.7134 85.1295 34.7134Z" fill="url(#paint2_angular)"/>
<path d="M85.1295 34.7134H47.3088C42.0668 34.7134 37.8173 38.9894 37.8173 44.2642L37.8173 70.3952C37.8173 75.67 42.0668 79.946 47.3088 79.946H85.1295C90.3715 79.946 94.621 75.67 94.621 70.3952V44.2642C94.621 38.9894 90.3715 34.7134 85.1295 34.7134Z" fill="url(#paint3_linear)"/>
</g>
<g filter="url(#filter2_d)">
<path fill-rule="evenodd" clip-rule="evenodd" d="M47.4194 35.0435C42.3014 35.0435 38.1494 39.2128 38.1494 44.3596V70.2998C38.1494 75.4466 42.3014 79.6159 47.4194 79.6159H85.0189C90.1369 79.6159 94.2888 75.4466 94.2888 70.2998V44.3596C94.2888 39.2128 90.1369 35.0435 85.0189 35.0435H47.4194ZM37.8173 44.3596C37.8173 39.0338 42.1146 34.7134 47.4194 34.7134H85.0189C90.3237 34.7134 94.621 39.0338 94.621 44.3596V70.2998C94.621 75.6256 90.3237 79.946 85.0189 79.946H47.4194C42.1146 79.946 37.8173 75.6256 37.8173 70.2998L37.8173 44.3596Z" fill="url(#paint4_angular)"/>
<path fill-rule="evenodd" clip-rule="evenodd" d="M47.4194 35.0435C42.3014 35.0435 38.1494 39.2128 38.1494 44.3596V70.2998C38.1494 75.4466 42.3014 79.6159 47.4194 79.6159H85.0189C90.1369 79.6159 94.2888 75.4466 94.2888 70.2998V44.3596C94.2888 39.2128 90.1369 35.0435 85.0189 35.0435H47.4194ZM37.8173 44.3596C37.8173 39.0338 42.1146 34.7134 47.4194 34.7134H85.0189C90.3237 34.7134 94.621 39.0338 94.621 44.3596V70.2998C94.621 75.6256 90.3237 79.946 85.0189 79.946H47.4194C42.1146 79.946 37.8173 75.6256 37.8173 70.2998L37.8173 44.3596Z" fill="url(#paint5_linear)"/>
</g>
<path fill-rule="evenodd" clip-rule="evenodd" d="M339.753 31.7208C340.514 31.3153 341.42 31.6917 341.775 32.5615C342.517 34.381 342.893 36.341 342.874 38.3235L342.873 38.3316L342.873 38.3316C342.844 40.4004 342.387 42.4319 341.539 44.2957C341.151 45.1473 340.233 45.479 339.487 45.0365C338.741 44.5941 338.451 43.545 338.838 42.6935C339.474 41.2965 339.809 39.7942 339.831 38.2795C339.845 36.8304 339.57 35.3865 339.017 34.0299C338.662 33.1601 338.991 32.1263 339.753 31.7208Z" fill="black" fill-opacity="0.8"/>
<path fill-rule="evenodd" clip-rule="evenodd" d="M344.102 29.7192C344.935 29.2083 346.032 29.4574 346.552 30.2755C348.087 32.6895 348.984 35.3848 349.161 38.1624L349.162 38.1708L349.162 38.1791C349.362 41.8786 348.295 45.5292 346.124 48.6738C345.573 49.4722 344.468 49.6806 343.655 49.1393C342.842 48.598 342.63 47.512 343.181 46.7136C344.932 44.1766 345.767 41.2778 345.611 38.3726C345.471 36.1965 344.767 34.0622 343.536 32.1256C343.016 31.3075 343.269 30.2301 344.102 29.7192Z" fill="black" fill-opacity="0.8"/>
<path fill-rule="evenodd" clip-rule="evenodd" d="M351.3 27.6777C352.055 27.1317 353.123 27.2833 353.686 28.0164C355.994 31.0252 357.346 34.5211 357.577 38.1523L357.578 38.1626L357.578 38.1729C357.81 42.7308 356.286 47.204 353.283 50.9119C352.701 51.6305 351.629 51.755 350.889 51.19C350.149 50.625 350.02 49.5844 350.602 48.8658C353.121 45.7564 354.359 42.0639 354.173 38.3463C353.982 35.3889 352.88 32.5077 350.951 29.9938C350.388 29.2607 350.545 28.2238 351.3 27.6777Z" fill="black" fill-opacity="0.8"/>
<path fill-rule="evenodd" clip-rule="evenodd" d="M357.544 23.4527C358.245 22.9112 359.213 23.0965 359.706 23.8666C362.344 27.9864 363.803 32.7334 363.909 37.6146L363.909 37.6197L363.909 37.6249C363.998 43.081 362.4 48.4181 359.35 52.9559C358.841 53.7132 357.869 53.8738 357.18 53.3146C356.49 52.7554 356.344 51.6882 356.853 50.9309C359.516 46.9697 360.881 42.3617 360.806 37.691C360.714 33.5136 359.466 29.4179 357.168 25.8275C356.675 25.0574 356.843 23.9942 357.544 23.4527Z" fill="black" fill-opacity="0.8"/>
<path d="M338.667 163.048H341.789C342.534 163.048 343.126 163.131 343.565 163.296C343.969 163.451 344.238 163.646 344.373 163.879C344.516 164.113 344.588 164.434 344.588 164.842V166.111C344.588 166.491 344.49 166.787 344.292 167.001C344.095 167.205 343.794 167.356 343.391 167.453V167.512C343.866 167.599 344.247 167.779 344.534 168.051C344.83 168.314 344.979 168.645 344.979 169.043V170.633C344.979 171.324 344.741 171.81 344.265 172.092C343.79 172.374 342.996 172.515 341.883 172.515H338.667V163.048ZM341.829 167.191C342.377 167.191 342.767 167.103 343 166.928C343.243 166.743 343.364 166.456 343.364 166.067V164.959C343.364 164.599 343.243 164.346 343 164.2C342.758 164.054 342.354 163.981 341.789 163.981H339.972V167.191H341.829ZM341.883 171.538C342.538 171.538 343 171.465 343.269 171.319C343.539 171.173 343.673 170.925 343.673 170.575V169.145C343.673 168.893 343.624 168.693 343.525 168.547C343.435 168.392 343.292 168.28 343.094 168.212C342.897 168.153 342.722 168.119 342.57 168.11C342.417 168.09 342.188 168.081 341.883 168.081H339.972V171.538H341.883Z" fill="#333333"/>
<path d="M337.615 201.969H340.751V202.689H338.676V203.642H339.336C339.744 203.642 340.071 203.665 340.316 203.713C340.56 203.756 340.746 203.843 340.873 203.972C341.005 204.098 341.071 204.279 341.071 204.517V205.178C341.071 205.844 340.477 206.177 339.288 206.177H337.615V201.969ZM339.241 205.457C339.508 205.457 339.703 205.422 339.826 205.353C339.948 205.28 340.009 205.17 340.009 205.023V204.705C340.009 204.571 339.951 204.48 339.833 204.433C339.715 204.385 339.522 204.361 339.254 204.361H338.669V205.457H339.241Z" fill="#333333"/>
<path d="M345.167 201.969H346.459L348.051 206.177H346.976L346.582 205.068H344.97L344.582 206.177H343.534L345.167 201.969ZM346.35 204.394L345.793 202.812H345.765L345.208 204.394H346.35Z" fill="#333333"/>
<path d="M350.717 201.969H351.779V203.655H353.656V201.969H354.717V206.177H353.656V204.374H351.779V206.177H350.717V201.969Z" fill="#333333"/>
<path d="M357.843 201.969H358.905V203.629C359.104 203.629 359.265 203.594 359.388 203.525C359.51 203.452 359.644 203.313 359.789 203.11L360.619 201.969H361.809L360.857 203.233C360.712 203.428 360.578 203.577 360.455 203.681C360.338 203.78 360.19 203.862 360.013 203.927V203.94C360.24 203.992 360.428 204.085 360.578 204.219C360.732 204.353 360.882 204.547 361.027 204.802L361.809 206.177H360.619L359.898 204.938C359.802 204.774 359.709 204.651 359.619 204.569C359.533 204.482 359.435 204.424 359.326 204.394C359.217 204.364 359.077 204.348 358.905 204.348V206.177H357.843V201.969Z" fill="#333333"/>
<path d="M356.55 163.048H361.691V163.93H357.694V166.679H361.302V167.56H357.694V170.581H361.809V171.463H356.55V163.048Z" fill="#333333"/>
<path d="M339.298 192.502C336.774 192.502 335.511 191.673 335.511 190.015V185.663C335.511 183.911 336.774 183.034 339.298 183.034C340.158 183.034 340.981 183.124 341.767 183.303V184.32C340.879 184.094 340.066 183.981 339.326 183.981C338.965 183.981 338.651 184.005 338.383 184.052C338.114 184.089 337.856 184.16 337.606 184.264C337.069 184.499 336.801 184.961 336.801 185.649V189.944C336.801 190.999 337.661 191.527 339.381 191.527C340.121 191.527 340.935 191.414 341.823 191.188V192.233C341.037 192.412 340.195 192.502 339.298 192.502Z" fill="#333333"/>
<path d="M355.359 185.078H352.342V184.086H359.705V185.078H356.689V193.553H355.359V185.078Z" fill="#333333"/>
<path fill-rule="evenodd" clip-rule="evenodd" d="M348.32 171.888C348.269 172.106 348.243 172.329 348.241 172.553L348.22 175.296C348.219 175.456 348.336 175.591 348.489 175.619C348.64 175.647 348.791 175.565 348.844 175.418L349.767 172.846C349.843 172.634 349.896 172.414 349.923 172.189L351.821 156.736L348.32 171.888ZM346.828 182.7C346.751 182.912 346.699 183.133 346.671 183.358L344.775 198.813L348.282 183.665C348.333 183.445 348.36 183.22 348.361 182.993L348.381 179.69C348.382 179.578 348.302 179.483 348.195 179.461C348.087 179.439 347.978 179.498 347.94 179.604L346.828 182.7ZM350.026 177.974C349.951 177.736 349.951 177.688 349.951 177.607V177.607C349.951 177.606 349.952 177.479 350.074 177.28C350.173 177.119 352.009 176.842 352.723 176.74C352.91 176.713 353.098 176.707 353.286 176.72L368.121 177.71L353.258 178.571C353.083 178.581 352.908 178.575 352.735 178.551C352.022 178.452 350.088 178.168 350.026 177.974ZM346.544 177.381C346.544 177.462 346.544 177.509 346.468 177.747C346.406 177.942 344.436 178.228 343.719 178.325C343.548 178.349 343.375 178.355 343.203 178.345L328.148 177.484L343.175 176.493C343.361 176.481 343.547 176.487 343.732 176.513C344.45 176.614 346.32 176.892 346.42 177.053C346.544 177.252 346.544 177.38 346.544 177.381V177.381Z" fill="#333333"/>
<g filter="url(#filter3_di)">
<path d="M40.3183 118.867C39.0165 118.867 37.4815 118.726 35.7135 118.443V116.748C37.5779 117.124 39.137 117.313 40.3907 117.313C41.3711 117.313 42.0864 117.179 42.5364 116.913C43.0025 116.63 43.2356 116.175 43.2356 115.547V112.509C43.2356 111.849 42.9462 111.425 42.3676 111.237C42.0944 111.158 41.8372 111.111 41.5961 111.096C41.3711 111.064 41.0738 111.048 40.7041 111.048H36.0751V103.347L45.092 103.347V104.949H38.245V109.588H41.8613C42.5042 109.588 43.0748 109.667 43.5731 109.824C44.0713 109.965 44.5133 110.216 44.8991 110.577C45.3009 110.97 45.5018 111.48 45.5018 112.108V115.594C45.5018 116.143 45.3973 116.63 45.1884 117.054C44.9955 117.462 44.7303 117.784 44.3928 118.019C44.0874 118.239 43.6936 118.42 43.2114 118.561C42.7453 118.702 42.2792 118.789 41.8131 118.82C41.2345 118.852 40.7362 118.867 40.3183 118.867Z" fill="white"/>
<path d="M50.5425 115.9C50.5425 115.46 50.6148 115.052 50.7595 114.675C50.9202 114.283 51.1211 113.953 51.3622 113.686C51.5551 113.466 51.8444 113.231 52.2301 112.98C52.632 112.713 53.0097 112.493 53.3633 112.32C53.6687 112.163 54.0705 111.983 54.5687 111.779L57.1725 110.648C58.2012 110.208 58.7155 109.526 58.7155 108.599V106.503C58.7155 105.781 58.4905 105.302 58.0404 105.067C57.5904 104.815 56.8028 104.69 55.6778 104.69C54.5687 104.69 53.0418 104.855 51.097 105.184V103.536C52.7204 103.238 54.4 103.088 56.1358 103.088C57.8717 103.088 59.1254 103.347 59.8969 103.866C60.6683 104.368 61.0541 105.216 61.0541 106.409V108.905C61.0541 109.471 60.9577 109.942 60.7648 110.318C60.5719 110.679 60.2585 111.009 59.8245 111.307C59.4066 111.59 58.7878 111.912 57.9681 112.273L54.3517 113.898C53.2909 114.369 52.7605 115.06 52.7605 115.97V116.983H61.0541V118.632H50.5425V115.9Z" fill="white"/>
<path d="M71.6881 105.467L66.9386 108.505V106.574L71.7122 103.347H73.7856V118.632H71.6881V105.467Z" fill="white"/>
<path d="M85.601 118.867C84.2508 118.867 82.732 118.718 81.0443 118.42V116.724C82.957 117.117 84.5562 117.313 85.8421 117.313C87.9797 117.313 89.0486 116.724 89.0486 115.547V112.932C89.0486 112.289 88.695 111.865 87.9878 111.661C87.6502 111.582 87.3449 111.535 87.0716 111.519C86.8145 111.488 86.4769 111.472 86.059 111.472H83.0454V110.012H85.6492C86.0671 110.012 86.4046 110.004 86.6618 109.989C86.9189 109.957 87.2163 109.894 87.5538 109.8C87.9074 109.722 88.1806 109.573 88.3735 109.353C88.5664 109.133 88.6628 108.85 88.6628 108.505V105.773C88.6628 104.972 87.6985 104.572 85.7697 104.572C84.4839 104.572 83.0132 104.698 81.3578 104.949V103.324C82.74 103.183 84.2026 103.112 85.7456 103.112C87.5297 103.112 88.8235 103.308 89.6272 103.701C90.4469 104.077 90.8568 104.729 90.8568 105.655V108.599C90.8568 109.086 90.6558 109.494 90.254 109.824C89.8522 110.138 89.3379 110.342 88.711 110.436V110.53C89.0968 110.593 89.4102 110.664 89.6513 110.742C89.9085 110.805 90.1817 110.907 90.471 111.048C91.0336 111.331 91.3148 111.826 91.3148 112.532V115.594C91.3148 116.127 91.1943 116.606 90.9532 117.03C90.7121 117.454 90.4067 117.784 90.037 118.019C89.7156 118.239 89.2897 118.42 88.7593 118.561C88.2289 118.687 87.7065 118.773 87.1922 118.82C86.5814 118.852 86.051 118.867 85.601 118.867Z" fill="white"/>
<path d="M116.4 115.9C116.4 115.46 116.472 115.052 116.617 114.675C116.778 114.283 116.979 113.953 117.22 113.686C117.413 113.466 117.702 113.231 118.088 112.98C118.489 112.713 118.867 112.493 119.221 112.32C119.526 112.163 119.928 111.983 120.426 111.779L123.03 110.648C124.059 110.208 124.573 109.526 124.573 108.599V106.503C124.573 105.781 124.348 105.302 123.898 105.067C123.448 104.815 122.66 104.69 121.535 104.69C120.426 104.69 118.899 104.855 116.955 105.184V103.536C118.578 103.238 120.257 103.088 121.993 103.088C123.729 103.088 124.983 103.347 125.754 103.866C126.526 104.368 126.912 105.216 126.912 106.409V108.905C126.912 109.471 126.815 109.942 126.622 110.318C126.429 110.679 126.116 111.009 125.682 111.307C125.264 111.59 124.645 111.912 123.826 112.273L120.209 113.898C119.148 114.369 118.618 115.06 118.618 115.97V116.983H126.912V118.632H116.4V115.9Z" fill="white"/>
<path d="M138.896 115.288H131.108V113.427L138.197 103.347H140.897V113.663H142.584V115.288H140.897V118.632H138.896V115.288ZM138.896 113.663V105.208L133.037 113.663H138.896Z" fill="white"/>
<path d="M152.013 118.867C151.306 118.867 150.727 118.844 150.277 118.797C149.843 118.749 149.377 118.655 148.879 118.514C148.348 118.373 147.922 118.169 147.601 117.902C147.296 117.619 147.038 117.227 146.83 116.724C146.621 116.253 146.516 115.664 146.516 114.958V107.233C146.516 106.527 146.621 105.907 146.83 105.373C147.038 104.839 147.312 104.415 147.649 104.101C147.955 103.834 148.356 103.622 148.855 103.465C149.369 103.292 149.883 103.183 150.398 103.135C150.976 103.104 151.515 103.088 152.013 103.088C152.72 103.088 153.291 103.112 153.725 103.159C154.175 103.206 154.649 103.3 155.147 103.442C155.678 103.599 156.103 103.818 156.425 104.101C156.762 104.384 157.036 104.784 157.245 105.302C157.454 105.82 157.558 106.456 157.558 107.21V114.958C157.558 115.602 157.454 116.175 157.245 116.677C157.036 117.179 156.762 117.572 156.425 117.855C156.103 118.121 155.694 118.341 155.195 118.514C154.697 118.671 154.191 118.765 153.677 118.797C153.226 118.844 152.672 118.867 152.013 118.867ZM152.061 117.478C152.913 117.478 153.572 117.423 154.038 117.313C154.504 117.187 154.842 116.952 155.051 116.606C155.26 116.261 155.364 115.751 155.364 115.076V107.068C155.364 106.33 155.252 105.781 155.027 105.42C154.818 105.043 154.48 104.792 154.014 104.666C153.564 104.541 152.905 104.478 152.037 104.478C151.153 104.478 150.478 104.541 150.012 104.666C149.562 104.792 149.232 105.043 149.023 105.42C148.815 105.781 148.71 106.33 148.71 107.068V115.076C148.71 115.751 148.815 116.261 149.023 116.606C149.248 116.952 149.594 117.187 150.06 117.313C150.526 117.423 151.193 117.478 152.061 117.478Z" fill="white"/>
<path d="M167.204 118.867C166.496 118.867 165.918 118.844 165.468 118.797C165.034 118.749 164.568 118.655 164.069 118.514C163.539 118.373 163.113 118.169 162.792 117.902C162.486 117.619 162.229 117.227 162.02 116.724C161.811 116.253 161.707 115.664 161.707 114.958V107.233C161.707 106.527 161.811 105.907 162.02 105.373C162.229 104.839 162.502 104.415 162.84 104.101C163.145 103.834 163.547 103.622 164.045 103.465C164.56 103.292 165.074 103.183 165.588 103.135C166.167 103.104 166.705 103.088 167.204 103.088C167.911 103.088 168.481 103.112 168.915 103.159C169.365 103.206 169.84 103.3 170.338 103.442C170.868 103.599 171.294 103.818 171.616 104.101C171.953 104.384 172.226 104.784 172.435 105.302C172.644 105.82 172.749 106.456 172.749 107.21V114.958C172.749 115.602 172.644 116.175 172.435 116.677C172.226 117.179 171.953 117.572 171.616 117.855C171.294 118.121 170.884 118.341 170.386 118.514C169.888 118.671 169.381 118.765 168.867 118.797C168.417 118.844 167.863 118.867 167.204 118.867ZM167.252 117.478C168.104 117.478 168.763 117.423 169.229 117.313C169.695 117.187 170.032 116.952 170.241 116.606C170.45 116.261 170.555 115.751 170.555 115.076V107.068C170.555 106.33 170.442 105.781 170.217 105.42C170.008 105.043 169.671 104.792 169.205 104.666C168.755 104.541 168.096 104.478 167.228 104.478C166.344 104.478 165.669 104.541 165.203 104.666C164.753 104.792 164.423 105.043 164.214 105.42C164.005 105.781 163.901 106.33 163.901 107.068V115.076C163.901 115.751 164.005 116.261 164.214 116.606C164.439 116.952 164.785 117.187 165.251 117.313C165.717 117.423 166.384 117.478 167.252 117.478Z" fill="white"/>
<path d="M202.68 118.867C201.973 118.867 201.394 118.844 200.944 118.797C200.51 118.749 200.044 118.655 199.546 118.514C199.015 118.373 198.589 118.169 198.268 117.902C197.962 117.619 197.705 117.227 197.496 116.724C197.287 116.253 197.183 115.664 197.183 114.958V107.233C197.183 106.527 197.287 105.907 197.496 105.373C197.705 104.839 197.979 104.415 198.316 104.101C198.621 103.834 199.023 103.622 199.522 103.465C200.036 103.292 200.55 103.183 201.065 103.135C201.643 103.104 202.182 103.088 202.68 103.088C203.387 103.088 203.958 103.112 204.392 103.159C204.842 103.206 205.316 103.3 205.814 103.442C206.344 103.599 206.77 103.818 207.092 104.101C207.429 104.384 207.703 104.784 207.912 105.302C208.12 105.82 208.225 106.456 208.225 107.21V114.958C208.225 115.602 208.12 116.175 207.912 116.677C207.703 117.179 207.429 117.572 207.092 117.855C206.77 118.121 206.361 118.341 205.862 118.514C205.364 118.671 204.858 118.765 204.343 118.797C203.893 118.844 203.339 118.867 202.68 118.867ZM202.728 117.478C203.58 117.478 204.239 117.423 204.705 117.313C205.171 117.187 205.509 116.952 205.718 116.606C205.927 116.261 206.031 115.751 206.031 115.076V107.068C206.031 106.33 205.919 105.781 205.693 105.42C205.485 105.043 205.147 104.792 204.681 104.666C204.231 104.541 203.572 104.478 202.704 104.478C201.82 104.478 201.145 104.541 200.679 104.666C200.229 104.792 199.899 105.043 199.69 105.42C199.481 105.781 199.377 106.33 199.377 107.068V115.076C199.377 115.751 199.481 116.261 199.69 116.606C199.915 116.952 200.261 117.187 200.727 117.313C201.193 117.423 201.86 117.478 202.728 117.478Z" fill="white"/>
<path d="M217.87 118.867C217.163 118.867 216.585 118.844 216.135 118.797C215.701 118.749 215.235 118.655 214.736 118.514C214.206 118.373 213.78 118.169 213.459 117.902C213.153 117.619 212.896 117.227 212.687 116.724C212.478 116.253 212.374 115.664 212.374 114.958V107.233C212.374 106.527 212.478 105.907 212.687 105.373C212.896 104.839 213.169 104.415 213.507 104.101C213.812 103.834 214.214 103.622 214.712 103.465C215.227 103.292 215.741 103.183 216.255 103.135C216.834 103.104 217.372 103.088 217.87 103.088C218.578 103.088 219.148 103.112 219.582 103.159C220.032 103.206 220.506 103.3 221.005 103.442C221.535 103.599 221.961 103.818 222.282 104.101C222.62 104.384 222.893 104.784 223.102 105.302C223.311 105.82 223.416 106.456 223.416 107.21V114.958C223.416 115.602 223.311 116.175 223.102 116.677C222.893 117.179 222.62 117.572 222.282 117.855C221.961 118.121 221.551 118.341 221.053 118.514C220.555 118.671 220.048 118.765 219.534 118.797C219.084 118.844 218.529 118.867 217.87 118.867ZM217.919 117.478C218.771 117.478 219.43 117.423 219.896 117.313C220.362 117.187 220.699 116.952 220.908 116.606C221.117 116.261 221.222 115.751 221.222 115.076V107.068C221.222 106.33 221.109 105.781 220.884 105.42C220.675 105.043 220.338 104.792 219.872 104.666C219.422 104.541 218.763 104.478 217.895 104.478C217.011 104.478 216.336 104.541 215.869 104.666C215.419 104.792 215.09 105.043 214.881 105.42C214.672 105.781 214.568 106.33 214.568 107.068V115.076C214.568 115.751 214.672 116.261 214.881 116.606C215.106 116.952 215.452 117.187 215.918 117.313C216.384 117.423 217.051 117.478 217.919 117.478Z" fill="white"/>
<path d="M233.061 118.867C232.354 118.867 231.775 118.844 231.325 118.797C230.891 118.749 230.425 118.655 229.927 118.514C229.397 118.373 228.971 118.169 228.649 117.902C228.344 117.619 228.087 117.227 227.878 116.724C227.669 116.253 227.564 115.664 227.564 114.958V107.233C227.564 106.527 227.669 105.907 227.878 105.373C228.087 104.839 228.36 104.415 228.697 104.101C229.003 103.834 229.405 103.622 229.903 103.465C230.417 103.292 230.931 103.183 231.446 103.135C232.024 103.104 232.563 103.088 233.061 103.088C233.768 103.088 234.339 103.112 234.773 103.159C235.223 103.206 235.697 103.3 236.195 103.442C236.726 103.599 237.152 103.818 237.473 104.101C237.811 104.384 238.084 104.784 238.293 105.302C238.502 105.82 238.606 106.456 238.606 107.21V114.958C238.606 115.602 238.502 116.175 238.293 116.677C238.084 117.179 237.811 117.572 237.473 117.855C237.152 118.121 236.742 118.341 236.244 118.514C235.745 118.671 235.239 118.765 234.725 118.797C234.275 118.844 233.72 118.867 233.061 118.867ZM233.109 117.478C233.961 117.478 234.62 117.423 235.086 117.313C235.552 117.187 235.89 116.952 236.099 116.606C236.308 116.261 236.412 115.751 236.412 115.076V107.068C236.412 106.33 236.3 105.781 236.075 105.42C235.866 105.043 235.528 104.792 235.062 104.666C234.612 104.541 233.953 104.478 233.085 104.478C232.201 104.478 231.526 104.541 231.06 104.666C230.61 104.792 230.281 105.043 230.072 105.42C229.863 105.781 229.758 106.33 229.758 107.068V115.076C229.758 115.751 229.863 116.261 230.072 116.606C230.297 116.952 230.642 117.187 231.108 117.313C231.574 117.423 232.241 117.478 233.109 117.478Z" fill="white"/>
<path d="M248.252 118.867C247.545 118.867 246.966 118.844 246.516 118.797C246.082 118.749 245.616 118.655 245.118 118.514C244.587 118.373 244.161 118.169 243.84 117.902C243.534 117.619 243.277 117.227 243.068 116.724C242.859 116.253 242.755 115.664 242.755 114.958V107.233C242.755 106.527 242.859 105.907 243.068 105.373C243.277 104.839 243.55 104.415 243.888 104.101C244.193 103.834 244.595 103.622 245.093 103.465C245.608 103.292 246.122 103.183 246.636 103.135C247.215 103.104 247.754 103.088 248.252 103.088C248.959 103.088 249.53 103.112 249.964 103.159C250.414 103.206 250.888 103.3 251.386 103.442C251.916 103.599 252.342 103.818 252.664 104.101C253.001 104.384 253.275 104.784 253.483 105.302C253.692 105.82 253.797 106.456 253.797 107.21V114.958C253.797 115.602 253.692 116.175 253.483 116.677C253.275 117.179 253.001 117.572 252.664 117.855C252.342 118.121 251.932 118.341 251.434 118.514C250.936 118.671 250.43 118.765 249.915 118.797C249.465 118.844 248.911 118.867 248.252 118.867ZM248.3 117.478C249.152 117.478 249.811 117.423 250.277 117.313C250.743 117.187 251.081 116.952 251.29 116.606C251.498 116.261 251.603 115.751 251.603 115.076V107.068C251.603 106.33 251.49 105.781 251.265 105.42C251.056 105.043 250.719 104.792 250.253 104.666C249.803 104.541 249.144 104.478 248.276 104.478C247.392 104.478 246.717 104.541 246.251 104.666C245.801 104.792 245.471 105.043 245.262 105.42C245.053 105.781 244.949 106.33 244.949 107.068V115.076C244.949 115.751 245.053 116.261 245.262 116.606C245.487 116.952 245.833 117.187 246.299 117.313C246.765 117.423 247.432 117.478 248.3 117.478Z" fill="white"/>
<path d="M283.728 118.867C283.021 118.867 282.442 118.844 281.992 118.797C281.558 118.749 281.092 118.655 280.594 118.514C280.063 118.373 279.637 118.169 279.316 117.902C279.011 117.619 278.753 117.227 278.545 116.724C278.336 116.253 278.231 115.664 278.231 114.958V107.233C278.231 106.527 278.336 105.907 278.545 105.373C278.753 104.839 279.027 104.415 279.364 104.101C279.67 103.834 280.071 103.622 280.57 103.465C281.084 103.292 281.598 103.183 282.113 103.135C282.691 103.104 283.23 103.088 283.728 103.088C284.435 103.088 285.006 103.112 285.44 103.159C285.89 103.206 286.364 103.3 286.862 103.442C287.393 103.599 287.819 103.818 288.14 104.101C288.478 104.384 288.751 104.784 288.96 105.302C289.169 105.82 289.273 106.456 289.273 107.21V114.958C289.273 115.602 289.169 116.175 288.96 116.677C288.751 117.179 288.478 117.572 288.14 117.855C287.819 118.121 287.409 118.341 286.91 118.514C286.412 118.671 285.906 118.765 285.392 118.797C284.941 118.844 284.387 118.867 283.728 118.867ZM283.776 117.478C284.628 117.478 285.287 117.423 285.753 117.313C286.219 117.187 286.557 116.952 286.766 116.606C286.975 116.261 287.079 115.751 287.079 115.076V107.068C287.079 106.33 286.967 105.781 286.742 105.42C286.533 105.043 286.195 104.792 285.729 104.666C285.279 104.541 284.62 104.478 283.752 104.478C282.868 104.478 282.193 104.541 281.727 104.666C281.277 104.792 280.947 105.043 280.738 105.42C280.53 105.781 280.425 106.33 280.425 107.068V115.076C280.425 115.751 280.53 116.261 280.738 116.606C280.963 116.952 281.309 117.187 281.775 117.313C282.241 117.423 282.908 117.478 283.776 117.478Z" fill="white"/>
<path d="M299.642 105.467L294.892 108.505V106.574L299.666 103.347H301.739V118.632H299.642V105.467Z" fill="white"/>
<path d="M308.878 115.9C308.878 115.46 308.95 115.052 309.095 114.675C309.255 114.283 309.456 113.953 309.697 113.686C309.89 113.466 310.18 113.231 310.565 112.98C310.967 112.713 311.345 112.493 311.698 112.32C312.004 112.163 312.406 111.983 312.904 111.779L315.508 110.648C316.536 110.208 317.051 109.526 317.051 108.599V106.503C317.051 105.781 316.826 105.302 316.376 105.067C315.926 104.815 315.138 104.69 314.013 104.69C312.904 104.69 311.377 104.855 309.432 105.184V103.536C311.055 103.238 312.735 103.088 314.471 103.088C316.207 103.088 317.46 103.347 318.232 103.866C319.003 104.368 319.389 105.216 319.389 106.409V108.905C319.389 109.471 319.293 109.942 319.1 110.318C318.907 110.679 318.594 111.009 318.16 111.307C317.742 111.59 317.123 111.912 316.303 112.273L312.687 113.898C311.626 114.369 311.096 115.06 311.096 115.97V116.983H319.389V118.632H308.878V115.9Z" fill="white"/>
<path d="M328.745 118.867C327.395 118.867 325.876 118.718 324.189 118.42V116.724C326.101 117.117 327.701 117.313 328.987 117.313C331.124 117.313 332.193 116.724 332.193 115.547V112.932C332.193 112.289 331.839 111.865 331.132 111.661C330.795 111.582 330.489 111.535 330.216 111.519C329.959 111.488 329.621 111.472 329.203 111.472H326.19V110.012H328.794C329.212 110.012 329.549 110.004 329.806 109.989C330.063 109.957 330.361 109.894 330.698 109.8C331.052 109.722 331.325 109.573 331.518 109.353C331.711 109.133 331.807 108.85 331.807 108.505V105.773C331.807 104.972 330.843 104.572 328.914 104.572C327.628 104.572 326.158 104.698 324.502 104.949V103.324C325.884 103.183 327.347 103.112 328.89 103.112C330.674 103.112 331.968 103.308 332.772 103.701C333.591 104.077 334.001 104.729 334.001 105.655V108.599C334.001 109.086 333.8 109.494 333.398 109.824C332.997 110.138 332.482 110.342 331.856 110.436V110.53C332.241 110.593 332.555 110.664 332.796 110.742C333.053 110.805 333.326 110.907 333.615 111.048C334.178 111.331 334.459 111.826 334.459 112.532V115.594C334.459 116.127 334.339 116.606 334.098 117.03C333.857 117.454 333.551 117.784 333.182 118.019C332.86 118.239 332.434 118.42 331.904 118.561C331.373 118.687 330.851 118.773 330.337 118.82C329.726 118.852 329.195 118.867 328.745 118.867Z" fill="white"/>
</g>
<g filter="url(#filter4_di)">
<path d="M157.749 148.855L154.581 150.88V149.593L157.765 147.442H159.148V157.631H157.749V148.855Z" fill="white"/>
<path d="M163.91 155.81C163.91 155.517 163.958 155.245 164.054 154.994C164.162 154.732 164.296 154.512 164.456 154.334C164.585 154.188 164.778 154.031 165.035 153.863C165.303 153.685 165.555 153.539 165.791 153.424C165.995 153.319 166.263 153.199 166.595 153.062L168.332 152.309C169.019 152.016 169.362 151.56 169.362 150.943V149.546C169.362 149.064 169.212 148.745 168.911 148.588C168.611 148.42 168.086 148.337 167.335 148.337C166.595 148.337 165.577 148.447 164.28 148.666V147.567C165.362 147.368 166.483 147.269 167.641 147.269C168.799 147.269 169.635 147.442 170.15 147.787C170.664 148.122 170.922 148.687 170.922 149.483V151.147C170.922 151.524 170.857 151.838 170.729 152.089C170.6 152.33 170.391 152.55 170.101 152.748C169.823 152.937 169.41 153.151 168.863 153.392L166.451 154.475C165.743 154.789 165.389 155.25 165.389 155.857V156.532H170.922V157.631H163.91V155.81Z" fill="white"/>
<path d="M178.256 147.269H179.495L174.284 157.788H173.046L178.256 147.269Z" fill="white"/>
<path d="M181.616 155.81C181.616 155.517 181.664 155.245 181.761 154.994C181.868 154.732 182.002 154.512 182.163 154.334C182.292 154.188 182.485 154.031 182.742 153.863C183.01 153.685 183.262 153.539 183.498 153.424C183.701 153.319 183.97 153.199 184.302 153.062L186.039 152.309C186.725 152.016 187.068 151.56 187.068 150.943V149.546C187.068 149.064 186.918 148.745 186.618 148.588C186.318 148.42 185.792 148.337 185.042 148.337C184.302 148.337 183.283 148.447 181.986 148.666V147.567C183.069 147.368 184.189 147.269 185.347 147.269C186.505 147.269 187.341 147.442 187.856 147.787C188.371 148.122 188.628 148.687 188.628 149.483V151.147C188.628 151.524 188.564 151.838 188.435 152.089C188.306 152.33 188.097 152.55 187.808 152.748C187.529 152.937 187.116 153.151 186.57 153.392L184.157 154.475C183.45 154.789 183.096 155.25 183.096 155.857V156.532H188.628V157.631H181.616V155.81Z" fill="white"/>
<path d="M191.749 155.81C191.749 155.517 191.798 155.245 191.894 154.994C192.001 154.732 192.135 154.512 192.296 154.334C192.425 154.188 192.618 154.031 192.875 153.863C193.143 153.685 193.395 153.539 193.631 153.424C193.835 153.319 194.103 153.199 194.435 153.062L196.172 152.309C196.858 152.016 197.201 151.56 197.201 150.943V149.546C197.201 149.064 197.051 148.745 196.751 148.588C196.451 148.42 195.925 148.337 195.175 148.337C194.435 148.337 193.417 148.447 192.119 148.666V147.567C193.202 147.368 194.323 147.269 195.48 147.269C196.638 147.269 197.475 147.442 197.989 147.787C198.504 148.122 198.761 148.687 198.761 149.483V151.147C198.761 151.524 198.697 151.838 198.568 152.089C198.44 152.33 198.231 152.55 197.941 152.748C197.662 152.937 197.25 153.151 196.703 153.392L194.29 154.475C193.583 154.789 193.229 155.25 193.229 155.857V156.532H198.761V157.631H191.749V155.81Z" fill="white"/>
</g>
<g filter="url(#filter5_di)">
<path d="M34.6016 174.776H36.4021L40.4534 184.981H38.8297L37.64 181.884H33.1708L31.9972 184.981H30.4539L34.6016 174.776ZM37.2542 180.83L35.4858 176.223H35.3411L33.5727 180.83H37.2542Z" fill="white"/>
<path d="M42.8543 174.776H44.4137V183.912H49.5421V184.981H42.8543V174.776Z" fill="white"/>
<path d="M52.0104 174.776H59.0197V175.846H53.5698V179.179H58.4892V180.248H53.5698V183.912H59.1804V184.981H52.0104V174.776Z" fill="white"/>
<path d="M64.7602 179.777L61.0787 174.776H62.8632L65.6444 178.723L68.4257 174.776H70.2101L66.5286 179.777L70.3709 184.981H68.5864L65.6444 180.83L62.7024 184.981H60.918L64.7602 179.777Z" fill="white"/>
<path d="M75.6844 174.776H77.485L81.5362 184.981H79.9125L78.7229 181.884H74.2536L73.08 184.981H71.5367L75.6844 174.776ZM78.337 180.83L76.5686 176.223H76.4239L74.6555 180.83H78.337Z" fill="white"/>
<path d="M83.9372 174.776H85.8181L91.4931 183.204V174.776H92.8596V184.981H90.9786L85.3037 176.412V184.981H83.9372V174.776Z" fill="white"/>
<path d="M96.3587 174.776H100.506C103.432 174.776 104.895 175.751 104.895 177.701V182.214C104.895 184.059 103.438 184.981 100.523 184.981H96.3587V174.776ZM100.41 183.943C102.403 183.943 103.4 183.356 103.4 182.182V177.685C103.4 177.308 103.32 176.988 103.159 176.726C102.998 176.464 102.773 176.27 102.484 176.144C102.194 176.029 101.894 175.95 101.584 175.908C101.273 175.856 100.908 175.83 100.49 175.83H97.9181V183.943H100.41Z" fill="white"/>
<path d="M108.074 174.776H115.083V175.846H109.633V179.179H114.553V180.248H109.633V183.912H115.244V184.981H108.074V174.776Z" fill="white"/>
<path d="M118.203 174.776H121.869C122.79 174.776 123.508 174.834 124.023 174.949C124.548 175.054 124.929 175.248 125.164 175.531C125.411 175.814 125.534 176.228 125.534 176.773V178.534C125.534 179.142 125.277 179.614 124.762 179.95C124.259 180.274 123.616 180.437 122.833 180.437L126.177 184.981H124.264L121.274 180.626H119.763V184.981H118.203V174.776ZM121.804 179.619C122.576 179.619 123.128 179.53 123.46 179.352C123.803 179.163 123.975 178.828 123.975 178.346V176.931C123.975 176.165 123.299 175.783 121.949 175.783H119.763V179.619H121.804Z" fill="white"/>
<path d="M136.68 185.138C135.79 185.138 134.729 185.054 133.497 184.887V183.613C134.74 183.875 135.833 184.006 136.776 184.006C137.57 184.006 138.148 183.922 138.513 183.755C138.877 183.576 139.059 183.252 139.059 182.78V181.459C139.059 181.019 138.931 180.709 138.673 180.531C138.416 180.353 137.966 180.264 137.323 180.264H136.101C135.083 180.264 134.36 180.065 133.931 179.666C133.502 179.268 133.288 178.65 133.288 177.811V176.993C133.288 176.438 133.411 175.987 133.658 175.641C133.915 175.295 134.338 175.038 134.928 174.871C135.528 174.703 136.348 174.619 137.387 174.619C138.084 174.619 138.979 174.677 140.072 174.792V175.94C138.85 175.762 137.918 175.673 137.275 175.673C136.278 175.673 135.619 175.767 135.297 175.956C134.965 176.155 134.799 176.485 134.799 176.946V178.11C134.799 178.466 134.928 178.728 135.185 178.896C135.453 179.053 135.908 179.132 136.551 179.132H137.805C138.523 179.132 139.081 179.216 139.477 179.383C139.885 179.551 140.169 179.808 140.329 180.154C140.501 180.489 140.587 180.945 140.587 181.522V182.261C140.587 182.984 140.447 183.555 140.169 183.975C139.901 184.394 139.483 184.693 138.915 184.871C138.347 185.049 137.602 185.138 136.68 185.138Z" fill="white"/>
<path d="M147.698 185.138C147.13 185.138 146.631 185.102 146.203 185.028C145.785 184.955 145.372 184.829 144.965 184.651C144.536 184.462 144.204 184.174 143.968 183.786C143.743 183.398 143.63 182.927 143.63 182.371V174.776H145.125V182.355C145.125 182.995 145.345 183.451 145.785 183.723C146.224 183.985 146.872 184.116 147.73 184.116C148.587 184.116 149.225 183.985 149.643 183.723C150.072 183.451 150.286 182.995 150.286 182.355V174.776H151.781V182.371C151.781 184.216 150.42 185.138 147.698 185.138Z" fill="white"/>
<path d="M155.298 174.776H159.028C159.918 174.776 160.625 174.865 161.15 175.044C161.632 175.211 161.954 175.421 162.115 175.673C162.286 175.924 162.372 176.27 162.372 176.71V178.078C162.372 178.487 162.254 178.807 162.018 179.038C161.783 179.258 161.423 179.42 160.941 179.525V179.588C161.509 179.682 161.965 179.876 162.308 180.17C162.661 180.453 162.838 180.809 162.838 181.239V182.953C162.838 183.697 162.554 184.221 161.986 184.525C161.418 184.829 160.47 184.981 159.141 184.981H155.298V174.776ZM159.076 179.242C159.73 179.242 160.196 179.148 160.475 178.959C160.764 178.76 160.909 178.451 160.909 178.031V176.836C160.909 176.448 160.764 176.176 160.475 176.019C160.186 175.861 159.703 175.783 159.028 175.783H156.858V179.242H159.076ZM159.141 183.928C159.923 183.928 160.475 183.849 160.796 183.692C161.118 183.535 161.279 183.267 161.279 182.89V181.349C161.279 181.076 161.22 180.861 161.102 180.704C160.995 180.537 160.823 180.416 160.587 180.343C160.352 180.28 160.143 180.243 159.961 180.233C159.778 180.212 159.505 180.201 159.141 180.201H156.858V183.928H159.141Z" fill="white"/>
<path d="M165.962 174.776H168.293L171.637 183.267L171.685 183.283L174.852 174.776H177.103V184.981H175.736V176.349H175.656L172.296 184.981H170.897L167.441 176.349H167.36V184.981H165.962V174.776Z" fill="white"/>
<path d="M183.651 174.776H185.451L189.503 184.981H187.879L186.689 181.884H182.22L181.047 184.981H179.503L183.651 174.776ZM186.304 180.83L184.535 176.223H184.39L182.622 180.83H186.304Z" fill="white"/>
<path d="M194.46 180.861L190.682 174.776H192.466L195.248 179.572L198.029 174.776H199.813L196.019 180.814V184.981H194.46V180.861Z" fill="white"/>
</g>
<g filter="url(#filter6_di)">
<path d="M32.5712 195.298L29.4019 197.526V196.109L32.5873 193.743H33.9709V204.952H32.5712V195.298Z" fill="white"/>
<path d="M38.7342 202.949C38.7342 202.626 38.7824 202.327 38.879 202.05C38.9862 201.763 39.1203 201.521 39.2812 201.325C39.4099 201.164 39.6029 200.991 39.8603 200.807C40.1285 200.611 40.3805 200.45 40.6165 200.323C40.8202 200.208 41.0884 200.076 41.4209 199.926L43.1584 199.097C43.8448 198.775 44.188 198.274 44.188 197.595V196.058C44.188 195.528 44.0379 195.177 43.7375 195.004C43.4372 194.82 42.9117 194.728 42.1609 194.728C41.4209 194.728 40.402 194.849 39.1042 195.091V193.882C40.1875 193.663 41.3083 193.553 42.4666 193.553C43.6249 193.553 44.4615 193.743 44.9763 194.123C45.4911 194.492 45.7485 195.114 45.7485 195.989V197.819C45.7485 198.234 45.6842 198.579 45.5555 198.855C45.4268 199.12 45.2176 199.362 44.9281 199.581C44.6492 199.788 44.2363 200.024 43.6893 200.289L41.2761 201.481C40.5682 201.826 40.2143 202.333 40.2143 203V203.743H45.7485V204.952H38.7342V202.949Z" fill="white"/>
<path d="M51.992 205.125C51.091 205.125 50.0775 205.015 48.9513 204.796V203.553C50.2276 203.841 51.2948 203.985 52.1528 203.985C53.5793 203.985 54.2925 203.553 54.2925 202.689V200.772C54.2925 200.3 54.0566 199.99 53.5847 199.84C53.3594 199.782 53.1557 199.748 52.9733 199.736C52.8017 199.713 52.5765 199.702 52.2976 199.702H50.2866V198.631H52.0241C52.303 198.631 52.5282 198.625 52.6998 198.614C52.8714 198.591 53.0699 198.545 53.2951 198.476C53.531 198.418 53.7134 198.309 53.8421 198.147C53.9708 197.986 54.0351 197.779 54.0351 197.526V195.522C54.0351 194.935 53.3916 194.641 52.1046 194.641C51.2465 194.641 50.2652 194.734 49.1605 194.918V193.726C50.0828 193.623 51.0589 193.571 52.0885 193.571C53.279 193.571 54.1424 193.715 54.6787 194.002C55.2257 194.279 55.4991 194.757 55.4991 195.436V197.595C55.4991 197.952 55.3651 198.251 55.0969 198.493C54.8288 198.723 54.4856 198.873 54.0673 198.942V199.011C54.3247 199.057 54.5339 199.109 54.6947 199.166C54.8664 199.212 55.0487 199.287 55.2417 199.391C55.6171 199.598 55.8048 199.961 55.8048 200.479V202.724C55.8048 203.115 55.7244 203.467 55.5635 203.778C55.4026 204.088 55.1988 204.33 54.9522 204.503C54.7376 204.664 54.4534 204.796 54.0995 204.9C53.7456 204.992 53.397 205.056 53.0538 205.09C52.6462 205.113 52.2923 205.125 51.992 205.125Z" fill="white"/>
<path d="M63.8823 202.5H58.6858V201.135L63.4157 193.743H65.2176V201.308H66.3437V202.5H65.2176V204.952H63.8823V202.5ZM63.8823 201.308V195.108L59.9729 201.308H63.8823Z" fill="white"/>
<path d="M73.3594 193.553H74.5981L69.3856 205.125H68.1468L73.3594 193.553Z" fill="white"/>
<path d="M81.5948 202.5H76.3984V201.135L81.1283 193.743H82.9301V201.308H84.0563V202.5H82.9301V204.952H81.5948V202.5ZM81.5948 201.308V195.108L77.6854 201.308H81.5948Z" fill="white"/>
<path d="M89.9779 205.125C89.077 205.125 88.0634 205.015 86.9373 204.796V203.553C88.2136 203.841 89.2808 203.985 90.1388 203.985C91.5653 203.985 92.2785 203.553 92.2785 202.689V200.772C92.2785 200.3 92.0426 199.99 91.5706 199.84C91.3454 199.782 91.1416 199.748 90.9593 199.736C90.7877 199.713 90.5625 199.702 90.2836 199.702H88.2726V198.631H90.0101C90.289 198.631 90.5142 198.625 90.6858 198.614C90.8574 198.591 91.0558 198.545 91.2811 198.476C91.517 198.418 91.6993 198.309 91.828 198.147C91.9567 197.986 92.0211 197.779 92.0211 197.526V195.522C92.0211 194.935 91.3776 194.641 90.0905 194.641C89.2325 194.641 88.2511 194.734 87.1464 194.918V193.726C88.0688 193.623 89.0448 193.571 90.0744 193.571C91.265 193.571 92.1284 193.715 92.6646 194.002C93.2116 194.279 93.4851 194.757 93.4851 195.436V197.595C93.4851 197.952 93.351 198.251 93.0829 198.493C92.8148 198.723 92.4716 198.873 92.0533 198.942V199.011C92.3107 199.057 92.5198 199.109 92.6807 199.166C92.8523 199.212 93.0346 199.287 93.2277 199.391C93.6031 199.598 93.7908 199.961 93.7908 200.479V202.724C93.7908 203.115 93.7103 203.467 93.5495 203.778C93.3886 204.088 93.1848 204.33 92.9381 204.503C92.7236 204.664 92.4394 204.796 92.0855 204.9C91.7315 204.992 91.3829 205.056 91.0397 205.09C90.6322 205.113 90.2782 205.125 89.9779 205.125Z" fill="white"/>
<path d="M96.9936 202.949C96.9936 202.626 97.0418 202.327 97.1384 202.05C97.2456 201.763 97.3797 201.521 97.5406 201.325C97.6693 201.164 97.8623 200.991 98.1197 200.807C98.3879 200.611 98.6399 200.45 98.8759 200.323C99.0796 200.208 99.3478 200.076 99.6803 199.926L101.418 199.097C102.104 198.775 102.447 198.274 102.447 197.595V196.058C102.447 195.528 102.297 195.177 101.997 195.004C101.697 194.82 101.171 194.728 100.42 194.728C99.6803 194.728 98.6614 194.849 97.3636 195.091V193.882C98.4468 193.663 99.5676 193.553 100.726 193.553C101.884 193.553 102.721 193.743 103.236 194.123C103.751 194.492 104.008 195.114 104.008 195.989V197.819C104.008 198.234 103.944 198.579 103.815 198.855C103.686 199.12 103.477 199.362 103.187 199.581C102.909 199.788 102.496 200.024 101.949 200.289L99.5355 201.481C98.8276 201.826 98.4737 202.333 98.4737 203V203.743H104.008V204.952H96.9936V202.949Z" fill="white"/>
<path d="M111.104 195.298L107.935 197.526V196.109L111.12 193.743H112.504V204.952H111.104V195.298Z" fill="white"/>
</g>
<path d="M121.971 148.321H122.637L124.01 152.103H124.069L125.441 148.321H126.075L124.372 152.728H123.634L121.971 148.321Z" fill="white"/>
<path d="M128.802 148.321H129.541L131.203 152.728H130.537L130.049 151.39H128.214L127.733 152.728H127.099L128.802 148.321ZM129.89 150.935L129.164 148.946H129.105L128.379 150.935H129.89Z" fill="white"/>
<path d="M132.683 148.321H133.323V152.266H135.428V152.728H132.683V148.321Z" fill="white"/>
<path d="M136.935 148.321H137.575V152.728H136.935V148.321Z" fill="white"/>
<path d="M139.506 148.321H141.208C142.409 148.321 143.009 148.742 143.009 149.584V151.533C143.009 152.33 142.411 152.728 141.215 152.728H139.506V148.321ZM141.169 152.28C141.987 152.28 142.396 152.026 142.396 151.519V149.577C142.396 149.414 142.363 149.276 142.297 149.163C142.231 149.05 142.139 148.966 142.02 148.912C141.901 148.862 141.778 148.828 141.65 148.81C141.523 148.787 141.373 148.776 141.202 148.776H140.146V152.28H141.169Z" fill="white"/>
<path d="M123.482 156.931H122.03V156.469H125.573V156.931H124.128V160.876H123.482V156.931Z" fill="white"/>
<path d="M127.11 156.469H127.75V158.371H130.026V156.469H130.666V160.876H130.026V158.832H127.75V160.876H127.11V156.469Z" fill="white"/>
<path d="M132.599 156.469H134.104C134.482 156.469 134.777 156.494 134.988 156.544C135.203 156.589 135.359 156.673 135.456 156.795C135.557 156.917 135.608 157.096 135.608 157.332V158.092C135.608 158.355 135.502 158.558 135.291 158.703C135.084 158.844 134.821 158.914 134.499 158.914L135.872 160.876H135.087L133.86 158.995H133.239V160.876H132.599V156.469ZM134.077 158.561C134.394 158.561 134.62 158.522 134.757 158.445C134.898 158.364 134.968 158.219 134.968 158.011V157.4C134.968 157.069 134.691 156.904 134.137 156.904H133.239V158.561H134.077Z" fill="white"/>
<path d="M139.262 160.944C139.029 160.944 138.824 160.928 138.648 160.897C138.477 160.865 138.307 160.811 138.14 160.734C137.964 160.652 137.828 160.528 137.731 160.36C137.639 160.193 137.593 159.989 137.593 159.749V156.469H138.206V159.742C138.206 160.018 138.296 160.215 138.477 160.333C138.657 160.446 138.923 160.503 139.275 160.503C139.627 160.503 139.889 160.446 140.06 160.333C140.236 160.215 140.324 160.018 140.324 159.742V156.469H140.938V159.749C140.938 160.546 140.379 160.944 139.262 160.944Z" fill="white"/>
<path d="M153.529 134.732H154.475L155.833 138.971L155.852 138.979L157.138 134.732H158.052V139.827H157.497V135.517H157.465L156.1 139.827H155.533L154.129 135.517H154.096V139.827H153.529V134.732Z" fill="white"/>
<path d="M161.625 139.906C160.441 139.906 159.849 139.445 159.849 138.524V136.114C159.849 135.141 160.441 134.654 161.625 134.654C162.822 134.654 163.42 135.138 163.42 136.106V138.524C163.42 139.016 163.255 139.369 162.924 139.584C162.593 139.798 162.16 139.906 161.625 139.906ZM161.638 139.395C162.417 139.395 162.806 139.102 162.806 138.516V136.09C162.806 135.462 162.415 135.148 161.631 135.148C161.253 135.148 160.961 135.219 160.757 135.36C160.556 135.502 160.456 135.745 160.456 136.09V138.516C160.456 139.102 160.85 139.395 161.638 139.395Z" fill="white"/>
<path d="M165.213 134.732H165.977L168.281 138.94V134.732H168.836V139.827H168.072L165.768 135.549V139.827H165.213V134.732Z" fill="white"/>
<path d="M171.791 135.266H170.354V134.732H173.86V135.266H172.43V139.827H171.791V135.266Z" fill="white"/>
<path d="M175.38 134.732H176.014V136.93H178.266V134.732H178.899V139.827H178.266V137.464H176.014V139.827H175.38V134.732Z" fill="white"/>
<path d="M182.443 134.646H182.946L180.831 139.906H180.328L182.443 134.646Z" fill="white"/>
<path d="M185.413 137.77L183.879 134.732H184.603L185.733 137.127L186.862 134.732H187.586L186.046 137.747V139.827H185.413V137.77Z" fill="white"/>
<path d="M189.003 134.732H191.849V135.266H189.636V136.93H191.633V137.464H189.636V139.293H191.914V139.827H189.003V134.732Z" fill="white"/>
<path d="M194.839 134.732H195.57L197.215 139.827H196.556L196.073 138.281H194.258L193.781 139.827H193.155L194.839 134.732ZM195.916 137.755L195.198 135.455H195.139L194.421 137.755H195.916Z" fill="white"/>
<path d="M198.679 134.732H200.168C200.542 134.732 200.833 134.761 201.042 134.819C201.256 134.871 201.41 134.968 201.506 135.109C201.606 135.25 201.656 135.457 201.656 135.729V136.609C201.656 136.912 201.551 137.148 201.343 137.315C201.138 137.477 200.877 137.558 200.559 137.558L201.917 139.827H201.14L199.926 137.653H199.312V139.827H198.679V134.732ZM200.141 137.15C200.455 137.15 200.679 137.106 200.814 137.017C200.953 136.923 201.023 136.755 201.023 136.514V135.808C201.023 135.426 200.749 135.235 200.2 135.235H199.312V137.15H200.141Z" fill="white"/>
<path fill-rule="evenodd" clip-rule="evenodd" d="M37.8173 51.135V50.4922H55.9137L56.0109 50.6689L55.6978 50.8136C56.0109 50.6689 56.0108 50.6689 56.0109 50.6689L56.0113 50.6698L56.0124 50.6717L56.0164 50.679L56.0311 50.7062C56.0439 50.73 56.0625 50.7648 56.0861 50.8097C56.1332 50.8993 56.2004 51.0292 56.281 51.1914C56.4421 51.5156 56.6576 51.9701 56.8756 52.4915C57.3072 53.5242 57.7645 54.8571 57.8012 55.9644C57.842 57.1925 57.3835 58.6827 56.9335 59.8391C56.7063 60.423 56.4768 60.9326 56.3041 61.2964C56.2176 61.4784 56.1453 61.6242 56.0943 61.7248C56.0689 61.7752 56.0487 61.8142 56.0349 61.8409L56.0189 61.8716L56.0146 61.8797L56.0134 61.8819L56.0131 61.8825C56.0131 61.8826 56.0129 61.8828 55.6978 61.7419L56.0131 61.8825L55.9169 62.0633H37.8173V61.4205H55.4752C55.5228 61.326 55.5864 61.197 55.661 61.0398C55.8291 60.6859 56.0523 60.1901 56.273 59.6231C56.7188 58.4777 57.1368 57.084 57.1003 55.984C57.0673 54.9915 56.6481 53.7441 56.2207 52.7215C56.0091 52.2152 55.7995 51.7732 55.6428 51.4579C55.5775 51.3266 55.5216 51.2175 55.4786 51.135H37.8173Z" fill="black"/>
<path fill-rule="evenodd" clip-rule="evenodd" d="M94.6211 61.4206V62.0635H77.4771L77.385 61.8867L77.6817 61.7421C77.385 61.8867 77.3851 61.8868 77.385 61.8867L77.3846 61.8859L77.3836 61.8839L77.3798 61.8767L77.3659 61.8494C77.3537 61.8256 77.3361 61.7908 77.3138 61.746C77.2691 61.6563 77.2055 61.5265 77.1292 61.3642C76.9765 61.04 76.7723 60.5856 76.5659 60.0642C76.1569 59.0315 75.7237 57.6986 75.6889 56.5912C75.6503 55.3631 76.0846 53.8729 76.511 52.7166C76.7262 52.1327 76.9437 51.623 77.1073 51.2593C77.1892 51.0773 77.2577 50.9315 77.306 50.8308C77.3301 50.7805 77.3492 50.7414 77.3623 50.7147L77.3775 50.6841L77.3815 50.676L77.3826 50.6738L77.3829 50.6732C77.383 50.6731 77.3831 50.6728 77.6817 50.8138L77.3829 50.6732L77.4741 50.4923H94.6211V51.1352H77.8925C77.8475 51.2297 77.7872 51.3587 77.7165 51.5158C77.5573 51.8698 77.3458 52.3655 77.1367 52.9326C76.7144 54.078 76.3184 55.4716 76.353 56.5717C76.3842 57.5642 76.7813 58.8116 77.1863 59.8342C77.3867 60.3405 77.5853 60.7825 77.7338 61.0978C77.7956 61.229 77.8486 61.3382 77.8893 61.4206H94.6211Z" fill="black"/>
<path fill-rule="evenodd" clip-rule="evenodd" d="M66.8858 34.7134L67.0695 34.8446L66.8781 35.1166L66.6973 34.8374L66.8858 34.7134ZM66.8703 35.5222C66.8842 35.5324 66.899 35.5433 66.9144 35.5547C67.0619 35.6635 67.2752 35.8229 67.5375 36.0243C68.0623 36.4272 68.7824 36.9977 69.5634 37.6674C71.1342 39.0144 72.919 40.7362 73.8765 42.2932C74.864 43.8993 75.6813 46.1975 76.2542 48.1151C76.5394 49.0699 76.7619 49.9228 76.9131 50.5369C76.9886 50.8438 77.0463 51.0909 77.085 51.2609C77.1044 51.3459 77.119 51.4116 77.1287 51.4559L77.1396 51.5059L77.1423 51.5184L77.143 51.5215L77.1431 51.5221L77.4667 51.4524C77.7903 51.3826 77.7902 51.3825 77.7902 51.3824L77.79 51.3812L77.7863 51.364L77.7748 51.3117C77.7648 51.2658 77.7498 51.1984 77.73 51.1117C77.6905 50.9383 77.632 50.6875 77.5554 50.3764C77.4023 49.7543 77.1769 48.8905 76.8879 47.9229C76.3122 45.9959 75.4749 43.6267 74.4391 41.9421C73.4229 40.2896 71.5679 38.5108 69.9923 37.1596C69.2001 36.4803 68.4703 35.9023 67.9386 35.494C67.6726 35.2898 67.456 35.1279 67.3055 35.0168C67.2303 34.9613 67.1716 34.9185 67.1316 34.8894L67.0858 34.8563L67.0739 34.8477L67.0695 34.8446C67.0695 34.8446 67.0695 34.8446 66.8781 35.1166C66.6973 34.8374 66.6973 34.8374 66.6973 34.8374L66.6926 34.8404L66.6799 34.8489L66.6307 34.8816C66.5878 34.9103 66.5247 34.9526 66.4438 35.0076C66.2821 35.1174 66.049 35.2777 65.7625 35.4801C65.1897 35.8848 64.4023 36.4586 63.5441 37.1348C61.8365 38.4805 59.8163 40.2568 58.6649 41.9275C57.5173 43.5926 56.513 45.9594 55.7993 47.8904C55.4411 48.8596 55.1535 49.7262 54.9555 50.3505C54.8564 50.6628 54.7797 50.9147 54.7277 51.0888C54.7016 51.1759 54.6818 51.2435 54.6684 51.2896L54.6531 51.3422L54.6492 51.3558L54.6479 51.3603C54.6479 51.3604 54.6478 51.3607 54.966 51.4524L55.2841 51.5441L55.2852 51.5402L55.2888 51.5276L55.3034 51.4772C55.3164 51.4326 55.3358 51.3665 55.3613 51.2811C55.4124 51.1102 55.488 50.8618 55.5858 50.5535C55.7815 49.9366 56.0657 49.0803 56.4195 48.1231C57.1298 46.201 58.1109 43.9005 59.2085 42.3078C60.2986 40.726 62.2491 39.0018 63.9518 37.66C64.7988 36.9926 65.5765 36.4259 66.1425 36.0261C66.4253 35.8262 66.6551 35.6683 66.8138 35.5604C66.8338 35.5469 66.8526 35.5341 66.8703 35.5222Z" fill="black"/>
<path fill-rule="evenodd" clip-rule="evenodd" d="M65.8795 79.946L65.6992 79.8178L65.8871 79.5372L66.0644 79.8251L65.8795 79.946ZM65.895 79.1256C65.8802 79.1147 65.8645 79.1032 65.8481 79.091C65.7009 78.9823 65.4878 78.8227 65.2258 78.6202C64.7016 78.215 63.9823 77.6388 63.2021 76.9548C61.6331 75.5793 59.8506 73.796 58.894 72.1072C57.9014 70.355 57.0004 67.8517 56.3445 65.7685C56.0177 64.7305 55.7537 63.8032 55.5714 63.1356C55.4803 62.8019 55.4097 62.5332 55.3619 62.3482C55.338 62.2558 55.3198 62.1842 55.3077 62.1359L55.2939 62.0812L55.2905 62.0675L55.2895 62.0634L54.9688 62.1471C54.6481 62.231 54.6481 62.2311 54.6481 62.2311L54.6484 62.2324L54.6494 62.2362L54.653 62.2508L54.6672 62.3074C54.6797 62.3569 54.6982 62.4298 54.7225 62.5237C54.771 62.7114 54.8424 62.9832 54.9344 63.3203C55.1184 63.9944 55.385 64.9305 55.7151 65.979C56.3731 68.0689 57.2918 70.6316 58.3225 72.451C59.3393 74.246 61.1963 76.0917 62.7733 77.4743C63.5662 78.1694 64.2966 78.7544 64.8288 79.1658C65.095 79.3716 65.3119 79.534 65.4626 79.6453C65.5379 79.701 65.5967 79.7438 65.6368 79.7729L65.6828 79.8061L65.6948 79.8146L65.6992 79.8178C65.6993 79.8178 65.6992 79.8178 65.8871 79.5372C66.0644 79.8251 66.0644 79.8251 66.0644 79.8251L66.0691 79.822L66.082 79.8135L66.1313 79.7808C66.1744 79.7521 66.2375 79.7098 66.3185 79.6548C66.4804 79.5448 66.7137 79.3841 67.0005 79.1803C67.5738 78.7728 68.3618 78.1924 69.2207 77.5007C70.9297 76.1242 72.9522 74.281 74.1046 72.4658C75.2538 70.6558 76.1746 68.0842 76.8054 65.9881C77.1221 64.9357 77.3681 63.9948 77.535 63.3168C77.6184 62.9778 77.6821 62.7042 77.7251 62.5151C77.7465 62.4205 77.7628 62.3471 77.7738 62.2971L77.7862 62.2399L77.7894 62.2251L77.7904 62.2201C77.7904 62.22 77.7905 62.2197 77.4672 62.1471L77.1439 62.0745L77.1431 62.0787L77.1401 62.0923L77.1283 62.147C77.1177 62.1953 77.1018 62.267 77.0808 62.3597C77.0387 62.5452 76.9759 62.8146 76.8936 63.1491C76.7288 63.8184 76.4859 64.7475 76.1733 65.7861C75.5456 67.872 74.6467 70.3665 73.5509 72.0924C72.462 73.8076 70.5142 75.5934 68.8132 76.9633C67.9671 77.6448 67.1902 78.2171 66.6248 78.6188C66.3423 78.8197 66.1128 78.9777 65.9543 79.0854C65.9333 79.0997 65.9135 79.1131 65.895 79.1256Z" fill="black"/>
</g>
<defs>
<filter id="filter0_di" x="0" y="0" width="391.951" height="230.904" filterUnits="userSpaceOnUse" color-interpolation-filters="sRGB">
<feFlood flood-opacity="0" result="BackgroundImageFix"/>
<feColorMatrix in="SourceAlpha" type="matrix" values="0 0 0 0 0 0 0 0 0 0 0 0 0 0 0 0 0 0 127 0"/>
<feOffset dx="3" dy="6"/>
<feGaussianBlur stdDeviation="2"/>
<feColorMatrix type="matrix" values="0 0 0 0 0 0 0 0 0 0 0 0 0 0 0 0 0 0 0.3 0"/>
<feBlend mode="normal" in2="BackgroundImageFix" result="effect1_dropShadow"/>
<feBlend mode="normal" in="SourceGraphic" in2="effect1_dropShadow" result="shape"/>
<feColorMatrix in="SourceAlpha" type="matrix" values="0 0 0 0 0 0 0 0 0 0 0 0 0 0 0 0 0 0 127 0" result="hardAlpha"/>
<feOffset dx="-2" dy="-4"/>
<feComposite in2="hardAlpha" operator="arithmetic" k2="-1" k3="1"/>
<feColorMatrix type="matrix" values="0 0 0 0 0 0 0 0 0 0 0 0 0 0 0 0 0 0 0.25 0"/>
<feBlend mode="normal" in2="shape" result="effect2_innerShadow"/>
</filter>
<filter id="filter1_d" x="33.8173" y="31.7134" width="64.8038" height="53.2326" filterUnits="userSpaceOnUse" color-interpolation-filters="sRGB">
<feFlood flood-opacity="0" result="BackgroundImageFix"/>
<feColorMatrix in="SourceAlpha" type="matrix" values="0 0 0 0 0 0 0 0 0 0 0 0 0 0 0 0 0 0 127 0"/>
<feOffset dy="1"/>
<feGaussianBlur stdDeviation="2"/>
<feColorMatrix type="matrix" values="0 0 0 0 0 0 0 0 0 0 0 0 0 0 0 0 0 0 0.65 0"/>
<feBlend mode="normal" in2="BackgroundImageFix" result="effect1_dropShadow"/>
<feBlend mode="normal" in="SourceGraphic" in2="effect1_dropShadow" result="shape"/>
</filter>
<filter id="filter2_d" x="33.8173" y="31.7134" width="64.8038" height="53.2326" filterUnits="userSpaceOnUse" color-interpolation-filters="sRGB">
<feFlood flood-opacity="0" result="BackgroundImageFix"/>
<feColorMatrix in="SourceAlpha" type="matrix" values="0 0 0 0 0 0 0 0 0 0 0 0 0 0 0 0 0 0 127 0"/>
<feOffset dy="1"/>
<feGaussianBlur stdDeviation="2"/>
<feColorMatrix type="matrix" values="0 0 0 0 0 0 0 0 0 0 0 0 0 0 0 0 0 0 0.65 0"/>
<feBlend mode="normal" in2="BackgroundImageFix" result="effect1_dropShadow"/>
<feBlend mode="normal" in="SourceGraphic" in2="effect1_dropShadow" result="shape"/>
</filter>
<filter id="filter3_di" x="33.7135" y="102.088" width="302.746" height="19.7788" filterUnits="userSpaceOnUse" color-interpolation-filters="sRGB">
<feFlood flood-opacity="0" result="BackgroundImageFix"/>
<feColorMatrix in="SourceAlpha" type="matrix" values="0 0 0 0 0 0 0 0 0 0 0 0 0 0 0 0 0 0 127 0"/>
<feOffset dy="1"/>
<feGaussianBlur stdDeviation="1"/>
<feColorMatrix type="matrix" values="0 0 0 0 0 0 0 0 0 0 0 0 0 0 0 0 0 0 0.9 0"/>
<feBlend mode="normal" in2="BackgroundImageFix" result="effect1_dropShadow"/>
<feBlend mode="normal" in="SourceGraphic" in2="effect1_dropShadow" result="shape"/>
<feColorMatrix in="SourceAlpha" type="matrix" values="0 0 0 0 0 0 0 0 0 0 0 0 0 0 0 0 0 0 127 0" result="hardAlpha"/>
<feOffset dy="3"/>
<feGaussianBlur stdDeviation="1"/>
<feComposite in2="hardAlpha" operator="arithmetic" k2="-1" k3="1"/>
<feColorMatrix type="matrix" values="0 0 0 0 0 0 0 0 0 0 0 0 0 0 0 0 0 0 0.45 0"/>
<feBlend mode="normal" in2="shape" result="effect2_innerShadow"/>
</filter>
<filter id="filter4_di" x="152.581" y="146.269" width="48.1807" height="14.5192" filterUnits="userSpaceOnUse" color-interpolation-filters="sRGB">
<feFlood flood-opacity="0" result="BackgroundImageFix"/>
<feColorMatrix in="SourceAlpha" type="matrix" values="0 0 0 0 0 0 0 0 0 0 0 0 0 0 0 0 0 0 127 0"/>
<feOffset dy="1"/>
<feGaussianBlur stdDeviation="1"/>
<feColorMatrix type="matrix" values="0 0 0 0 0 0 0 0 0 0 0 0 0 0 0 0 0 0 0.9 0"/>
<feBlend mode="normal" in2="BackgroundImageFix" result="effect1_dropShadow"/>
<feBlend mode="normal" in="SourceGraphic" in2="effect1_dropShadow" result="shape"/>
<feColorMatrix in="SourceAlpha" type="matrix" values="0 0 0 0 0 0 0 0 0 0 0 0 0 0 0 0 0 0 127 0" result="hardAlpha"/>
<feOffset dy="3"/>
<feGaussianBlur stdDeviation="1"/>
<feComposite in2="hardAlpha" operator="arithmetic" k2="-1" k3="1"/>
<feColorMatrix type="matrix" values="0 0 0 0 0 0 0 0 0 0 0 0 0 0 0 0 0 0 0.45 0"/>
<feBlend mode="normal" in2="shape" result="effect2_innerShadow"/>
</filter>
<filter id="filter5_di" x="28.4539" y="173.619" width="173.359" height="14.5192" filterUnits="userSpaceOnUse" color-interpolation-filters="sRGB">
<feFlood flood-opacity="0" result="BackgroundImageFix"/>
<feColorMatrix in="SourceAlpha" type="matrix" values="0 0 0 0 0 0 0 0 0 0 0 0 0 0 0 0 0 0 127 0"/>
<feOffset dy="1"/>
<feGaussianBlur stdDeviation="1"/>
<feColorMatrix type="matrix" values="0 0 0 0 0 0 0 0 0 0 0 0 0 0 0 0 0 0 0.9 0"/>
<feBlend mode="normal" in2="BackgroundImageFix" result="effect1_dropShadow"/>
<feBlend mode="normal" in="SourceGraphic" in2="effect1_dropShadow" result="shape"/>
<feColorMatrix in="SourceAlpha" type="matrix" values="0 0 0 0 0 0 0 0 0 0 0 0 0 0 0 0 0 0 127 0" result="hardAlpha"/>
<feOffset dy="2"/>
<feGaussianBlur stdDeviation="1"/>
<feComposite in2="hardAlpha" operator="arithmetic" k2="-1" k3="1"/>
<feColorMatrix type="matrix" values="0 0 0 0 0 0 0 0 0 0 0 0 0 0 0 0 0 0 0.45 0"/>
<feBlend mode="normal" in2="shape" result="effect2_innerShadow"/>
</filter>
<filter id="filter6_di" x="27.4019" y="192.553" width="87.1018" height="15.5711" filterUnits="userSpaceOnUse" color-interpolation-filters="sRGB">
<feFlood flood-opacity="0" result="BackgroundImageFix"/>
<feColorMatrix in="SourceAlpha" type="matrix" values="0 0 0 0 0 0 0 0 0 0 0 0 0 0 0 0 0 0 127 0"/>
<feOffset dy="1"/>
<feGaussianBlur stdDeviation="1"/>
<feColorMatrix type="matrix" values="0 0 0 0 0 0 0 0 0 0 0 0 0 0 0 0 0 0 0.9 0"/>
<feBlend mode="normal" in2="BackgroundImageFix" result="effect1_dropShadow"/>
<feBlend mode="normal" in="SourceGraphic" in2="effect1_dropShadow" result="shape"/>
<feColorMatrix in="SourceAlpha" type="matrix" values="0 0 0 0 0 0 0 0 0 0 0 0 0 0 0 0 0 0 127 0" result="hardAlpha"/>
<feOffset dy="2"/>
<feGaussianBlur stdDeviation="1"/>
<feComposite in2="hardAlpha" operator="arithmetic" k2="-1" k3="1"/>
<feColorMatrix type="matrix" values="0 0 0 0 0 0 0 0 0 0 0 0 0 0 0 0 0 0 0.45 0"/>
<feBlend mode="normal" in2="shape" result="effect2_innerShadow"/>
</filter>
<radialGradient id="paint0_angular" cx="0" cy="0" r="1" gradientUnits="userSpaceOnUse" gradientTransform="translate(192.976 110.452) rotate(90) scale(110.452 191.976)">
<stop stop-color="white"/>
<stop offset="0.760417" stop-color="white" stop-opacity="0"/>
</radialGradient>
<linearGradient id="paint1_linear" x1="192.976" y1="0" x2="192.976" y2="220.904" gradientUnits="userSpaceOnUse">
<stop offset="0.265625" stop-color="white"/>
<stop offset="1" stop-color="white" stop-opacity="0"/>
</linearGradient>
<radialGradient id="paint2_angular" cx="0" cy="0" r="1" gradientUnits="userSpaceOnUse" gradientTransform="translate(66.2191 57.3297) rotate(90) scale(22.6163 28.4019)">
<stop stop-color="white"/>
<stop offset="0.760417" stop-color="white" stop-opacity="0"/>
</radialGradient>
<linearGradient id="paint3_linear" x1="66.2191" y1="34.7134" x2="66.2191" y2="79.946" gradientUnits="userSpaceOnUse">
<stop offset="0.265625" stop-color="white"/>
<stop offset="1" stop-color="white" stop-opacity="0"/>
</linearGradient>
<radialGradient id="paint4_angular" cx="0" cy="0" r="1" gradientUnits="userSpaceOnUse" gradientTransform="translate(66.2191 57.3297) rotate(90) scale(22.6163 28.4019)">
<stop stop-color="white"/>
<stop offset="0.760417" stop-color="white" stop-opacity="0"/>
</radialGradient>
<linearGradient id="paint5_linear" x1="66.2191" y1="34.7134" x2="66.2191" y2="79.946" gradientUnits="userSpaceOnUse">
<stop offset="0.265625" stop-color="white"/>
<stop offset="1" stop-color="white" stop-opacity="0"/>
</linearGradient>
</defs>
</svg>