<svg width="384" height="220" viewBox="0 0 574 330" fill="none" xmlns="http://www.w3.org/2000/svg">
  <path d="M555.27 0H18.7296C8.38553 0 0 7.44563 0 16.6303V313.37C0 322.554 8.38553 330 18.7296 330H555.27C565.614 330 574 322.554 574 313.37V16.6303C574 7.44563 565.614 0 555.27 0Z" fill="#2094E8"/>
  <path d="M555.27 0H18.7296C8.38553 0 0 7.44563 0 16.6303V313.37C0 322.554 8.38553 330 18.7296 330H555.27C565.614 330 574 322.554 574 313.37V16.6303C574 7.44563 565.614 0 555.27 0Z" fill="url(#paint0_linear)" fill-opacity="0.65"/>
  <g filter="url(#filter0_d)">
  <path d="M125.797 51H69.203C61.3589 51 55 57.4283 55 65.3581V104.642C55 112.572 61.3589 119 69.203 119H125.797C133.641 119 140 112.572 140 104.642V65.3581C140 57.4283 133.641 51 125.797 51Z" fill="url(#paint1_angular)"/>
  <path d="M125.797 51H69.203C61.3589 51 55 57.4283 55 65.3581V104.642C55 112.572 61.3589 119 69.203 119H125.797C133.641 119 140 112.572 140 104.642V65.3581C140 57.4283 133.641 51 125.797 51Z" fill="url(#paint2_linear)"/>
  <path d="M125.797 51H69.203C61.3589 51 55 57.4283 55 65.3581V104.642C55 112.572 61.3589 119 69.203 119H125.797C133.641 119 140 112.572 140 104.642V65.3581C140 57.4283 133.641 51 125.797 51Z" stroke="black" stroke-width="0.5" stroke-miterlimit="10"/>
  </g>
  <path d="M507.34 50.5469C508.406 52.8327 508.94 55.2823 508.912 57.7519C508.87 60.3307 508.219 62.8738 507 65.2204" stroke="black" stroke-opacity="0.8" stroke-width="5" stroke-miterlimit="10" stroke-linecap="round"/>
  <path d="M515.469 46.4261C517.415 49.5417 518.54 53.0005 518.762 56.5482C519.013 61.2773 517.677 65.9671 514.918 70.0354" stroke="black" stroke-opacity="0.8" stroke-width="5" stroke-miterlimit="10" stroke-linecap="round"/>
  <path d="M525.078 42.0944C528.187 46.2674 529.986 51.0864 530.294 56.0649C530.602 62.3173 528.578 68.4872 524.528 73.6379" stroke="black" stroke-opacity="0.8" stroke-width="5" stroke-miterlimit="10" stroke-linecap="round"/>
  <path d="M534.678 38C538.655 43.6553 540.836 50.1413 540.995 56.7856C541.128 64.2132 538.741 71.5077 534.138 77.7414" stroke="black" stroke-opacity="0.8" stroke-width="5" stroke-miterlimit="10" stroke-linecap="round"/>
  <path d="M504 244H508.947C510.127 244 511.065 244.122 511.761 244.367C512.401 244.597 512.827 244.884 513.041 245.23C513.268 245.575 513.382 246.049 513.382 246.653V248.53C513.382 249.091 513.225 249.53 512.913 249.846C512.6 250.148 512.124 250.371 511.484 250.515V250.601C512.237 250.73 512.842 250.996 513.296 251.399C513.765 251.787 514 252.276 514 252.866V255.217C514 256.238 513.623 256.957 512.87 257.374C512.117 257.791 510.859 258 509.096 258H504V244ZM509.011 250.126C509.878 250.126 510.496 249.997 510.866 249.738C511.249 249.465 511.441 249.041 511.441 248.465V246.826C511.441 246.294 511.249 245.92 510.866 245.704C510.482 245.488 509.842 245.381 508.947 245.381H506.068V250.126H509.011ZM509.096 256.555C510.134 256.555 510.866 256.447 511.292 256.231C511.719 256.015 511.932 255.649 511.932 255.131V253.017C511.932 252.643 511.854 252.348 511.697 252.133C511.555 251.902 511.328 251.737 511.015 251.636C510.702 251.55 510.425 251.5 510.183 251.485C509.942 251.457 509.579 251.442 509.096 251.442H506.068V256.555H509.096Z" fill="#333333"/>
  <path d="M502 302H506.796V303.197H503.623V304.783H504.632C505.256 304.783 505.755 304.822 506.13 304.901C506.504 304.973 506.789 305.117 506.983 305.333C507.184 305.541 507.285 305.843 507.285 306.239V307.339C507.285 308.446 506.376 309 504.559 309H502V302ZM504.486 307.803C504.895 307.803 505.194 307.745 505.381 307.63C505.568 307.508 505.662 307.325 505.662 307.08V306.552C505.662 306.329 505.572 306.178 505.391 306.099C505.211 306.02 504.916 305.98 504.507 305.98H503.612V307.803H504.486Z" fill="#333333"/>
  <path d="M513.549 302H515.526L517.96 309H516.316L515.713 307.156H513.247L512.654 309H511.052L513.549 302ZM515.359 306.034L514.506 303.402H514.464L513.611 306.034H515.359Z" fill="#333333"/>
  <path d="M522.038 302H523.66V304.804H526.532V302H528.154V309H526.532V306.002H523.66V309H522.038V302Z" fill="#333333"/>
  <path d="M532.935 302H534.558V304.761C534.863 304.761 535.109 304.704 535.297 304.589C535.484 304.466 535.688 304.236 535.91 303.898L537.179 302H539L537.544 304.103C537.322 304.427 537.117 304.675 536.93 304.847C536.749 305.013 536.524 305.149 536.254 305.257V305.279C536.6 305.365 536.888 305.52 537.117 305.743C537.353 305.966 537.582 306.289 537.804 306.713L539 309H537.179L536.077 306.94C535.931 306.667 535.789 306.462 535.65 306.325C535.518 306.181 535.369 306.084 535.203 306.034C535.036 305.984 534.821 305.958 534.558 305.958V309H532.935V302Z" fill="#333333"/>
  <path d="M531 244H539.798V245.362H532.957V249.609H539.132V250.971H532.957V255.638H540V257H531V244Z" fill="#333333"/>
  <path d="M505.4 288C501.8 288 500 286.774 500 284.322V277.887C500 275.296 501.8 274 505.4 274C506.626 274 507.8 274.132 508.921 274.397V275.901C507.655 275.567 506.495 275.4 505.44 275.4C504.925 275.4 504.477 275.435 504.095 275.504C503.712 275.56 503.343 275.665 502.987 275.818C502.222 276.166 501.84 276.849 501.84 277.866V284.218C501.84 285.778 503.066 286.558 505.519 286.558C506.574 286.558 507.734 286.391 509 286.057V287.603C507.879 287.868 506.679 288 505.4 288Z" fill="#333333"/>
  <path d="M529.507 276.467H525V275H536V276.467H531.493V289H529.507V276.467Z" fill="#333333"/>
  <path fill-rule="evenodd" clip-rule="evenodd" d="M519.278 257.327C519.202 257.647 519.163 257.976 519.16 258.306L519.128 262.347C519.127 262.584 519.303 262.782 519.533 262.824C519.759 262.865 519.986 262.744 520.065 262.527L521.451 258.737C521.565 258.425 521.644 258.101 521.685 257.77L524.534 235L519.278 257.327ZM517.039 273.257C516.924 273.57 516.845 273.895 516.804 274.227L513.957 297L519.222 274.679C519.299 274.355 519.338 274.023 519.34 273.689L519.37 268.821C519.371 268.656 519.251 268.517 519.091 268.485C518.929 268.453 518.766 268.539 518.709 268.695L517.039 273.257ZM521.84 266.293C521.727 265.942 521.727 265.873 521.727 265.753V265.753C521.727 265.752 521.728 265.563 521.911 265.27C522.06 265.033 524.816 264.625 525.887 264.475C526.168 264.436 526.45 264.427 526.733 264.445L549 265.904L526.691 267.173C526.429 267.188 526.166 267.179 525.906 267.143C524.835 266.998 521.932 266.579 521.84 266.293ZM516.614 265.42C516.614 265.539 516.614 265.609 516.499 265.96C516.406 266.247 513.448 266.668 512.373 266.811C512.116 266.846 511.857 266.855 511.598 266.84L489 265.571L511.556 264.111C511.835 264.093 512.115 264.102 512.392 264.14C513.469 264.289 516.277 264.699 516.427 264.937C516.613 265.23 516.614 265.419 516.614 265.42V265.42Z" fill="#333333"/>
  <g filter="url(#filter1_di)">
  <path d="M59.1049 178.36C57.1609 178.36 54.8689 178.144 52.2289 177.712V175.12C55.0129 175.696 57.3409 175.984 59.2129 175.984C60.6769 175.984 61.7449 175.78 62.4169 175.372C63.1129 174.94 63.4609 174.244 63.4609 173.284V168.64C63.4609 167.632 63.0289 166.984 62.1649 166.696C61.7569 166.576 61.3729 166.504 61.0129 166.48C60.6769 166.432 60.2329 166.408 59.6809 166.408H52.7689V154.636H66.2329V157.084H56.0089V164.176H61.4089C62.3689 164.176 63.2209 164.296 63.9649 164.536C64.7089 164.752 65.3689 165.136 65.9449 165.688C66.5449 166.288 66.8449 167.068 66.8449 168.028V173.356C66.8449 174.196 66.6889 174.94 66.3769 175.588C66.0889 176.212 65.6929 176.704 65.1889 177.064C64.7329 177.4 64.1449 177.676 63.4249 177.892C62.7289 178.108 62.0329 178.24 61.3369 178.288C60.4729 178.336 59.7289 178.36 59.1049 178.36ZM74.3717 173.824C74.3717 173.152 74.4797 172.528 74.6957 171.952C74.9357 171.352 75.2357 170.848 75.5957 170.44C75.8837 170.104 76.3157 169.744 76.8917 169.36C77.4917 168.952 78.0557 168.616 78.5837 168.352C79.0397 168.112 79.6397 167.836 80.3837 167.524L84.2717 165.796C85.8077 165.124 86.5757 164.08 86.5757 162.664V159.46C86.5757 158.356 86.2397 157.624 85.5677 157.264C84.8957 156.88 83.7197 156.688 82.0397 156.688C80.3837 156.688 78.1037 156.94 75.1997 157.444V154.924C77.6237 154.468 80.1317 154.24 82.7237 154.24C85.3157 154.24 87.1877 154.636 88.3397 155.428C89.4917 156.196 90.0677 157.492 90.0677 159.316V163.132C90.0677 163.996 89.9237 164.716 89.6357 165.292C89.3477 165.844 88.8797 166.348 88.2317 166.804C87.6077 167.236 86.6837 167.728 85.4597 168.28L80.0597 170.764C78.4757 171.484 77.6837 172.54 77.6837 173.932V175.48H90.0677V178H74.3717V173.824ZM105.947 157.876L98.8545 162.52V159.568L105.983 154.636H109.079V178H105.947V157.876ZM126.721 178.36C124.705 178.36 122.437 178.132 119.917 177.676V175.084C122.773 175.684 125.161 175.984 127.081 175.984C130.273 175.984 131.869 175.084 131.869 173.284V169.288C131.869 168.304 131.341 167.656 130.285 167.344C129.781 167.224 129.325 167.152 128.917 167.128C128.533 167.08 128.029 167.056 127.405 167.056H122.905V164.824H126.793C127.417 164.824 127.921 164.812 128.305 164.788C128.689 164.74 129.133 164.644 129.637 164.5C130.165 164.38 130.573 164.152 130.861 163.816C131.149 163.48 131.293 163.048 131.293 162.52V158.344C131.293 157.12 129.853 156.508 126.973 156.508C125.053 156.508 122.857 156.7 120.385 157.084V154.6C122.449 154.384 124.633 154.276 126.937 154.276C129.601 154.276 131.533 154.576 132.733 155.176C133.957 155.752 134.569 156.748 134.569 158.164V162.664C134.569 163.408 134.269 164.032 133.669 164.536C133.069 165.016 132.301 165.328 131.365 165.472V165.616C131.941 165.712 132.409 165.82 132.769 165.94C133.153 166.036 133.561 166.192 133.993 166.408C134.833 166.84 135.253 167.596 135.253 168.676V173.356C135.253 174.172 135.073 174.904 134.713 175.552C134.353 176.2 133.897 176.704 133.345 177.064C132.865 177.4 132.229 177.676 131.437 177.892C130.645 178.084 129.865 178.216 129.097 178.288C128.185 178.336 127.393 178.36 126.721 178.36ZM172.711 173.824C172.711 173.152 172.819 172.528 173.035 171.952C173.275 171.352 173.575 170.848 173.935 170.44C174.223 170.104 174.655 169.744 175.231 169.36C175.831 168.952 176.395 168.616 176.923 168.352C177.379 168.112 177.979 167.836 178.723 167.524L182.611 165.796C184.147 165.124 184.915 164.08 184.915 162.664V159.46C184.915 158.356 184.579 157.624 183.907 157.264C183.235 156.88 182.059 156.688 180.379 156.688C178.723 156.688 176.443 156.94 173.539 157.444V154.924C175.963 154.468 178.471 154.24 181.063 154.24C183.655 154.24 185.527 154.636 186.679 155.428C187.831 156.196 188.407 157.492 188.407 159.316V163.132C188.407 163.996 188.263 164.716 187.975 165.292C187.687 165.844 187.219 166.348 186.571 166.804C185.947 167.236 185.023 167.728 183.799 168.28L178.399 170.764C176.815 171.484 176.023 172.54 176.023 173.932V175.48H188.407V178H172.711V173.824ZM206.302 172.888H194.674V170.044L205.258 154.636H209.29V170.404H211.81V172.888H209.29V178H206.302V172.888ZM206.302 170.404V157.48L197.554 170.404H206.302ZM225.888 178.36C224.832 178.36 223.968 178.324 223.296 178.252C222.648 178.18 221.952 178.036 221.208 177.82C220.416 177.604 219.78 177.292 219.3 176.884C218.844 176.452 218.46 175.852 218.148 175.084C217.836 174.364 217.68 173.464 217.68 172.384V160.576C217.68 159.496 217.836 158.548 218.148 157.732C218.46 156.916 218.868 156.268 219.372 155.788C219.828 155.38 220.428 155.056 221.172 154.816C221.94 154.552 222.708 154.384 223.476 154.312C224.34 154.264 225.144 154.24 225.888 154.24C226.944 154.24 227.796 154.276 228.444 154.348C229.116 154.42 229.824 154.564 230.568 154.78C231.36 155.02 231.996 155.356 232.476 155.788C232.98 156.22 233.388 156.832 233.7 157.624C234.012 158.416 234.168 159.388 234.168 160.54V172.384C234.168 173.368 234.012 174.244 233.7 175.012C233.388 175.78 232.98 176.38 232.476 176.812C231.996 177.22 231.384 177.556 230.64 177.82C229.896 178.06 229.14 178.204 228.372 178.252C227.7 178.324 226.872 178.36 225.888 178.36ZM225.96 176.236C227.232 176.236 228.216 176.152 228.912 175.984C229.608 175.792 230.112 175.432 230.424 174.904C230.736 174.376 230.892 173.596 230.892 172.564V160.324C230.892 159.196 230.724 158.356 230.388 157.804C230.076 157.228 229.572 156.844 228.876 156.652C228.204 156.46 227.22 156.364 225.924 156.364C224.604 156.364 223.596 156.46 222.9 156.652C222.228 156.844 221.736 157.228 221.424 157.804C221.112 158.356 220.956 159.196 220.956 160.324V172.564C220.956 173.596 221.112 174.376 221.424 174.904C221.76 175.432 222.276 175.792 222.972 175.984C223.668 176.152 224.664 176.236 225.96 176.236ZM248.571 178.36C247.515 178.36 246.651 178.324 245.979 178.252C245.331 178.18 244.635 178.036 243.891 177.82C243.099 177.604 242.463 177.292 241.983 176.884C241.527 176.452 241.143 175.852 240.831 175.084C240.519 174.364 240.363 173.464 240.363 172.384V160.576C240.363 159.496 240.519 158.548 240.831 157.732C241.143 156.916 241.551 156.268 242.055 155.788C242.511 155.38 243.111 155.056 243.855 154.816C244.623 154.552 245.391 154.384 246.159 154.312C247.023 154.264 247.827 154.24 248.571 154.24C249.627 154.24 250.479 154.276 251.127 154.348C251.799 154.42 252.507 154.564 253.251 154.78C254.043 155.02 254.679 155.356 255.159 155.788C255.663 156.22 256.071 156.832 256.383 157.624C256.695 158.416 256.851 159.388 256.851 160.54V172.384C256.851 173.368 256.695 174.244 256.383 175.012C256.071 175.78 255.663 176.38 255.159 176.812C254.679 177.22 254.067 177.556 253.323 177.82C252.579 178.06 251.823 178.204 251.055 178.252C250.383 178.324 249.555 178.36 248.571 178.36ZM248.643 176.236C249.915 176.236 250.899 176.152 251.595 175.984C252.291 175.792 252.795 175.432 253.107 174.904C253.419 174.376 253.575 173.596 253.575 172.564V160.324C253.575 159.196 253.407 158.356 253.071 157.804C252.759 157.228 252.255 156.844 251.559 156.652C250.887 156.46 249.903 156.364 248.607 156.364C247.287 156.364 246.279 156.46 245.583 156.652C244.911 156.844 244.419 157.228 244.107 157.804C243.795 158.356 243.639 159.196 243.639 160.324V172.564C243.639 173.596 243.795 174.376 244.107 174.904C244.443 175.432 244.959 175.792 245.655 175.984C246.351 176.152 247.347 176.236 248.643 176.236ZM301.545 178.36C300.489 178.36 299.625 178.324 298.953 178.252C298.305 178.18 297.609 178.036 296.865 177.82C296.073 177.604 295.437 177.292 294.957 176.884C294.501 176.452 294.117 175.852 293.805 175.084C293.493 174.364 293.337 173.464 293.337 172.384V160.576C293.337 159.496 293.493 158.548 293.805 157.732C294.117 156.916 294.525 156.268 295.029 155.788C295.485 155.38 296.085 155.056 296.829 154.816C297.597 154.552 298.365 154.384 299.133 154.312C299.997 154.264 300.801 154.24 301.545 154.24C302.601 154.24 303.453 154.276 304.101 154.348C304.773 154.42 305.481 154.564 306.225 154.78C307.017 155.02 307.653 155.356 308.133 155.788C308.637 156.22 309.045 156.832 309.357 157.624C309.669 158.416 309.825 159.388 309.825 160.54V172.384C309.825 173.368 309.669 174.244 309.357 175.012C309.045 175.78 308.637 176.38 308.133 176.812C307.653 177.22 307.041 177.556 306.297 177.82C305.553 178.06 304.797 178.204 304.029 178.252C303.357 178.324 302.529 178.36 301.545 178.36ZM301.617 176.236C302.889 176.236 303.873 176.152 304.569 175.984C305.265 175.792 305.769 175.432 306.081 174.904C306.393 174.376 306.549 173.596 306.549 172.564V160.324C306.549 159.196 306.381 158.356 306.045 157.804C305.733 157.228 305.229 156.844 304.533 156.652C303.861 156.46 302.877 156.364 301.581 156.364C300.261 156.364 299.253 156.46 298.557 156.652C297.885 156.844 297.393 157.228 297.081 157.804C296.769 158.356 296.613 159.196 296.613 160.324V172.564C296.613 173.596 296.769 174.376 297.081 174.904C297.417 175.432 297.933 175.792 298.629 175.984C299.325 176.152 300.321 176.236 301.617 176.236ZM324.227 178.36C323.171 178.36 322.307 178.324 321.635 178.252C320.987 178.18 320.291 178.036 319.547 177.82C318.755 177.604 318.119 177.292 317.639 176.884C317.183 176.452 316.799 175.852 316.487 175.084C316.175 174.364 316.019 173.464 316.019 172.384V160.576C316.019 159.496 316.175 158.548 316.487 157.732C316.799 156.916 317.207 156.268 317.711 155.788C318.167 155.38 318.767 155.056 319.511 154.816C320.279 154.552 321.047 154.384 321.815 154.312C322.679 154.264 323.483 154.24 324.227 154.24C325.283 154.24 326.135 154.276 326.783 154.348C327.455 154.42 328.163 154.564 328.907 154.78C329.699 155.02 330.335 155.356 330.815 155.788C331.319 156.22 331.727 156.832 332.039 157.624C332.351 158.416 332.507 159.388 332.507 160.54V172.384C332.507 173.368 332.351 174.244 332.039 175.012C331.727 175.78 331.319 176.38 330.815 176.812C330.335 177.22 329.723 177.556 328.979 177.82C328.235 178.06 327.479 178.204 326.711 178.252C326.039 178.324 325.211 178.36 324.227 178.36ZM324.299 176.236C325.571 176.236 326.555 176.152 327.251 175.984C327.947 175.792 328.451 175.432 328.763 174.904C329.075 174.376 329.231 173.596 329.231 172.564V160.324C329.231 159.196 329.063 158.356 328.727 157.804C328.415 157.228 327.911 156.844 327.215 156.652C326.543 156.46 325.559 156.364 324.263 156.364C322.943 156.364 321.935 156.46 321.239 156.652C320.567 156.844 320.075 157.228 319.763 157.804C319.451 158.356 319.295 159.196 319.295 160.324V172.564C319.295 173.596 319.451 174.376 319.763 174.904C320.099 175.432 320.615 175.792 321.311 175.984C322.007 176.152 323.003 176.236 324.299 176.236ZM346.91 178.36C345.854 178.36 344.99 178.324 344.318 178.252C343.67 178.18 342.974 178.036 342.23 177.82C341.438 177.604 340.802 177.292 340.322 176.884C339.866 176.452 339.482 175.852 339.17 175.084C338.858 174.364 338.702 173.464 338.702 172.384V160.576C338.702 159.496 338.858 158.548 339.17 157.732C339.482 156.916 339.89 156.268 340.394 155.788C340.85 155.38 341.45 155.056 342.194 154.816C342.962 154.552 343.73 154.384 344.498 154.312C345.362 154.264 346.166 154.24 346.91 154.24C347.966 154.24 348.818 154.276 349.466 154.348C350.138 154.42 350.846 154.564 351.59 154.78C352.382 155.02 353.018 155.356 353.498 155.788C354.002 156.22 354.41 156.832 354.722 157.624C355.034 158.416 355.19 159.388 355.19 160.54V172.384C355.19 173.368 355.034 174.244 354.722 175.012C354.41 175.78 354.002 176.38 353.498 176.812C353.018 177.22 352.406 177.556 351.662 177.82C350.918 178.06 350.162 178.204 349.394 178.252C348.722 178.324 347.894 178.36 346.91 178.36ZM346.982 176.236C348.254 176.236 349.238 176.152 349.934 175.984C350.63 175.792 351.134 175.432 351.446 174.904C351.758 174.376 351.914 173.596 351.914 172.564V160.324C351.914 159.196 351.746 158.356 351.41 157.804C351.098 157.228 350.594 156.844 349.898 156.652C349.226 156.46 348.242 156.364 346.946 156.364C345.626 156.364 344.618 156.46 343.922 156.652C343.25 156.844 342.758 157.228 342.446 157.804C342.134 158.356 341.978 159.196 341.978 160.324V172.564C341.978 173.596 342.134 174.376 342.446 174.904C342.782 175.432 343.298 175.792 343.994 175.984C344.69 176.152 345.686 176.236 346.982 176.236ZM369.593 178.36C368.537 178.36 367.673 178.324 367.001 178.252C366.353 178.18 365.657 178.036 364.913 177.82C364.121 177.604 363.485 177.292 363.005 176.884C362.549 176.452 362.165 175.852 361.853 175.084C361.541 174.364 361.385 173.464 361.385 172.384V160.576C361.385 159.496 361.541 158.548 361.853 157.732C362.165 156.916 362.573 156.268 363.077 155.788C363.533 155.38 364.133 155.056 364.877 154.816C365.645 154.552 366.413 154.384 367.181 154.312C368.045 154.264 368.849 154.24 369.593 154.24C370.649 154.24 371.501 154.276 372.149 154.348C372.821 154.42 373.529 154.564 374.273 154.78C375.065 155.02 375.701 155.356 376.181 155.788C376.685 156.22 377.093 156.832 377.405 157.624C377.717 158.416 377.873 159.388 377.873 160.54V172.384C377.873 173.368 377.717 174.244 377.405 175.012C377.093 175.78 376.685 176.38 376.181 176.812C375.701 177.22 375.089 177.556 374.345 177.82C373.601 178.06 372.845 178.204 372.077 178.252C371.405 178.324 370.577 178.36 369.593 178.36ZM369.665 176.236C370.937 176.236 371.921 176.152 372.617 175.984C373.313 175.792 373.817 175.432 374.129 174.904C374.441 174.376 374.597 173.596 374.597 172.564V160.324C374.597 159.196 374.429 158.356 374.093 157.804C373.781 157.228 373.277 156.844 372.581 156.652C371.909 156.46 370.925 156.364 369.629 156.364C368.309 156.364 367.301 156.46 366.605 156.652C365.933 156.844 365.441 157.228 365.129 157.804C364.817 158.356 364.661 159.196 364.661 160.324V172.564C364.661 173.596 364.817 174.376 365.129 174.904C365.465 175.432 365.981 175.792 366.677 175.984C367.373 176.152 368.369 176.236 369.665 176.236ZM422.567 178.36C421.511 178.36 420.647 178.324 419.975 178.252C419.327 178.18 418.631 178.036 417.887 177.82C417.095 177.604 416.459 177.292 415.979 176.884C415.523 176.452 415.139 175.852 414.827 175.084C414.515 174.364 414.359 173.464 414.359 172.384V160.576C414.359 159.496 414.515 158.548 414.827 157.732C415.139 156.916 415.547 156.268 416.051 155.788C416.507 155.38 417.107 155.056 417.851 154.816C418.619 154.552 419.387 154.384 420.155 154.312C421.019 154.264 421.823 154.24 422.567 154.24C423.623 154.24 424.475 154.276 425.123 154.348C425.795 154.42 426.503 154.564 427.247 154.78C428.039 155.02 428.675 155.356 429.155 155.788C429.659 156.22 430.067 156.832 430.379 157.624C430.691 158.416 430.847 159.388 430.847 160.54V172.384C430.847 173.368 430.691 174.244 430.379 175.012C430.067 175.78 429.659 176.38 429.155 176.812C428.675 177.22 428.063 177.556 427.319 177.82C426.575 178.06 425.819 178.204 425.051 178.252C424.379 178.324 423.551 178.36 422.567 178.36ZM422.639 176.236C423.911 176.236 424.895 176.152 425.591 175.984C426.287 175.792 426.791 175.432 427.103 174.904C427.415 174.376 427.571 173.596 427.571 172.564V160.324C427.571 159.196 427.403 158.356 427.067 157.804C426.755 157.228 426.251 156.844 425.555 156.652C424.883 156.46 423.899 156.364 422.603 156.364C421.283 156.364 420.275 156.46 419.579 156.652C418.907 156.844 418.415 157.228 418.103 157.804C417.791 158.356 417.635 159.196 417.635 160.324V172.564C417.635 173.596 417.791 174.376 418.103 174.904C418.439 175.432 418.955 175.792 419.651 175.984C420.347 176.152 421.343 176.236 422.639 176.236ZM446.329 157.876L439.237 162.52V159.568L446.365 154.636H449.461V178H446.329V157.876ZM460.12 173.824C460.12 173.152 460.228 172.528 460.444 171.952C460.684 171.352 460.984 170.848 461.344 170.44C461.632 170.104 462.064 169.744 462.64 169.36C463.24 168.952 463.804 168.616 464.332 168.352C464.788 168.112 465.388 167.836 466.132 167.524L470.02 165.796C471.556 165.124 472.324 164.08 472.324 162.664V159.46C472.324 158.356 471.988 157.624 471.316 157.264C470.644 156.88 469.468 156.688 467.788 156.688C466.132 156.688 463.852 156.94 460.948 157.444V154.924C463.372 154.468 465.88 154.24 468.472 154.24C471.064 154.24 472.936 154.636 474.088 155.428C475.24 156.196 475.816 157.492 475.816 159.316V163.132C475.816 163.996 475.672 164.716 475.384 165.292C475.096 165.844 474.628 166.348 473.98 166.804C473.356 167.236 472.432 167.728 471.208 168.28L465.808 170.764C464.224 171.484 463.432 172.54 463.432 173.932V175.48H475.816V178H460.12V173.824ZM489.787 178.36C487.771 178.36 485.503 178.132 482.983 177.676V175.084C485.839 175.684 488.227 175.984 490.147 175.984C493.339 175.984 494.935 175.084 494.935 173.284V169.288C494.935 168.304 494.407 167.656 493.351 167.344C492.847 167.224 492.391 167.152 491.983 167.128C491.599 167.08 491.095 167.056 490.471 167.056H485.971V164.824H489.859C490.483 164.824 490.987 164.812 491.371 164.788C491.755 164.74 492.199 164.644 492.703 164.5C493.231 164.38 493.639 164.152 493.927 163.816C494.215 163.48 494.359 163.048 494.359 162.52V158.344C494.359 157.12 492.919 156.508 490.039 156.508C488.119 156.508 485.923 156.7 483.451 157.084V154.6C485.515 154.384 487.699 154.276 490.003 154.276C492.667 154.276 494.599 154.576 495.799 155.176C497.023 155.752 497.635 156.748 497.635 158.164V162.664C497.635 163.408 497.335 164.032 496.735 164.536C496.135 165.016 495.367 165.328 494.431 165.472V165.616C495.007 165.712 495.475 165.82 495.835 165.94C496.219 166.036 496.627 166.192 497.059 166.408C497.899 166.84 498.319 167.596 498.319 168.676V173.356C498.319 174.172 498.139 174.904 497.779 175.552C497.419 176.2 496.963 176.704 496.411 177.064C495.931 177.4 495.295 177.676 494.503 177.892C493.711 178.084 492.931 178.216 492.163 178.288C491.251 178.336 490.459 178.36 489.787 178.36Z" fill="white"/>
  </g>
  <g filter="url(#filter2_di)">
  <path d="M233.656 222.584L228.928 225.68V223.712L233.68 220.424H235.744V236H233.656V222.584ZM242.85 233.216C242.85 232.768 242.922 232.352 243.066 231.968C243.226 231.568 243.426 231.232 243.666 230.96C243.858 230.736 244.146 230.496 244.53 230.24C244.93 229.968 245.306 229.744 245.658 229.568C245.962 229.408 246.362 229.224 246.858 229.016L249.45 227.864C250.474 227.416 250.986 226.72 250.986 225.776V223.64C250.986 222.904 250.762 222.416 250.314 222.176C249.866 221.92 249.082 221.792 247.962 221.792C246.858 221.792 245.338 221.96 243.402 222.296V220.616C245.018 220.312 246.69 220.16 248.418 220.16C250.146 220.16 251.394 220.424 252.162 220.952C252.93 221.464 253.314 222.328 253.314 223.544V226.088C253.314 226.664 253.218 227.144 253.026 227.528C252.834 227.896 252.522 228.232 252.09 228.536C251.674 228.824 251.058 229.152 250.242 229.52L246.642 231.176C245.586 231.656 245.058 232.36 245.058 233.288V234.32H253.314V236H242.85V233.216ZM264.26 220.16H266.108L258.332 236.24H256.484L264.26 220.16ZM269.273 233.216C269.273 232.768 269.345 232.352 269.489 231.968C269.649 231.568 269.849 231.232 270.089 230.96C270.281 230.736 270.569 230.496 270.953 230.24C271.353 229.968 271.729 229.744 272.081 229.568C272.385 229.408 272.785 229.224 273.281 229.016L275.873 227.864C276.897 227.416 277.409 226.72 277.409 225.776V223.64C277.409 222.904 277.185 222.416 276.737 222.176C276.289 221.92 275.505 221.792 274.385 221.792C273.281 221.792 271.761 221.96 269.825 222.296V220.616C271.441 220.312 273.113 220.16 274.841 220.16C276.569 220.16 277.817 220.424 278.585 220.952C279.353 221.464 279.737 222.328 279.737 223.544V226.088C279.737 226.664 279.641 227.144 279.449 227.528C279.257 227.896 278.945 228.232 278.513 228.536C278.097 228.824 277.481 229.152 276.665 229.52L273.065 231.176C272.009 231.656 271.481 232.36 271.481 233.288V234.32H279.737V236H269.273V233.216ZM284.395 233.216C284.395 232.768 284.467 232.352 284.611 231.968C284.771 231.568 284.971 231.232 285.211 230.96C285.403 230.736 285.691 230.496 286.075 230.24C286.475 229.968 286.851 229.744 287.203 229.568C287.507 229.408 287.907 229.224 288.403 229.016L290.995 227.864C292.019 227.416 292.531 226.72 292.531 225.776V223.64C292.531 222.904 292.307 222.416 291.859 222.176C291.411 221.92 290.627 221.792 289.507 221.792C288.403 221.792 286.883 221.96 284.947 222.296V220.616C286.563 220.312 288.235 220.16 289.963 220.16C291.691 220.16 292.939 220.424 293.707 220.952C294.475 221.464 294.859 222.328 294.859 223.544V226.088C294.859 226.664 294.763 227.144 294.571 227.528C294.379 227.896 294.067 228.232 293.635 228.536C293.219 228.824 292.603 229.152 291.787 229.52L288.187 231.176C287.131 231.656 286.603 232.36 286.603 233.288V234.32H294.859V236H284.395V233.216Z" fill="white"/>
  </g>
  <g filter="url(#filter3_di)">
  <path d="M50.552 261.424H53.24L59.288 277H56.864L55.088 272.272H48.416L46.664 277H44.36L50.552 261.424ZM54.512 270.664L51.872 263.632H51.656L49.016 270.664H54.512ZM62.8723 261.424H65.2003V275.368H72.8563V277H62.8723V261.424ZM76.541 261.424H87.005V263.056H78.869V268.144H86.213V269.776H78.869V275.368H87.245V277H76.541V261.424ZM95.5749 269.056L90.0789 261.424H92.7429L96.8949 267.448L101.047 261.424H103.711L98.2149 269.056L103.951 277H101.287L96.8949 270.664L92.5029 277H89.8389L95.5749 269.056ZM111.883 261.424H114.571L120.619 277H118.195L116.419 272.272H109.747L107.995 277H105.691L111.883 261.424ZM115.843 270.664L113.203 263.632H112.987L110.347 270.664H115.843ZM124.204 261.424H127.012L135.484 274.288V261.424H137.524V277H134.716L126.244 263.92V277H124.204V261.424ZM142.747 261.424H148.939C153.307 261.424 155.491 262.912 155.491 265.888V272.776C155.491 275.592 153.315 277 148.963 277H142.747V261.424ZM148.795 275.416C151.771 275.416 153.259 274.52 153.259 272.728V265.864C153.259 265.288 153.139 264.8 152.899 264.4C152.659 264 152.323 263.704 151.891 263.512C151.459 263.336 151.011 263.216 150.547 263.152C150.083 263.072 149.539 263.032 148.915 263.032H145.075V275.416H148.795ZM160.236 261.424H170.7V263.056H162.564V268.144H169.908V269.776H162.564V275.368H170.94V277H160.236V261.424ZM175.358 261.424H180.83C182.206 261.424 183.278 261.512 184.046 261.688C184.83 261.848 185.398 262.144 185.75 262.576C186.118 263.008 186.302 263.64 186.302 264.472V267.16C186.302 268.088 185.918 268.808 185.15 269.32C184.398 269.816 183.438 270.064 182.27 270.064L187.262 277H184.406L179.942 270.352H177.686V277H175.358V261.424ZM180.734 268.816C181.886 268.816 182.71 268.68 183.206 268.408C183.718 268.12 183.974 267.608 183.974 266.872V264.712C183.974 263.544 182.966 262.96 180.95 262.96H177.686V268.816H180.734ZM202.942 277.24C201.614 277.24 200.03 277.112 198.19 276.856V274.912C200.046 275.312 201.678 275.512 203.086 275.512C204.27 275.512 205.134 275.384 205.678 275.128C206.222 274.856 206.494 274.36 206.494 273.64V271.624C206.494 270.952 206.302 270.48 205.918 270.208C205.534 269.936 204.862 269.8 203.902 269.8H202.078C200.558 269.8 199.478 269.496 198.838 268.888C198.198 268.28 197.878 267.336 197.878 266.056V264.808C197.878 263.96 198.062 263.272 198.43 262.744C198.814 262.216 199.446 261.824 200.326 261.568C201.222 261.312 202.446 261.184 203.998 261.184C205.038 261.184 206.374 261.272 208.006 261.448V263.2C206.182 262.928 204.79 262.792 203.83 262.792C202.342 262.792 201.358 262.936 200.878 263.224C200.382 263.528 200.134 264.032 200.134 264.736V266.512C200.134 267.056 200.326 267.456 200.71 267.712C201.11 267.952 201.79 268.072 202.75 268.072H204.622C205.694 268.072 206.526 268.2 207.118 268.456C207.726 268.712 208.15 269.104 208.39 269.632C208.646 270.144 208.773 270.84 208.773 271.72V272.848C208.773 273.952 208.566 274.824 208.15 275.464C207.75 276.104 207.126 276.56 206.278 276.832C205.43 277.104 204.318 277.24 202.942 277.24ZM219.39 277.24C218.542 277.24 217.798 277.184 217.158 277.072C216.534 276.96 215.918 276.768 215.31 276.496C214.67 276.208 214.174 275.768 213.822 275.176C213.486 274.584 213.318 273.864 213.318 273.016V261.424H215.55V272.992C215.55 273.968 215.878 274.664 216.534 275.08C217.19 275.48 218.158 275.68 219.438 275.68C220.718 275.68 221.67 275.48 222.294 275.08C222.934 274.664 223.254 273.968 223.254 272.992V261.424H225.486V273.016C225.486 275.832 223.454 277.24 219.39 277.24ZM230.736 261.424H236.304C237.632 261.424 238.688 261.56 239.472 261.832C240.192 262.088 240.672 262.408 240.912 262.792C241.168 263.176 241.296 263.704 241.296 264.376V266.464C241.296 267.088 241.12 267.576 240.768 267.928C240.416 268.264 239.88 268.512 239.16 268.672V268.768C240.008 268.912 240.688 269.208 241.2 269.656C241.728 270.088 241.992 270.632 241.992 271.288V273.904C241.992 275.04 241.568 275.84 240.72 276.304C239.872 276.768 238.456 277 236.472 277H230.736V261.424ZM236.376 268.24C237.352 268.24 238.048 268.096 238.464 267.808C238.896 267.504 239.112 267.032 239.112 266.392V264.568C239.112 263.976 238.896 263.56 238.464 263.32C238.032 263.08 237.312 262.96 236.304 262.96H233.064V268.24H236.376ZM236.472 275.392C237.64 275.392 238.464 275.272 238.944 275.032C239.424 274.792 239.664 274.384 239.664 273.808V271.456C239.664 271.04 239.576 270.712 239.4 270.472C239.24 270.216 238.984 270.032 238.632 269.92C238.28 269.824 237.968 269.768 237.696 269.752C237.424 269.72 237.016 269.704 236.472 269.704H233.064V275.392H236.472ZM246.655 261.424H250.135L255.127 274.384L255.199 274.408L259.927 261.424H263.287V277H261.247V263.824H261.127L256.111 277H254.023L248.863 263.824H248.743V277H246.655V261.424ZM273.063 261.424H275.751L281.799 277H279.375L277.599 272.272H270.927L269.175 277H266.871L273.063 261.424ZM277.023 270.664L274.383 263.632H274.167L271.527 270.664H277.023ZM289.199 270.712L283.559 261.424H286.223L290.375 268.744L294.527 261.424H297.191L291.527 270.64V277H289.199V270.712Z" fill="white"/>
  </g>
  <g filter="url(#filter4_di)">
  <path d="M47.656 292.584L42.928 295.68V293.712L47.68 290.424H49.744V306H47.656V292.584ZM56.8499 303.216C56.8499 302.768 56.9219 302.352 57.0659 301.968C57.2259 301.568 57.4259 301.232 57.6659 300.96C57.8579 300.736 58.1459 300.496 58.5299 300.24C58.9299 299.968 59.3059 299.744 59.6579 299.568C59.9619 299.408 60.3619 299.224 60.8579 299.016L63.4499 297.864C64.4739 297.416 64.9859 296.72 64.9859 295.776V293.64C64.9859 292.904 64.7619 292.416 64.3139 292.176C63.8659 291.92 63.0819 291.792 61.9619 291.792C60.8579 291.792 59.3379 291.96 57.4019 292.296V290.616C59.0179 290.312 60.6899 290.16 62.4179 290.16C64.1459 290.16 65.3939 290.424 66.1619 290.952C66.9299 291.464 67.3139 292.328 67.3139 293.544V296.088C67.3139 296.664 67.2179 297.144 67.0259 297.528C66.8339 297.896 66.5219 298.232 66.0899 298.536C65.6739 298.824 65.0579 299.152 64.2419 299.52L60.6419 301.176C59.5859 301.656 59.0579 302.36 59.0579 303.288V304.32H67.3139V306H56.8499V303.216ZM76.6277 306.24C75.2837 306.24 73.7717 306.088 72.0917 305.784V304.056C73.9957 304.456 75.5877 304.656 76.8678 304.656C78.9957 304.656 80.0597 304.056 80.0597 302.856V300.192C80.0597 299.536 79.7077 299.104 79.0037 298.896C78.6677 298.816 78.3637 298.768 78.0918 298.752C77.8358 298.72 77.4998 298.704 77.0838 298.704H74.0837V297.216H76.6757C77.0917 297.216 77.4277 297.208 77.6837 297.192C77.9397 297.16 78.2357 297.096 78.5717 297C78.9237 296.92 79.1957 296.768 79.3877 296.544C79.5797 296.32 79.6757 296.032 79.6757 295.68V292.896C79.6757 292.08 78.7157 291.672 76.7957 291.672C75.5157 291.672 74.0517 291.8 72.4037 292.056V290.4C73.7797 290.256 75.2357 290.184 76.7717 290.184C78.5477 290.184 79.8358 290.384 80.6358 290.784C81.4518 291.168 81.8598 291.832 81.8598 292.776V295.776C81.8598 296.272 81.6598 296.688 81.2598 297.024C80.8598 297.344 80.3477 297.552 79.7237 297.648V297.744C80.1078 297.808 80.4198 297.88 80.6597 297.96C80.9158 298.024 81.1878 298.128 81.4758 298.272C82.0358 298.56 82.3158 299.064 82.3158 299.784V302.904C82.3158 303.448 82.1958 303.936 81.9558 304.368C81.7158 304.8 81.4118 305.136 81.0438 305.376C80.7237 305.6 80.2997 305.784 79.7717 305.928C79.2438 306.056 78.7238 306.144 78.2118 306.192C77.6037 306.224 77.0757 306.24 76.6277 306.24ZM94.3656 302.592H86.6136V300.696L93.6696 290.424H96.3576V300.936H98.0376V302.592H96.3576V306H94.3656V302.592ZM94.3656 300.936V292.32L88.5336 300.936H94.3656ZM108.503 290.16H110.351L102.575 306.24H100.727L108.503 290.16ZM120.789 302.592H113.037V300.696L120.093 290.424H122.781V300.936H124.461V302.592H122.781V306H120.789V302.592ZM120.789 300.936V292.32L114.957 300.936H120.789ZM133.295 306.24C131.951 306.24 130.439 306.088 128.759 305.784V304.056C130.663 304.456 132.255 304.656 133.535 304.656C135.663 304.656 136.727 304.056 136.727 302.856V300.192C136.727 299.536 136.375 299.104 135.671 298.896C135.335 298.816 135.031 298.768 134.759 298.752C134.503 298.72 134.167 298.704 133.751 298.704H130.751V297.216H133.343C133.759 297.216 134.095 297.208 134.351 297.192C134.607 297.16 134.903 297.096 135.239 297C135.591 296.92 135.863 296.768 136.055 296.544C136.247 296.32 136.343 296.032 136.343 295.68V292.896C136.343 292.08 135.383 291.672 133.463 291.672C132.183 291.672 130.719 291.8 129.071 292.056V290.4C130.447 290.256 131.903 290.184 133.439 290.184C135.215 290.184 136.503 290.384 137.303 290.784C138.119 291.168 138.527 291.832 138.527 292.776V295.776C138.527 296.272 138.327 296.688 137.927 297.024C137.527 297.344 137.015 297.552 136.391 297.648V297.744C136.775 297.808 137.087 297.88 137.327 297.96C137.583 298.024 137.855 298.128 138.143 298.272C138.703 298.56 138.983 299.064 138.983 299.784V302.904C138.983 303.448 138.863 303.936 138.623 304.368C138.383 304.8 138.079 305.136 137.711 305.376C137.391 305.6 136.967 305.784 136.439 305.928C135.911 306.056 135.391 306.144 134.879 306.192C134.271 306.224 133.743 306.24 133.295 306.24ZM143.761 303.216C143.761 302.768 143.833 302.352 143.977 301.968C144.137 301.568 144.337 301.232 144.577 300.96C144.769 300.736 145.057 300.496 145.441 300.24C145.841 299.968 146.217 299.744 146.569 299.568C146.873 299.408 147.273 299.224 147.769 299.016L150.361 297.864C151.385 297.416 151.897 296.72 151.897 295.776V293.64C151.897 292.904 151.673 292.416 151.225 292.176C150.777 291.92 149.993 291.792 148.873 291.792C147.769 291.792 146.249 291.96 144.313 292.296V290.616C145.929 290.312 147.601 290.16 149.329 290.16C151.057 290.16 152.305 290.424 153.073 290.952C153.841 291.464 154.225 292.328 154.225 293.544V296.088C154.225 296.664 154.129 297.144 153.937 297.528C153.745 297.896 153.433 298.232 153.001 298.536C152.585 298.824 151.969 299.152 151.153 299.52L147.553 301.176C146.497 301.656 145.969 302.36 145.969 303.288V304.32H154.225V306H143.761V303.216ZM164.811 292.584L160.083 295.68V293.712L164.835 290.424H166.899V306H164.811V292.584Z" fill="white"/>
  </g>
  <path d="M181.15 221.51H182.16L184.24 227.08H184.33L186.41 221.51H187.37L184.79 228H183.67L181.15 221.51ZM191.503 221.51H192.623L195.143 228H194.133L193.393 226.03H190.613L189.883 228H188.923L191.503 221.51ZM193.153 225.36L192.053 222.43H191.963L190.863 225.36H193.153ZM197.387 221.51H198.357V227.32H201.547V228H197.387V221.51ZM203.832 221.51H204.802V228H203.832V221.51ZM207.729 221.51H210.309C212.129 221.51 213.039 222.13 213.039 223.37V226.24C213.039 227.413 212.132 228 210.319 228H207.729V221.51ZM210.249 227.34C211.489 227.34 212.109 226.967 212.109 226.22V223.36C212.109 223.12 212.059 222.917 211.959 222.75C211.859 222.583 211.719 222.46 211.539 222.38C211.359 222.307 211.172 222.257 210.979 222.23C210.785 222.197 210.559 222.18 210.299 222.18H208.699V227.34H210.249ZM183.44 234.19H181.24V233.51H186.61V234.19H184.42V240H183.44V234.19ZM188.94 233.51H189.91V236.31H193.36V233.51H194.33V240H193.36V236.99H189.91V240H188.94V233.51ZM197.26 233.51H199.54C200.113 233.51 200.56 233.547 200.88 233.62C201.207 233.687 201.443 233.81 201.59 233.99C201.743 234.17 201.82 234.433 201.82 234.78V235.9C201.82 236.287 201.66 236.587 201.34 236.8C201.027 237.007 200.627 237.11 200.14 237.11L202.22 240H201.03L199.17 237.23H198.23V240H197.26V233.51ZM199.5 236.59C199.98 236.59 200.323 236.533 200.53 236.42C200.743 236.3 200.85 236.087 200.85 235.78V234.88C200.85 234.393 200.43 234.15 199.59 234.15H198.23V236.59H199.5ZM207.358 240.1C207.005 240.1 206.695 240.077 206.428 240.03C206.168 239.983 205.912 239.903 205.658 239.79C205.392 239.67 205.185 239.487 205.038 239.24C204.898 238.993 204.828 238.693 204.828 238.34V233.51H205.758V238.33C205.758 238.737 205.895 239.027 206.168 239.2C206.442 239.367 206.845 239.45 207.378 239.45C207.912 239.45 208.308 239.367 208.568 239.2C208.835 239.027 208.968 238.737 208.968 238.33V233.51H209.898V238.34C209.898 239.513 209.052 240.1 207.358 240.1Z" fill="white"/>
  <path d="M226.84 202.51H228.29L230.37 207.91L230.4 207.92L232.37 202.51H233.77V209H232.92V203.51H232.87L230.78 209H229.91L227.76 203.51H227.71V209H226.84V202.51ZM239.243 209.1C237.43 209.1 236.523 208.513 236.523 207.34V204.27C236.523 203.03 237.43 202.41 239.243 202.41C241.077 202.41 241.993 203.027 241.993 204.26V207.34C241.993 207.967 241.74 208.417 241.233 208.69C240.727 208.963 240.063 209.1 239.243 209.1ZM239.263 208.45C240.457 208.45 241.053 208.077 241.053 207.33V204.24C241.053 203.44 240.453 203.04 239.253 203.04C238.673 203.04 238.227 203.13 237.913 203.31C237.607 203.49 237.453 203.8 237.453 204.24V207.33C237.453 208.077 238.057 208.45 239.263 208.45ZM244.74 202.51H245.91L249.44 207.87V202.51H250.29V209H249.12L245.59 203.55V209H244.74V202.51ZM254.817 203.19H252.617V202.51H257.987V203.19H255.797V209H254.817V203.19ZM260.317 202.51H261.287V205.31H264.737V202.51H265.707V209H264.737V205.99H261.287V209H260.317V202.51ZM271.137 202.4H271.907L268.667 209.1H267.897L271.137 202.4ZM275.686 206.38L273.336 202.51H274.446L276.176 205.56L277.906 202.51H279.016L276.656 206.35V209H275.686V206.38ZM281.186 202.51H285.546V203.19H282.156V205.31H285.216V205.99H282.156V208.32H285.646V209H281.186V202.51ZM290.126 202.51H291.246L293.766 209H292.756L292.016 207.03H289.236L288.506 209H287.546L290.126 202.51ZM291.776 206.36L290.676 203.43H290.586L289.486 206.36H291.776ZM296.01 202.51H298.29C298.863 202.51 299.31 202.547 299.63 202.62C299.957 202.687 300.193 202.81 300.34 202.99C300.493 203.17 300.57 203.433 300.57 203.78V204.9C300.57 205.287 300.41 205.587 300.09 205.8C299.777 206.007 299.377 206.11 298.89 206.11L300.97 209H299.78L297.92 206.23H296.98V209H296.01V202.51ZM298.25 205.59C298.73 205.59 299.073 205.533 299.28 205.42C299.493 205.3 299.6 205.087 299.6 204.78V203.88C299.6 203.393 299.18 203.15 298.34 203.15H296.98V205.59H298.25Z" fill="white"/>
  <path d="M55 76C64.9572 76 70.5397 76 80.4969 76C80.4969 76 82.8972 80.7613 82.9966 84.0278C83.1068 87.6494 80.4969 93 80.4969 93H55" stroke="black"/>
  <path d="M140 93C130.043 93 124.46 93 114.503 93C114.503 93 112.103 88.2387 112.003 84.9722C111.893 81.3506 114.503 76 114.503 76H140" stroke="black"/>
  <path d="M80.5 76C80.5 76 83.1074 66.8859 86.5 62C89.8871 57.122 98.5 51.5 98.5 51.5C98.5 51.5 106.518 57.1863 109.5 62C112.558 66.9352 114.5 76 114.5 76" stroke="black"/>
  <path d="M114.5 93C114.5 93 112.393 102.672 109 107.857C105.613 113.034 97 118.5 97 118.5C97 118.5 88.9822 112.966 86 107.857C82.9425 102.62 80.5 93 80.5 93" stroke="black"/>
  <defs>
  <filter id="filter0_d" x="50.75" y="47.75" width="93.5" height="76.5" filterUnits="userSpaceOnUse" color-interpolation-filters="sRGB">
  <feFlood flood-opacity="0" result="BackgroundImageFix"/>
  <feColorMatrix in="SourceAlpha" type="matrix" values="0 0 0 0 0 0 0 0 0 0 0 0 0 0 0 0 0 0 127 0"/>
  <feOffset dy="1"/>
  <feGaussianBlur stdDeviation="2"/>
  <feColorMatrix type="matrix" values="0 0 0 0 0 0 0 0 0 0 0 0 0 0 0 0 0 0 0.65 0"/>
  <feBlend mode="normal" in2="BackgroundImageFix" result="effect1_dropShadow"/>
  <feBlend mode="normal" in="SourceGraphic" in2="effect1_dropShadow" result="shape"/>
  </filter>
  <filter id="filter1_di" x="50.2289" y="153.24" width="450.09" height="28.12" filterUnits="userSpaceOnUse" color-interpolation-filters="sRGB">
  <feFlood flood-opacity="0" result="BackgroundImageFix"/>
  <feColorMatrix in="SourceAlpha" type="matrix" values="0 0 0 0 0 0 0 0 0 0 0 0 0 0 0 0 0 0 127 0"/>
  <feOffset dy="1"/>
  <feGaussianBlur stdDeviation="1"/>
  <feColorMatrix type="matrix" values="0 0 0 0 0 0 0 0 0 0 0 0 0 0 0 0 0 0 0.9 0"/>
  <feBlend mode="normal" in2="BackgroundImageFix" result="effect1_dropShadow"/>
  <feBlend mode="normal" in="SourceGraphic" in2="effect1_dropShadow" result="shape"/>
  <feColorMatrix in="SourceAlpha" type="matrix" values="0 0 0 0 0 0 0 0 0 0 0 0 0 0 0 0 0 0 127 0" result="hardAlpha"/>
  <feOffset dy="3"/>
  <feGaussianBlur stdDeviation="1"/>
  <feComposite in2="hardAlpha" operator="arithmetic" k2="-1" k3="1"/>
  <feColorMatrix type="matrix" values="0 0 0 0 0 0 0 0 0 0 0 0 0 0 0 0 0 0 0.45 0"/>
  <feBlend mode="normal" in2="shape" result="effect2_innerShadow"/>
  </filter>
  <filter id="filter2_di" x="226.928" y="219.16" width="69.9312" height="20.08" filterUnits="userSpaceOnUse" color-interpolation-filters="sRGB">
  <feFlood flood-opacity="0" result="BackgroundImageFix"/>
  <feColorMatrix in="SourceAlpha" type="matrix" values="0 0 0 0 0 0 0 0 0 0 0 0 0 0 0 0 0 0 127 0"/>
  <feOffset dy="1"/>
  <feGaussianBlur stdDeviation="1"/>
  <feColorMatrix type="matrix" values="0 0 0 0 0 0 0 0 0 0 0 0 0 0 0 0 0 0 0.9 0"/>
  <feBlend mode="normal" in2="BackgroundImageFix" result="effect1_dropShadow"/>
  <feBlend mode="normal" in="SourceGraphic" in2="effect1_dropShadow" result="shape"/>
  <feColorMatrix in="SourceAlpha" type="matrix" values="0 0 0 0 0 0 0 0 0 0 0 0 0 0 0 0 0 0 127 0" result="hardAlpha"/>
  <feOffset dy="3"/>
  <feGaussianBlur stdDeviation="1"/>
  <feComposite in2="hardAlpha" operator="arithmetic" k2="-1" k3="1"/>
  <feColorMatrix type="matrix" values="0 0 0 0 0 0 0 0 0 0 0 0 0 0 0 0 0 0 0.45 0"/>
  <feBlend mode="normal" in2="shape" result="effect2_innerShadow"/>
  </filter>
  <filter id="filter3_di" x="42.36" y="260.184" width="256.831" height="20.056" filterUnits="userSpaceOnUse" color-interpolation-filters="sRGB">
  <feFlood flood-opacity="0" result="BackgroundImageFix"/>
  <feColorMatrix in="SourceAlpha" type="matrix" values="0 0 0 0 0 0 0 0 0 0 0 0 0 0 0 0 0 0 127 0"/>
  <feOffset dy="1"/>
  <feGaussianBlur stdDeviation="1"/>
  <feColorMatrix type="matrix" values="0 0 0 0 0 0 0 0 0 0 0 0 0 0 0 0 0 0 0.9 0"/>
  <feBlend mode="normal" in2="BackgroundImageFix" result="effect1_dropShadow"/>
  <feBlend mode="normal" in="SourceGraphic" in2="effect1_dropShadow" result="shape"/>
  <feColorMatrix in="SourceAlpha" type="matrix" values="0 0 0 0 0 0 0 0 0 0 0 0 0 0 0 0 0 0 127 0" result="hardAlpha"/>
  <feOffset dy="2"/>
  <feGaussianBlur stdDeviation="1"/>
  <feComposite in2="hardAlpha" operator="arithmetic" k2="-1" k3="1"/>
  <feColorMatrix type="matrix" values="0 0 0 0 0 0 0 0 0 0 0 0 0 0 0 0 0 0 0.45 0"/>
  <feBlend mode="normal" in2="shape" result="effect2_innerShadow"/>
  </filter>
  <filter id="filter4_di" x="40.928" y="289.16" width="127.971" height="20.08" filterUnits="userSpaceOnUse" color-interpolation-filters="sRGB">
  <feFlood flood-opacity="0" result="BackgroundImageFix"/>
  <feColorMatrix in="SourceAlpha" type="matrix" values="0 0 0 0 0 0 0 0 0 0 0 0 0 0 0 0 0 0 127 0"/>
  <feOffset dy="1"/>
  <feGaussianBlur stdDeviation="1"/>
  <feColorMatrix type="matrix" values="0 0 0 0 0 0 0 0 0 0 0 0 0 0 0 0 0 0 0.9 0"/>
  <feBlend mode="normal" in2="BackgroundImageFix" result="effect1_dropShadow"/>
  <feBlend mode="normal" in="SourceGraphic" in2="effect1_dropShadow" result="shape"/>
  <feColorMatrix in="SourceAlpha" type="matrix" values="0 0 0 0 0 0 0 0 0 0 0 0 0 0 0 0 0 0 127 0" result="hardAlpha"/>
  <feOffset dy="2"/>
  <feGaussianBlur stdDeviation="1"/>
  <feComposite in2="hardAlpha" operator="arithmetic" k2="-1" k3="1"/>
  <feColorMatrix type="matrix" values="0 0 0 0 0 0 0 0 0 0 0 0 0 0 0 0 0 0 0.45 0"/>
  <feBlend mode="normal" in2="shape" result="effect2_innerShadow"/>
  </filter>
  <linearGradient id="paint0_linear" x1="91" y1="-39.5" x2="287" y2="330" gradientUnits="userSpaceOnUse">
  <stop offset="0.0208333" stop-color="white" stop-opacity="0.4"/>
  <stop offset="0.494792" stop-color="white" stop-opacity="0.78"/>
  <stop offset="1" stop-color="white" stop-opacity="0"/>
  </linearGradient>
  <radialGradient id="paint1_angular" cx="0" cy="0" r="1" gradientUnits="userSpaceOnUse" gradientTransform="translate(97.5 85) rotate(90) scale(34 42.5)">
  <stop stop-color="white"/>
  <stop offset="0.760417" stop-color="white" stop-opacity="0"/>
  </radialGradient>
  <linearGradient id="paint2_linear" x1="97.5" y1="51" x2="97.5" y2="119" gradientUnits="userSpaceOnUse">
  <stop offset="0.265625" stop-color="white"/>
  <stop offset="1" stop-color="white" stop-opacity="0"/>
  </linearGradient>
  </defs>
</svg>