<svg width="32" height="47" viewBox="0 0 32 47" fill="none" xmlns="http://www.w3.org/2000/svg">
<path d="M3.84 45.5801C1.99537 45.5801 0.5 44.0847 0.5 42.2401L0.5 3.84008C0.5 1.99545 1.99537 0.500076 3.84 0.500076H28.16C30.0046 0.500076 31.5 1.99545 31.5 3.84008L31.5 42.2401C31.5 44.0847 30.0046 45.5801 28.16 45.5801H3.84Z" fill="#3D4168" stroke="#F2F2F2"/>
<path d="M0.78 3.84008L0.78 42.2401C0.78 43.9301 2.15001 45.3001 3.84 45.3001H28.16C29.85 45.3001 31.22 43.9301 31.22 42.2401L31.22 3.84008C31.22 2.15009 29.85 0.780075 28.16 0.780075H3.84C2.15001 0.780075 0.78 2.15009 0.78 3.84008ZM3.84 45.5801C1.99537 45.5801 0.5 44.0847 0.5 42.2401L0.5 3.84008C0.5 1.99544 1.99537 0.500076 3.84 0.500076H28.16C30.0046 0.500076 31.5 1.99545 31.5 3.84008L31.5 42.2401C31.5 44.0847 30.0046 45.5801 28.16 45.5801H3.84Z" fill="#13181C" stroke="#F2F2F2"/>
<line x1="3.83936" y1="9.98975" x2="28.1594" y2="9.98975" stroke="#F2F2F2" stroke-width="0.5"/>
<line x1="3.83936" y1="15.1104" x2="28.1594" y2="15.1104" stroke="#F2F2F2" stroke-width="0.5"/>
<line x1="3.83936" y1="20.23" x2="28.1594" y2="20.23" stroke="#F2F2F2" stroke-width="0.5"/>
<path d="M4.9165 26.2529H7.6301C8.0141 26.2529 8.3213 26.2615 8.5517 26.2785C8.79064 26.2956 9.04237 26.334 9.3069 26.3937C9.57997 26.4535 9.79757 26.5431 9.9597 26.6625C10.1304 26.782 10.2754 26.9441 10.3949 27.1489C10.5058 27.3452 10.5613 27.5927 10.5613 27.8913V29.6193C10.5613 30.3105 10.2925 30.8097 9.7549 31.1169C9.22584 31.4156 8.44077 31.5649 7.3997 31.5649H6.1581V34.5601H4.9165V26.2529ZM7.5661 30.7841C8.1037 30.7841 8.53464 30.686 8.8589 30.4897C9.18317 30.2935 9.3453 29.982 9.3453 29.5553V28.0449C9.3453 27.8145 9.28557 27.6268 9.1661 27.4817C9.04664 27.3281 8.87597 27.2215 8.6541 27.1617C8.44077 27.1105 8.26157 27.0764 8.1165 27.0593C7.97144 27.0423 7.77944 27.0337 7.5405 27.0337H6.1453V30.7841H7.5661Z" fill="#F2F2F2"/>
<path d="M12.2165 26.2529H15.5189C17.8485 26.2529 19.0133 27.0465 19.0133 28.6337V32.3073C19.0133 33.8092 17.8528 34.5601 15.5317 34.5601H12.2165V26.2529ZM15.4421 33.7153C17.0293 33.7153 17.8229 33.2375 17.8229 32.2817V28.6209C17.8229 28.3137 17.7589 28.0535 17.6309 27.8401C17.5029 27.6268 17.3237 27.4689 17.0933 27.3665C16.8629 27.2727 16.624 27.2087 16.3765 27.1745C16.129 27.1319 15.8389 27.1105 15.5061 27.1105H13.4581V33.7153H15.4421Z" fill="#F2F2F2"/>
<path d="M20.904 26.2529H26.6128V27.1233H22.1456V29.8369H26.1904V30.7073H22.1456V34.5601H20.904V26.2529Z" fill="#F2F2F2"/>
</svg>