<svg width="139" height="181" viewBox="0 0 139 181" fill="none" xmlns="http://www.w3.org/2000/svg">
  <path d="M30.032 20.813H41.168C43.824 20.813 45.936 21.085 47.504 21.629C48.944 22.141 49.904 22.781 50.384 23.549C50.896 24.317 51.152 25.373 51.152 26.717V30.893C51.152 32.141 50.8 33.117 50.096 33.821C49.392 34.493 48.32 34.989 46.88 35.309V35.501C48.576 35.789 49.936 36.381 50.96 37.277C52.016 38.141 52.544 39.229 52.544 40.541V45.773C52.544 48.045 51.696 49.645 50 50.573C48.304 51.501 45.472 51.965 41.504 51.965H30.032V20.813ZM41.312 34.445C43.264 34.445 44.656 34.157 45.488 33.581C46.352 32.973 46.784 32.029 46.784 30.749V27.101C46.784 25.917 46.352 25.085 45.488 24.605C44.624 24.125 43.184 23.885 41.168 23.885H34.688V34.445H41.312ZM41.504 48.749C43.84 48.749 45.488 48.509 46.448 48.029C47.408 47.549 47.888 46.733 47.888 45.581V40.877C47.888 40.045 47.712 39.389 47.36 38.909C47.04 38.397 46.528 38.029 45.824 37.805C45.12 37.613 44.496 37.501 43.952 37.469C43.408 37.405 42.592 37.373 41.504 37.373H34.688V48.749H41.504Z" fill="#F2F2F2"/>
  <path d="M29.68 155.424H40.744V158.088H33.424V161.616H35.752C37.192 161.616 38.344 161.704 39.208 161.88C40.072 162.04 40.728 162.36 41.176 162.84C41.64 163.304 41.872 163.976 41.872 164.856V167.304C41.872 169.768 39.776 171 35.584 171H29.68V155.424ZM35.416 168.336C36.36 168.336 37.048 168.208 37.48 167.952C37.912 167.68 38.128 167.272 38.128 166.728V165.552C38.128 165.056 37.92 164.72 37.504 164.544C37.088 164.368 36.408 164.28 35.464 164.28H33.4V168.336H35.416ZM56.3239 155.424H60.8839L66.4999 171H62.7079L61.3159 166.896H55.6279L54.2599 171H50.5639L56.3239 155.424ZM60.4999 164.4L58.5319 158.544H58.4359L56.4679 164.4H60.4999ZM75.9072 155.424H79.6512V161.664H86.2752V155.424H90.0192V171H86.2752V164.328H79.6512V171H75.9072V155.424ZM101.048 155.424H104.792V161.568C105.496 161.568 106.064 161.44 106.496 161.184C106.928 160.912 107.4 160.4 107.912 159.648L110.84 155.424H115.04L111.68 160.104C111.168 160.824 110.696 161.376 110.264 161.76C109.848 162.128 109.328 162.432 108.704 162.672V162.72C109.504 162.912 110.168 163.256 110.696 163.752C111.24 164.248 111.768 164.968 112.28 165.912L115.04 171H110.84L108.296 166.416C107.96 165.808 107.632 165.352 107.312 165.048C107.008 164.728 106.664 164.512 106.28 164.4C105.896 164.288 105.4 164.232 104.792 164.232V171H101.048V155.424Z" fill="#F2F2F2"/>
  <path d="M94.032 19.813H114.96V23.077H98.688V33.253H113.376V36.517H98.688V47.701H115.44V50.965H94.032V19.813Z" fill="#F2F2F2"/>
  <path d="M38.176 122.223C29.44 122.223 25.072 119.407 25.072 113.775V98.9908C25.072 93.0388 29.44 90.0628 38.176 90.0628C41.152 90.0628 44 90.3668 46.72 90.9748V94.4308C43.648 93.6628 40.832 93.2788 38.272 93.2788C37.024 93.2788 35.936 93.3588 35.008 93.5188C34.08 93.6468 33.184 93.8868 32.32 94.2388C30.464 95.0388 29.536 96.6068 29.536 98.9428V113.535C29.536 117.119 32.512 118.911 38.464 118.911C41.024 118.911 43.84 118.527 46.912 117.759V121.311C44.192 121.919 41.28 122.223 38.176 122.223Z" fill="#F2F2F2"/>
  <path d="M90.712 95.8771H80.152V92.6131H105.928V95.8771H95.368V123.765H90.712V95.8771Z" fill="#F2F2F2"/>
  <path fill-rule="evenodd" clip-rule="evenodd" d="M69.8114 51.1002C69.6373 51.8345 69.5463 52.5867 69.5403 53.3426L69.4665 62.5916C69.4622 63.1327 69.8684 63.587 70.3986 63.6819C70.9194 63.7751 71.4437 63.5004 71.627 63.0028L74.8219 54.3293C75.0851 53.6148 75.2661 52.8719 75.3615 52.115L81.9302 0L69.8114 51.1002ZM64.6478 87.5611C64.3838 88.277 64.2023 89.0214 64.1068 89.7799L57.5426 141.903L69.683 90.8155C69.8592 90.0739 69.9506 89.314 69.9553 88.5504L70.0241 77.4089C70.0265 77.0312 69.7491 76.7112 69.3803 76.6386C69.0074 76.5653 68.6302 76.7622 68.4984 77.1194L64.6478 87.5611ZM75.7187 70.6223C75.4588 69.8191 75.4587 69.6599 75.4587 69.3872V69.387C75.4587 69.3836 75.4604 68.9524 75.8833 68.2813C76.2249 67.7391 82.5801 66.8053 85.0498 66.4612C85.6969 66.3711 86.3483 66.3503 87.0003 66.3927L138.341 69.7326L86.9033 72.6357C86.2983 72.6698 85.693 72.6495 85.0925 72.5686C82.6251 72.2364 75.9305 71.2773 75.7187 70.6223ZM63.6681 69.6242C63.6681 69.8969 63.668 70.0561 63.4049 70.8593C63.1898 71.5163 56.3695 72.4795 53.8906 72.8087C53.2973 72.8875 52.7006 72.9072 52.1031 72.8739L0 69.9695L52.0066 66.6281C52.6506 66.5867 53.2947 66.6071 53.934 66.695C56.4179 67.0365 62.8913 67.9744 63.2383 68.5182C63.6664 69.1894 63.6681 69.6205 63.6681 69.624V69.6242Z" fill="#F2F2F2"/>
  <circle cx="69.5" cy="69.5" r="3.5" fill="#F2F2F2"/>
</svg>