<svg width="271" height="272" viewBox="0 0 271 272" fill="none" xmlns="http://www.w3.org/2000/svg">
<path d="M187.043 10.5123L183.565 20.9569C183.242 22.0523 182.589 23.0212 181.694 23.7309C180.83 24.3692 179.794 24.7351 178.721 24.7817C177.643 24.8503 176.562 24.801 175.495 24.6346C174.4 24.4556 173.321 24.1886 172.269 23.836C166.112 21.8045 163.691 18.7993 165.008 14.8204L168.444 4.4074C169.845 0.20435 173.614 -0.884939 179.75 1.13953C185.887 3.16399 188.318 6.28826 187.043 10.5123ZM180.391 19.9061L183.89 9.39851C184.787 6.68755 183.197 4.65958 179.12 3.3146C178.362 3.05651 177.586 2.85629 176.798 2.71567C176.101 2.61508 175.393 2.61508 174.696 2.71567C174.018 2.78075 173.376 3.05213 172.857 3.49323C172.287 4.01036 171.872 4.67625 171.66 5.41613L168.203 15.9237C167.376 18.4596 169.005 20.4 173.089 21.745C177.173 23.0899 179.607 22.477 180.391 19.9061Z" fill="#F2F2F2"/>
<path d="M201.595 30.8868C201.113 31.8668 200.412 32.7226 199.546 33.3876C198.832 33.9094 197.96 34.1692 197.077 34.1231C196.223 34.0782 195.38 33.9083 194.576 33.6188C193.641 33.2539 192.731 32.8256 191.854 32.3368C191.003 31.8745 190.299 31.4542 189.753 31.0864C189.152 30.6886 188.595 30.2271 188.093 29.7099C187.613 29.2413 187.253 28.6649 187.042 28.0287C186.858 27.3614 186.826 26.6612 186.947 25.9797C187.092 25.0745 187.398 24.2025 187.851 23.4054L194.156 11.7629C194.603 10.8858 195.229 10.1125 195.994 9.4933C196.594 9.01105 197.294 8.66989 198.043 8.49507C198.805 8.36271 199.585 8.39135 200.334 8.57913C201.101 8.74487 201.851 8.98415 202.572 9.29365C203.203 9.56685 203.949 9.93461 204.779 10.3444C206.061 11.0484 207.721 12.0677 209.77 13.4337L208.614 15.5352C206.908 14.2828 205.125 13.1387 203.276 12.1097C202.152 11.372 200.856 10.9377 199.515 10.8488C198.632 10.8488 197.781 11.6579 196.982 13.1499L195.658 15.5667C196.642 15.52 197.626 15.6408 198.569 15.924C199.605 16.1843 200.606 16.5652 201.553 17.0588C203.584 18.1726 204.831 19.381 205.294 20.6839C205.519 21.4086 205.581 22.1739 205.478 22.9256C205.375 23.6773 205.107 24.3971 204.695 25.0341L201.595 30.8868ZM198.716 29.5208L201.931 23.626C202.188 23.2631 202.359 22.8467 202.432 22.4081C202.505 21.9695 202.477 21.5201 202.352 21.0937C201.743 20.114 200.843 19.3496 199.777 18.9081C198.889 18.4403 197.931 18.1209 196.94 17.9624C196.073 17.7577 195.163 17.8237 194.334 18.1516L190.562 25.0866C189.827 26.4421 189.648 27.4718 190.026 28.1863C190.772 29.2044 191.772 30.0087 192.926 30.519C193.971 31.2056 195.177 31.6076 196.425 31.6854C197.203 31.6223 197.97 30.9078 198.716 29.5208V29.5208Z" fill="#F2F2F2"/>
<path d="M218.144 50.8617L202.803 37.9373L213.931 24.7083L216.39 26.8098L206.775 38.2315L211.945 42.5817L221.559 31.1494L224.05 33.2509L214.435 44.6727L219.615 48.9913L229.23 37.5591L231.689 39.6606L217.44 56.5253L215.066 54.5814L218.144 50.8617Z" fill="#F2F2F2"/>
<path d="M238.529 62.6824L231.279 53.6248L229.24 55.2535C228.811 55.5348 228.468 55.9312 228.253 56.3975C228.037 56.8638 227.957 57.3812 228.021 57.8909C228.332 59.2181 228.975 60.4441 229.892 61.453C231.133 62.9152 232.544 64.224 234.095 65.3513L232.225 66.8854C230.487 65.4682 228.902 63.8728 227.496 62.1254C226.253 60.7022 225.424 58.9648 225.1 57.1028C224.996 56.3114 225.111 55.5065 225.434 54.7763C225.756 54.0461 226.273 53.4187 226.929 52.9628L232.225 48.6967C233.885 47.3728 235.44 46.8999 236.911 47.2782C238.382 47.6565 239.937 48.8964 241.608 50.9769C243.279 53.0574 243.972 54.6335 244.014 56.0731C244.056 57.5126 243.226 58.9311 241.513 60.2761L238.529 62.6824ZM238.172 58.8576L240.273 57.1659C240.626 56.9439 240.914 56.6326 241.108 56.2636C241.302 55.8945 241.394 55.4808 241.377 55.0643C241.13 54.0108 240.612 53.04 239.874 52.2483C239.224 51.3392 238.381 50.5856 237.405 50.0417C236.997 49.8976 236.557 49.8734 236.136 49.9721C235.715 50.0708 235.331 50.2883 235.03 50.5986L232.929 52.2903L238.172 58.8576Z" fill="#F2F2F2"/>
<path d="M240.978 81.7849C239.746 80.3907 238.661 78.8731 237.741 77.2561C237.216 76.3525 236.817 75.6485 236.554 75.1546C236.256 74.546 236.02 73.9088 235.85 73.2527C235.65 72.6318 235.61 71.9703 235.734 71.3299C235.912 70.6967 236.224 70.1091 236.649 69.6066C237.239 68.9066 237.951 68.3192 238.75 67.8728L244.235 64.6575C244.942 64.2153 245.701 63.8624 246.494 63.6068C247.102 63.4123 247.747 63.369 248.375 63.4807C248.889 63.5782 249.387 63.7443 249.857 63.9745C250.374 64.2487 250.829 64.6281 251.191 65.0883C251.643 65.6452 252.011 66.1391 252.315 66.5909C252.62 67.0427 252.998 67.6417 253.45 68.4192C254.292 69.8503 254.976 71.3689 255.489 72.948L253.45 74.1459C252.961 72.4109 252.255 70.7446 251.349 69.1863C250.84 68.0892 250.054 67.1439 249.069 66.4438C248.48 66.1916 247.555 66.4438 246.284 67.1898L240.116 70.8045C239.065 71.4454 238.466 72.1179 238.424 72.8324C238.593 74.1046 239.069 75.3164 239.811 76.363C240.71 77.8915 241.793 79.3032 243.037 80.566L240.978 81.7849Z" fill="#F2F2F2"/>
<path d="M261.72 92.8605L259.156 86.5559L245.338 92.23L244.12 89.2564L257.937 83.5822L255.363 77.2777L257.538 76.374L263.842 91.8833L261.72 92.8605Z" fill="#F2F2F2"/>
<path d="M257.727 114.999L256.676 115.231C256.025 115.463 255.323 115.515 254.644 115.382C253.966 115.249 253.336 114.935 252.82 114.474C251.931 113.584 251.153 111.756 250.487 108.989L248.68 101.382L265.492 97.3887L267.237 104.744C267.544 105.943 267.744 107.167 267.836 108.401C267.916 109.158 267.77 109.922 267.415 110.597C267.156 111.028 266.795 111.388 266.364 111.648C265.832 111.905 265.271 112.099 264.694 112.225L264.105 112.362C263.741 112.483 263.355 112.523 262.974 112.48C262.593 112.436 262.226 112.31 261.899 112.11C261.219 111.549 260.692 110.826 260.365 110.008H260.228C260.48 112.919 259.629 114.548 257.727 114.999ZM256.067 112.015L257.17 111.753C257.453 111.694 257.717 111.568 257.941 111.385C258.164 111.202 258.339 110.968 258.452 110.702C258.707 109.658 258.652 108.563 258.295 107.55L257.149 102.716L251.727 103.966L252.831 108.632C252.989 109.738 253.419 110.789 254.081 111.69C254.355 111.912 254.682 112.059 255.031 112.116C255.379 112.173 255.736 112.138 256.067 112.015V112.015ZM263.559 109.388H263.759C264.094 109.357 264.418 109.245 264.701 109.062C264.985 108.879 265.22 108.631 265.387 108.338C265.572 107.384 265.503 106.398 265.188 105.48L264.137 101.066L259.198 102.243L260.249 106.761C260.359 107.712 260.764 108.605 261.405 109.315C261.74 109.474 262.104 109.563 262.474 109.576C262.845 109.588 263.214 109.525 263.559 109.388Z" fill="#F2F2F2"/>
<path d="M265.303 134.712L259.314 135.122C258.398 135.209 257.475 135.142 256.582 134.922C255.928 134.765 255.317 134.463 254.795 134.04C254.309 133.585 253.947 133.014 253.745 132.379C253.495 131.699 253.316 130.995 253.209 130.278C253.114 129.605 253.019 128.702 252.946 127.588C252.856 126.476 252.828 125.361 252.862 124.246C252.907 123.411 253.085 122.589 253.387 121.809C253.682 121.01 254.272 120.355 255.037 119.98C256.028 119.527 257.1 119.277 258.189 119.245L264.168 118.825C265.147 118.734 266.134 118.805 267.089 119.035C267.767 119.199 268.406 119.496 268.97 119.907C269.484 120.347 269.866 120.922 270.073 121.567C270.336 122.245 270.523 122.95 270.63 123.669C270.725 124.31 270.809 125.213 270.893 126.348C270.977 127.483 271.009 128.386 270.998 129.048C270.988 129.756 270.9 130.461 270.735 131.15C270.623 131.818 270.324 132.441 269.874 132.947C269.374 133.436 268.781 133.818 268.129 134.071C267.229 134.44 266.274 134.657 265.303 134.712ZM258.62 131.875L265.608 131.392C267.205 131.287 268.161 130.898 268.497 130.225C268.894 129.02 269.002 127.739 268.812 126.485C268.827 125.215 268.546 123.96 267.993 122.817C267.566 122.194 266.557 121.942 264.967 122.061L257.979 122.544C257.364 122.568 256.757 122.692 256.182 122.912C255.964 123.012 255.769 123.157 255.611 123.338C255.454 123.52 255.337 123.732 255.268 123.963C255.092 124.416 254.996 124.896 254.984 125.381C254.984 125.854 254.984 126.558 255.058 127.483C255.132 128.407 255.195 129.111 255.279 129.584C255.356 130.062 255.512 130.524 255.741 130.95C255.848 131.157 255.997 131.339 256.178 131.485C256.358 131.632 256.567 131.739 256.792 131.801C257.392 131.931 258.011 131.956 258.62 131.875V131.875Z" fill="#F2F2F2"/>
<path d="M251.443 159.857C251.362 157.998 251.468 156.136 251.759 154.299C251.916 153.248 252.053 152.46 252.168 151.892C252.32 151.228 252.539 150.58 252.82 149.959C253.053 149.351 253.436 148.813 253.934 148.393C254.473 148.016 255.085 147.755 255.731 147.626C256.634 147.461 257.559 147.461 258.463 147.626L264.767 148.551C265.591 148.666 266.399 148.878 267.173 149.181C267.759 149.408 268.284 149.768 268.707 150.232C269.051 150.628 269.338 151.07 269.559 151.546C269.78 152.092 269.884 152.679 269.863 153.269C269.863 153.983 269.863 154.603 269.811 155.139C269.758 155.675 269.674 156.39 269.538 157.241C269.296 158.882 268.876 160.492 268.287 162.043L265.954 161.696C266.665 160.045 267.167 158.312 267.447 156.537C267.709 154.719 267.699 153.532 267.394 152.975C267.089 152.418 266.207 152.018 264.746 151.798L257.685 150.747C257.245 150.614 256.779 150.591 256.328 150.681C255.877 150.77 255.455 150.97 255.1 151.262C254.423 152.356 254.029 153.602 253.955 154.887C253.71 156.628 253.682 158.393 253.871 160.141L251.443 159.857Z" fill="#F2F2F2"/>
<path d="M253.828 188.9L248.217 186.798C247.348 186.495 246.537 186.043 245.822 185.464C245.293 185.05 244.866 184.522 244.571 183.919C244.327 183.302 244.241 182.634 244.319 181.975C244.377 181.262 244.511 180.558 244.718 179.874C244.907 179.222 245.212 178.371 245.611 177.32C245.993 176.274 246.432 175.25 246.925 174.252C247.317 173.514 247.824 172.844 248.427 172.266C249.029 171.659 249.843 171.308 250.697 171.289C251.782 171.295 252.854 171.52 253.849 171.951L259.46 174.052C260.386 174.371 261.25 174.848 262.014 175.46C262.569 175.892 263.03 176.432 263.369 177.047C263.641 177.664 263.743 178.342 263.664 179.012C263.62 179.724 263.496 180.429 263.296 181.113C263.107 181.744 262.812 182.595 262.403 183.667C261.993 184.739 261.657 185.558 261.352 186.157C261.036 186.809 260.652 187.425 260.207 187.996C259.819 188.55 259.289 188.99 258.672 189.267C258 189.511 257.284 189.607 256.571 189.551C255.627 189.484 254.701 189.264 253.828 188.9V188.9ZM248.953 183.53L255.499 186.02C256.991 186.588 258.021 186.64 258.651 186.168C259.52 185.24 260.158 184.12 260.511 182.9C261.056 181.752 261.326 180.492 261.299 179.222C261.163 178.487 260.354 177.835 258.862 177.268L252.315 174.777C251.749 174.535 251.144 174.396 250.529 174.368C250.296 174.361 250.065 174.404 249.849 174.493C249.634 174.581 249.44 174.714 249.279 174.882C248.94 175.226 248.657 175.619 248.438 176.049C248.13 176.685 247.857 177.338 247.618 178.003C247.357 178.653 247.13 179.316 246.935 179.989C246.812 180.458 246.763 180.944 246.788 181.429C246.798 181.661 246.856 181.889 246.957 182.099C247.058 182.308 247.201 182.495 247.377 182.648C247.85 183.026 248.383 183.324 248.953 183.53V183.53Z" fill="#F2F2F2"/>
<path d="M248.817 205.513L252.547 198.756L239.476 191.537L241.031 188.721L256.172 197.128L250.918 206.7L248.817 205.513Z" fill="#F2F2F2"/>
<path d="M234.831 221.138L229.157 216.851C228.407 216.308 227.769 215.626 227.276 214.844C226.892 214.24 226.648 213.558 226.561 212.847C226.516 212.131 226.631 211.413 226.897 210.746C227.133 210.054 227.447 209.391 227.833 208.77C228.19 208.203 228.652 207.53 229.23 206.774C229.793 206.049 230.446 205.399 231.174 204.84C231.423 204.593 231.723 204.402 232.054 204.283C232.384 204.163 232.736 204.117 233.086 204.147L226.561 199.208L228.505 196.645L247.934 211.355L245.99 213.919L244.508 212.795C245.559 213.898 244.939 215.947 242.722 218.837C241.321 220.679 239.92 221.73 238.519 221.989C237.879 222.124 237.218 222.117 236.581 221.97C235.944 221.823 235.347 221.539 234.831 221.138V221.138ZM230.827 213.993L235.902 217.828C237.174 218.795 238.193 219.131 238.96 218.879C241.108 217.52 242.691 215.43 243.415 212.994C243.415 212.185 242.869 211.303 241.598 210.336L236.522 206.501C235.367 205.629 234.421 205.334 233.654 205.65C232.545 206.27 231.607 207.154 230.922 208.224C230.085 209.16 229.496 210.291 229.209 211.513C229.136 212.28 229.671 213.11 230.827 213.993V213.993Z" fill="#F2F2F2"/>
<path d="M212.019 225.771L214.267 223.67L215.413 224.805C214.712 223.663 215.514 221.982 217.819 219.761C219.542 218.122 220.971 217.239 222.148 217.134C223.325 217.029 224.659 217.775 226.193 219.383C227.517 220.78 228.127 222.041 228.001 223.155C227.875 224.269 226.95 225.677 225.153 227.358L221.402 230.931L223.304 232.927C223.528 233.226 223.829 233.457 224.176 233.596C224.522 233.735 224.9 233.776 225.269 233.715C226.314 233.295 227.248 232.641 228.001 231.803C229.431 230.425 230.768 228.954 232.004 227.4L233.633 229.113C232.064 230.885 230.593 232.43 229.22 233.747C227.118 235.75 225.514 236.801 224.407 236.899C223.304 236.983 221.98 236.216 220.456 234.619L212.019 225.771ZM216.715 226.034L220.015 229.502L223.608 226.076C224.659 225.025 225.216 224.29 225.227 223.754C225.024 222.864 224.533 222.066 223.829 221.484C223.26 220.77 222.481 220.252 221.601 220.003C220.971 219.908 220.204 220.297 219.29 221.169L218.817 221.61C218.376 222.038 218.008 222.388 217.714 222.661C217.393 223.011 217.098 223.383 216.831 223.775C216.56 224.125 216.389 224.543 216.337 224.983C216.313 225.176 216.334 225.372 216.4 225.554C216.466 225.737 216.574 225.901 216.715 226.034V226.034Z" fill="#F2F2F2"/>
<path d="M196.11 237.15L198.769 235.333L203.14 241.732L210.159 236.94L205.788 230.541L208.446 228.723L218.197 243.003L215.549 244.769L211.493 238.842L204.474 243.718L208.53 249.644L205.872 251.462L196.11 237.15Z" fill="#F2F2F2"/>
<path d="M188.324 241.197L192.117 239.452L199.336 255.161L196.583 256.433L190.751 243.718L188.786 259.995L184.993 261.739L177.774 245.978L180.527 244.717L186.496 257.704L188.324 241.197Z" fill="#F2F2F2"/>
<path d="M159.028 251.441L162.065 250.632L164.167 258.292C164.061 256.611 165.701 255.319 169.084 254.415C171.291 253.82 172.916 253.82 173.96 254.415C174.533 254.779 175.024 255.256 175.404 255.819C175.784 256.381 176.043 257.016 176.166 257.683L177.953 264.303L174.8 265.143L173.066 258.692C172.989 258.326 172.862 257.972 172.688 257.641C172.521 257.355 172.295 257.108 172.026 256.916C171.655 256.658 171.207 256.532 170.755 256.559C170.072 256.558 169.392 256.657 168.737 256.853C167.46 257.079 166.258 257.617 165.238 258.418C164.973 258.757 164.802 259.16 164.741 259.586C164.68 260.012 164.732 260.446 164.892 260.846L166.625 267.297L163.526 268.138L159.028 251.441Z" fill="#F2F2F2"/>
<path d="M141.102 261.581L152.661 260.383L152.398 257.788C152.388 257.276 152.237 256.778 151.96 256.347C151.684 255.917 151.293 255.572 150.832 255.35C149.551 254.886 148.172 254.763 146.829 254.993C144.921 255.24 143.051 255.72 141.26 256.422L141.008 253.973C143.146 253.279 145.35 252.811 147.586 252.576C149.451 252.297 151.357 252.541 153.092 253.28C153.817 253.619 154.434 254.151 154.875 254.819C155.317 255.486 155.565 256.263 155.592 257.063L156.296 263.851C156.507 265.952 156.065 267.518 154.951 268.547C153.838 269.577 151.946 270.229 149.298 270.502C146.805 270.754 144.941 270.509 143.708 269.766C142.475 269.024 141.743 267.563 141.512 265.385L141.102 261.581ZM144.517 263.346L144.801 266.047C144.795 266.461 144.9 266.87 145.105 267.23C145.31 267.59 145.608 267.889 145.967 268.096C146.978 268.454 148.064 268.544 149.12 268.358C150.223 268.302 151.3 268 152.272 267.476C152.614 267.21 152.873 266.853 153.018 266.445C153.163 266.037 153.189 265.596 153.092 265.175L152.808 262.474L144.517 263.346Z" fill="#F2F2F2"/>
<path d="M121.411 252.954L124.627 253.143L124.185 260.877L132.676 261.36L133.117 253.627L136.269 253.805L135.345 271.038L132.129 270.859L132.539 263.682L124.049 263.199L123.639 270.376L120.487 270.187L121.411 252.954Z" fill="#F2F2F2"/>
<path d="M102.267 248.972L105.419 249.686L103.696 257.241L111.986 259.133L113.71 251.567L116.862 252.282L113.027 269.147L109.874 268.432L111.461 261.423L103.171 259.543L101.584 266.541L98.4316 265.826L102.267 248.972Z" fill="#F2F2F2"/>
<path d="M79.3607 252.408L81.6409 246.87C81.9557 246.003 82.4217 245.199 83.0174 244.496C83.4469 243.981 83.9852 243.568 84.5935 243.287C85.2168 243.053 85.8892 242.981 86.548 243.077C87.2613 243.16 87.965 243.311 88.6495 243.529C89.301 243.749 90.1416 244.065 91.1713 244.485C92.2085 244.895 93.2222 245.361 94.208 245.883C94.9373 246.295 95.5969 246.82 96.1624 247.438C96.7509 248.055 97.0783 248.875 97.0766 249.728C97.0396 250.817 96.7897 251.888 96.3411 252.881L94.1029 258.429C93.7561 259.345 93.259 260.197 92.6319 260.95C92.1846 261.488 91.6344 261.931 91.0137 262.253C90.3914 262.519 89.7074 262.606 89.0383 262.506C88.3247 262.441 87.6202 262.3 86.9367 262.085C86.3168 261.886 85.4657 261.56 84.4149 261.129C83.3642 260.698 82.5341 260.33 81.9456 260.078C81.3004 259.75 80.6911 259.356 80.1278 258.901C79.5837 258.496 79.159 257.952 78.8984 257.325C78.6798 256.648 78.6011 255.933 78.6672 255.224C78.7429 254.253 78.9772 253.302 79.3607 252.408ZM84.8562 247.669L82.1978 254.152C81.5989 255.623 81.5148 256.663 81.9666 257.304C82.8751 258.193 83.9803 258.856 85.1925 259.238C86.3266 259.811 87.5783 260.113 88.8491 260.12C89.5847 260.015 90.2571 259.217 90.8666 257.746L93.525 251.22C93.7806 250.656 93.9371 250.052 93.9874 249.434C93.997 249.201 93.958 248.969 93.873 248.752C93.788 248.535 93.6587 248.338 93.4935 248.173C93.1647 247.819 92.7773 247.524 92.3482 247.301C91.9279 247.08 91.2974 246.786 90.4253 246.439C89.5531 246.093 88.9122 245.84 88.4498 245.704C87.9868 245.565 87.5038 245.505 87.0208 245.525C86.7882 245.526 86.5584 245.576 86.3465 245.672C86.1347 245.768 85.9455 245.908 85.7914 246.082C85.3887 246.552 85.0721 247.089 84.8562 247.669Z" fill="#F2F2F2"/>
<path d="M55.6968 253.344C56.048 252.832 56.4972 252.394 57.0184 252.057C57.5396 251.72 58.1226 251.489 58.7335 251.379C59.9604 251.151 61.2278 251.403 62.2745 252.083C63.3606 252.722 64.1612 253.752 64.5127 254.962C64.6878 255.556 64.7391 256.179 64.6632 256.794C64.5872 257.408 64.3858 258.001 64.0713 258.534L61.4655 256.916C61.652 256.232 61.7125 255.52 61.6441 254.815C61.4127 254.28 61.0171 253.833 60.5145 253.538C60.012 253.243 59.4287 253.116 58.8491 253.175C58.1665 253.365 57.5441 253.727 57.0418 254.226L55.6968 253.344ZM76.5859 237.75L80.1375 239.946L71.0274 254.657L68.4425 253.06L75.7978 241.186L61.1502 248.542L57.5987 246.335L66.6982 231.624L69.2516 233.211L61.7281 245.358L76.5859 237.75Z" fill="#F2F2F2"/>
<path d="M38.065 221.043L42.3311 216.84C42.9676 216.174 43.7141 215.623 44.5377 215.211C45.132 214.901 45.7901 214.731 46.4606 214.717C47.127 214.744 47.775 214.943 48.3415 215.295C48.9759 215.649 49.5742 216.065 50.1278 216.535C50.6426 216.987 51.2836 217.586 52.0717 218.405C52.8655 219.187 53.6162 220.011 54.3203 220.875C54.8299 221.541 55.2339 222.282 55.5182 223.071C55.8328 223.86 55.8328 224.74 55.5182 225.53C55.0517 226.517 54.3988 227.406 53.5953 228.146L49.3292 232.349C48.6534 233.063 47.861 233.656 46.986 234.104C46.3656 234.426 45.6865 234.619 44.9895 234.671C44.3124 234.666 43.6489 234.481 43.0667 234.135C42.4285 233.791 41.8296 233.379 41.2804 232.906C40.7865 232.475 40.135 231.855 39.3365 231.046C38.5379 230.237 37.9179 229.575 37.4871 229.081C37.0211 228.526 36.6193 227.919 36.2892 227.274C35.9389 226.694 35.757 226.028 35.7639 225.351C35.8202 224.655 36.0206 223.979 36.3523 223.365C36.7959 222.505 37.3741 221.721 38.065 221.043V221.043ZM44.979 218.826L39.9984 223.754C38.8636 224.878 38.3908 225.803 38.5694 226.528C39.0587 227.701 39.8141 228.744 40.776 229.575C41.5964 230.547 42.6327 231.313 43.8022 231.813C44.5272 232.002 45.4519 231.529 46.5867 230.405L51.5568 225.477C52.0127 225.058 52.393 224.564 52.6811 224.017C52.7749 223.805 52.8234 223.576 52.8234 223.344C52.8234 223.112 52.7749 222.883 52.6811 222.672C52.5125 222.219 52.2712 221.796 51.9666 221.421C51.6619 221.043 51.189 220.528 50.5376 219.866C49.8861 219.204 49.3712 218.721 49.0035 218.416C48.6287 218.108 48.2064 217.863 47.753 217.691C47.5413 217.597 47.3122 217.549 47.0806 217.549C46.8489 217.549 46.6199 217.597 46.4081 217.691C45.8692 217.983 45.3855 218.367 44.979 218.826V218.826Z" fill="#F2F2F2"/>
<path d="M23.2913 207.089L27.2527 212.553L39.3364 203.79L41.2278 206.385L29.1545 215.169L33.1474 220.665L31.235 222.052L21.3789 208.497L23.2913 207.089Z" fill="#F2F2F2"/>
<path d="M21.9261 184.623L22.8507 184.151C23.4292 183.774 24.098 183.56 24.7874 183.531C25.4768 183.501 26.1615 183.657 26.7701 183.982C27.8208 184.644 29.0502 186.231 30.3321 188.763L33.8942 195.73L18.4901 203.59L15.0436 196.844C14.4641 195.75 13.9824 194.607 13.604 193.429C13.3469 192.714 13.3067 191.939 13.4884 191.201C13.6313 190.705 13.9032 190.255 14.2765 189.898C14.7229 189.517 15.2175 189.195 15.7476 188.942L16.294 188.669C16.617 188.464 16.9811 188.332 17.3605 188.283C17.74 188.234 18.1255 188.269 18.4901 188.385C19.2778 188.758 19.9602 189.322 20.476 190.024L20.6021 189.961C19.7475 187.271 20.1888 185.492 21.9261 184.623ZM17.5864 191.453L17.3973 191.548C16.5987 191.958 16.1469 192.431 16.0733 192.945C16.1109 193.917 16.4085 194.86 16.9349 195.677L19.0365 199.712L23.5547 197.411L21.4532 193.271C20.8017 192.003 20.2238 191.268 19.7195 191.065C19.3564 190.977 18.9792 190.967 18.6118 191.034C18.2445 191.101 17.8952 191.244 17.5864 191.453V191.453ZM24.2482 187.135L23.1975 187.65C22.9348 187.781 22.7077 187.973 22.5357 188.211C22.3637 188.449 22.2519 188.725 22.2098 189.016C22.2224 190.084 22.5316 191.128 23.1029 192.031L25.3936 196.434L30.3637 193.902L28.1886 189.636C27.7765 188.607 27.1201 187.695 26.2762 186.977C25.9525 186.83 25.5966 186.767 25.2419 186.794C24.8872 186.822 24.5453 186.939 24.2482 187.135V187.135Z" fill="#F2F2F2"/>
<path d="M13.5715 167.233L17.1441 178.287L19.6239 177.478C20.1309 177.372 20.5975 177.124 20.9694 176.763C21.3413 176.402 21.6034 175.944 21.7254 175.44C21.9104 174.09 21.7439 172.714 21.242 171.447C20.6034 169.635 19.7422 167.909 18.6782 166.309L21.0214 165.552C22.1491 167.495 23.0684 169.552 23.7639 171.689C24.4206 173.458 24.5769 175.374 24.2157 177.226C24.0385 178.002 23.6504 178.714 23.0941 179.283C22.5378 179.853 21.8351 180.257 21.0634 180.452L14.5697 182.554C12.5522 183.205 10.9236 183.093 9.68366 182.217C8.41223 181.335 7.36147 179.622 6.54188 177.09C5.77482 174.715 5.62772 172.834 6.10056 171.468C6.5734 170.102 7.84482 169.083 9.93584 168.41L13.5715 167.233ZM12.5207 170.943L9.93584 171.773C9.53755 171.857 9.1682 172.044 8.86418 172.315C8.56015 172.586 8.33196 172.931 8.20208 173.317C8.06386 174.385 8.20133 175.47 8.60137 176.47C8.88198 177.554 9.4067 178.561 10.1355 179.412C10.4643 179.693 10.8672 179.873 11.2959 179.931C11.7245 179.988 12.1607 179.921 12.5522 179.738L15.1371 178.897L12.5207 170.943Z" fill="#F2F2F2"/>
<path d="M3.15857 149.413L4.28288 156.074L18.9935 153.584L19.5294 156.736L4.81877 159.227L5.99563 165.962L3.66294 166.361L0.878418 149.801L3.15857 149.413Z" fill="#F2F2F2"/>
<path d="M17.3757 131.581C17.781 133.396 17.9993 135.248 18.0272 137.108C18.0272 138.159 18.0272 138.968 18.0272 139.556C17.99 140.233 17.8879 140.905 17.7225 141.563C17.5936 142.201 17.3083 142.797 16.8924 143.297C16.427 143.76 15.8681 144.118 15.2532 144.348C14.3989 144.68 13.4904 144.851 12.5737 144.852L6.20612 145.01C5.3779 145.047 4.54821 144.98 3.73683 144.81C3.13832 144.682 2.57953 144.412 2.10815 144.022C1.7072 143.69 1.35366 143.304 1.05739 142.876C0.743882 142.375 0.539789 141.813 0.458457 141.227C0.332366 140.533 0.248305 139.913 0.195767 139.377C0.143229 138.842 0.00663007 138.127 0.00663007 137.213C-0.032457 135.557 0.101364 133.902 0.405919 132.274L2.77013 132.211C2.35445 133.973 2.16379 135.781 2.20272 137.591C2.11516 138.799 2.3433 140.008 2.8647 141.101C3.26399 141.605 4.19917 141.836 5.67023 141.794L12.8154 141.605C13.2723 141.66 13.7358 141.602 14.1647 141.435C14.5936 141.269 14.9748 140.998 15.2742 140.649C15.7444 139.454 15.9139 138.163 15.768 136.887C15.71 135.126 15.4347 133.379 14.9485 131.686L17.3757 131.581Z" fill="#F2F2F2"/>
<path d="M4.59863 111.858L3.81056 118.562L18.6473 120.296L18.269 123.448L3.44279 121.756L2.65472 128.502L0.311523 128.229L2.25543 111.585L4.59863 111.858Z" fill="#F2F2F2"/>
<path d="M18.8465 94.4372L19.8448 94.7104C20.5244 94.8271 21.1604 95.1235 21.687 95.5687C22.2135 96.014 22.6114 96.592 22.8394 97.2427C23.1827 98.4686 22.9725 100.448 22.209 103.18L20.1075 110.703L3.44238 106.069L5.54391 98.7768C5.85496 97.5808 6.2771 96.4164 6.80482 95.2988C7.09415 94.5948 7.59306 93.9969 8.23385 93.5861C8.67507 93.3269 9.17275 93.1791 9.6839 93.1553C10.2727 93.18 10.8557 93.2824 11.4177 93.46L12.0061 93.6281C12.382 93.6986 12.7383 93.8496 13.0503 94.0709C13.3623 94.2922 13.6226 94.5785 13.8134 94.91C14.1305 95.7214 14.2459 96.5976 14.1496 97.4634H14.2862C15.4316 94.91 16.9657 93.9013 18.8465 94.4372ZM11.0289 96.5387H10.8187C10.5155 96.397 10.1828 96.3297 9.84837 96.3425C9.5139 96.3553 9.18733 96.4478 8.89583 96.6123C8.27363 97.3384 7.85329 98.2153 7.67695 99.1551L6.44756 103.526L11.3336 104.903L12.6155 100.427C12.9665 99.5485 13.0399 98.584 12.8257 97.663C12.6207 97.3572 12.3557 97.0961 12.0469 96.8956C11.738 96.6952 11.3917 96.5594 11.0289 96.4967V96.5387ZM18.8465 97.8942L17.7432 97.579C17.4618 97.4951 17.164 97.4819 16.8763 97.5406C16.5885 97.5992 16.3197 97.7279 16.0935 97.9152C15.3855 98.6937 14.9087 99.6545 14.7171 100.689L13.3721 105.47L18.7415 106.983L20.0339 102.37C20.4326 101.327 20.5732 100.202 20.4437 99.0921C20.3032 98.7678 20.0832 98.4841 19.804 98.2674C19.5249 98.0507 19.1955 97.9079 18.8465 97.8522V97.8942Z" fill="#F2F2F2"/>
<path d="M24.5206 75.9955L19.6346 86.5031L22.0093 87.5539C22.4516 87.81 22.9568 87.9369 23.4676 87.9202C23.9784 87.9035 24.4743 87.7438 24.8989 87.4593C25.9498 86.591 26.7632 85.4702 27.2631 84.202C28.0166 82.4555 28.5564 80.6244 28.8708 78.7485L31.1089 79.7993C30.6078 81.9701 29.8824 84.083 28.9443 86.1038C28.2255 87.8507 27.0406 89.3664 25.5188 90.4855C24.8548 90.9308 24.0811 91.1849 23.2824 91.2201C22.4837 91.2553 21.6907 91.0702 20.99 90.6852L14.8011 87.8166C13.9954 87.5392 13.2692 87.07 12.6853 86.4494C12.1013 85.8288 11.6771 85.0756 11.4491 84.2545C11.1444 82.7729 11.5542 80.829 12.668 78.4018C13.7188 76.1321 14.8816 74.6575 16.1565 73.9781C17.4315 73.2986 19.0636 73.4177 21.0531 74.3353L24.5206 75.9955ZM21.2632 78.0235L18.794 76.8887C18.4353 76.6791 18.0273 76.5686 17.6118 76.5686C17.1964 76.5686 16.7884 76.6791 16.4297 76.8887C15.6027 77.5782 14.966 78.4681 14.5804 79.4735C14.0611 80.4472 13.7633 81.5237 13.7083 82.6258C13.7614 83.0549 13.936 83.4599 14.2115 83.7931C14.487 84.1263 14.852 84.3739 15.2634 84.5067L17.7222 85.6415L21.2632 78.0235Z" fill="#F2F2F2"/>
<path d="M42.037 63.4495L40.2192 66.1394L33.7886 61.8103L29.0391 68.8714L35.4698 73.2005L33.6309 75.8484L19.3301 66.1919L21.1269 63.523L27.0847 67.5369L31.8341 60.4758L25.8658 56.4724L27.6626 53.8035L42.037 63.4495Z" fill="#F2F2F2"/>
<path d="M55.1814 48.9911L52.9643 51.3237L47.3427 45.9964L41.49 52.1644L47.1221 57.5022L44.905 59.8349L32.3589 47.9403L34.5655 45.6076L39.8193 50.5462L45.672 44.3677L40.4182 39.4291L42.6248 37.0964L55.1814 48.9911Z" fill="#F2F2F2"/>
<path d="M63.9243 27.5558L67.5389 32.3473C68.1148 33.0676 68.5627 33.8815 68.8629 34.7535C69.0864 35.3829 69.1689 36.0537 69.1046 36.7185C68.9809 37.3737 68.6956 37.9878 68.2745 38.5048C67.8444 39.0896 67.351 39.6253 66.8034 40.1019C66.2885 40.5537 65.5845 41.1527 64.7019 41.7831C63.8199 42.4673 62.9009 43.1023 61.9489 43.685C61.2255 44.1063 60.4372 44.4045 59.6162 44.5677C58.7886 44.7609 57.9184 44.6253 57.1889 44.1894C56.2601 43.6165 55.456 42.8624 54.8247 41.9723L51.2101 37.1808C50.5992 36.4102 50.1199 35.5439 49.7916 34.6169C49.5465 33.945 49.4462 33.2288 49.4973 32.5154C49.588 31.8454 49.8606 31.2131 50.2854 30.6871C50.7091 30.1003 51.1953 29.5612 51.7355 29.0794C52.2293 28.6381 52.9333 28.0287 53.837 27.3982C54.7406 26.7678 55.4762 26.1793 56.0331 25.8221C56.6433 25.4345 57.2954 25.1172 57.977 24.8764C58.5989 24.6092 59.2823 24.5183 59.9524 24.6137C60.6332 24.7689 61.2762 25.0582 61.8438 25.4648C62.6515 26.038 63.3552 26.7452 63.9243 27.5558V27.5558ZM65.1537 34.701L60.9506 29.111C59.9839 27.8395 59.1328 27.2406 58.3973 27.3247C57.1699 27.654 56.0364 28.2657 55.0874 29.111C54.0426 29.7982 53.172 30.7191 52.5446 31.8009C52.2609 32.4944 52.5446 33.4716 53.5953 34.7535L57.7984 40.3436C58.1579 40.8467 58.5982 41.287 59.1013 41.6465C59.2955 41.7755 59.5149 41.8619 59.7449 41.8999C59.9749 41.938 60.2104 41.9268 60.4358 41.8672C60.905 41.7566 61.3548 41.5759 61.7702 41.3313C62.18 41.0791 62.758 40.6693 63.4935 40.1124C64.0366 39.708 64.5591 39.2767 65.0591 38.82C65.4162 38.4924 65.7178 38.1092 65.9523 37.6852C66.0663 37.4825 66.1381 37.2589 66.1633 37.0277C66.1886 36.7966 66.1669 36.5627 66.0994 36.3402C65.8802 35.7438 65.5603 35.1893 65.1537 34.701V34.701Z" fill="#F2F2F2"/>
<path d="M85.3282 28.5329C83.898 29.7196 82.3486 30.7549 80.7049 31.6222C79.7802 32.116 79.0552 32.4943 78.5193 32.736C77.9029 33.0172 77.2583 33.232 76.5964 33.3769C75.9708 33.5603 75.3083 33.5784 74.6735 33.4295C74.0471 33.2265 73.4706 32.8935 72.9818 32.4523C72.2937 31.8448 71.7299 31.1097 71.3216 30.2877L68.3059 24.6977C67.8988 23.9754 67.5812 23.2061 67.3602 22.407C67.1805 21.8001 67.1445 21.1598 67.2551 20.5366C67.3726 20.0213 67.5563 19.5233 67.8015 19.0551C68.1158 18.5575 68.5311 18.1315 69.0204 17.8047C69.5773 17.3738 70.0712 17.0166 70.544 16.7539C71.0169 16.4912 71.5948 16.1129 72.4249 15.7031C73.8798 14.9103 75.4157 14.2762 77.0062 13.8118L78.1305 15.9133C76.385 16.334 74.7005 16.9767 73.1184 17.8257C72.0115 18.262 71.0374 18.979 70.2918 19.9062C70.0292 20.4946 70.2918 21.4298 70.9538 22.7222L74.3583 29.0268C74.9677 30.1301 75.6192 30.7185 76.3337 30.7816C77.5983 30.6448 78.8103 30.2011 79.8643 29.4891C81.4092 28.6407 82.8423 27.6029 84.1304 26.3999L85.3282 28.5329Z" fill="#F2F2F2"/>
<path d="M97.0651 8.18L90.7605 10.5337L96.0143 24.5298L92.9987 25.6542L87.7448 11.658L81.3562 14.0222L80.5366 11.8156L96.235 5.96289L97.0651 8.18Z" fill="#F2F2F2"/>
<path d="M113.163 19.8109L105.188 21.4711L101.657 4.54334L104.873 3.87085L106.133 9.99679L111.167 8.94603C112.686 8.52293 114.281 8.45106 115.832 8.73587C116.381 8.93274 116.862 9.28289 117.217 9.74478C117.573 10.2067 117.789 10.7609 117.839 11.3418L118.564 14.8408C119.1 17.2891 117.293 18.9388 113.163 19.8109ZM115.422 15.0615L114.97 12.9599C114.939 12.5941 114.829 12.2394 114.648 11.9201C114.466 11.6009 114.218 11.3247 113.92 11.1106C113.021 10.8529 112.065 10.8712 111.177 11.1631L106.522 12.1298L107.92 18.8127L112.501 17.8565C112.921 17.7619 113.268 17.6779 113.552 17.5833C113.89 17.4598 114.219 17.316 114.54 17.1525C114.895 16.9899 115.173 16.6962 115.317 16.3329C115.483 15.9302 115.52 15.4859 115.422 15.0615V15.0615Z" fill="#F2F2F2"/>
<path d="M126.003 17.8046H122.788L122.567 0.509036H125.783L125.877 8.29518H130.385V6.33025C130.352 5.34939 130.48 4.36974 130.763 3.43015C130.959 2.75648 131.292 2.13047 131.741 1.59132C132.21 1.09187 132.805 0.728761 133.464 0.540558C134.147 0.322431 134.851 0.178005 135.565 0.109746C136.227 0.0467005 137.12 0.0151777 138.266 0.00467005C139.411 -0.00583756 140.304 0.00467005 140.966 0.00467005C141.678 0.0596383 142.383 0.18996 143.068 0.393452C143.725 0.549411 144.327 0.879757 144.812 1.34964C145.277 1.87758 145.634 2.49161 145.863 3.15695C146.169 4.08932 146.322 5.06523 146.315 6.04655L146.388 12.0464C146.422 12.9671 146.301 13.887 146.031 14.7679C145.838 15.4081 145.504 15.9969 145.054 16.4911C144.57 16.9514 143.977 17.2806 143.33 17.4473C142.646 17.6592 141.942 17.8001 141.229 17.8676C140.556 17.9202 139.653 17.9622 138.539 17.9727C137.424 18.0067 136.308 17.9716 135.198 17.8676C134.366 17.7741 133.554 17.5507 132.791 17.2056C132.011 16.8685 131.39 16.2439 131.058 15.4614C130.659 14.4413 130.469 13.3514 130.501 12.2565V10.155L126.003 10.2181V17.8046ZM143.089 12.5508L142.994 5.55269C142.994 3.95553 142.637 2.96782 141.943 2.60005C140.757 2.14065 139.48 1.96087 138.213 2.07467C136.949 1.9876 135.682 2.2 134.515 2.69462C133.874 3.0834 133.569 4.08162 133.579 5.66827L133.674 12.6769C133.664 13.2937 133.756 13.908 133.947 14.4947C134.026 14.7145 134.151 14.9147 134.314 15.0815C134.477 15.2484 134.675 15.378 134.893 15.4614C135.336 15.6574 135.808 15.7781 136.29 15.8186C136.99 15.8555 137.692 15.8555 138.392 15.8186C139.324 15.8186 140.024 15.7871 140.493 15.7241C140.973 15.6662 141.441 15.5351 141.88 15.3353C142.094 15.2413 142.285 15.1041 142.442 14.9322C142.6 14.7604 142.72 14.5577 142.795 14.3371C142.991 13.7622 143.091 13.1584 143.089 12.5508V12.5508Z" fill="#F2F2F2"/>
<path d="M168.433 46.3957L166.899 45.8388L166.29 41.247L169.715 38.0947L171.239 38.6516L167.981 41.8039L168.433 46.3957ZM171.859 47.6356L170.324 47.0787L169.715 42.4869L173.13 39.3346L174.664 39.8915L171.407 43.0438L171.859 47.6356Z" fill="#F2F2F2"/>
<path d="M186.843 44.0736L185.561 46.6585C185.371 47.1313 185.047 47.5382 184.629 47.8294C184.211 48.1206 183.717 48.2833 183.207 48.2977C181.863 48.2592 180.548 47.8989 179.372 47.2469L177.512 46.3223L175.285 50.809L173.383 49.9054L179.561 37.4644L183.628 39.4818C184.143 39.734 184.573 39.9652 184.931 40.1753C185.302 40.4008 185.654 40.6574 185.981 40.9424C186.299 41.1901 186.569 41.4925 186.78 41.8355C186.952 42.1596 187.046 42.5195 187.053 42.8863C187.084 43.2934 187.011 43.7017 186.843 44.0736V44.0736ZM183.785 45.6603L184.941 43.4432C185.102 43.1405 185.157 42.7931 185.099 42.4555C185.014 42.1223 184.827 41.8244 184.563 41.6044C184.328 41.3898 184.075 41.1964 183.806 41.0264C183.543 40.8611 183.27 40.7137 182.987 40.5851L180.885 39.5344L178.08 45.1244L180.181 46.1752C180.828 46.5213 181.55 46.7019 182.283 46.7005C182.604 46.7007 182.918 46.6061 183.185 46.4285C183.452 46.2509 183.661 45.9982 183.785 45.7023V45.6603Z" fill="#F2F2F2"/>
<path d="M192.411 60.949L190.604 59.7617L191.581 55.3695L186.601 52.1016L182.986 54.7811L181.263 53.6568L193.504 45.051L195.511 46.3645L192.411 60.949ZM191.938 53.8879L193.409 47.3522L193.252 47.2471L187.84 51.198L191.938 53.8879Z" fill="#F2F2F2"/>
<path d="M200.796 68.0628C199.636 67.4317 198.548 66.6778 197.549 65.8141C194.607 63.2503 193.963 61.0227 195.616 59.1313L199.945 54.1507C201.689 52.1542 204.029 52.4344 206.964 54.9913C207.931 55.8298 208.805 56.7705 209.57 57.7968L208.519 58.9632C207.805 57.9119 206.966 56.9521 206.018 56.1051C205.658 55.7866 205.276 55.4951 204.873 55.233C204.554 55.0153 204.212 54.8321 203.854 54.6866C203.462 54.5552 203.037 54.5552 202.645 54.6866C202.213 54.8393 201.831 55.1083 201.542 55.4641L197.265 60.3712C196.215 61.5796 196.698 63.0611 198.694 64.8054C199.657 65.6301 200.715 66.3357 201.847 66.9069L200.796 68.0628Z" fill="#F2F2F2"/>
<path d="M212.513 60.4338L213.868 61.9364L209.445 65.8242C208.583 66.5738 208.709 67.5825 209.823 68.8504C210.328 69.534 210.996 70.0796 211.767 70.4371C212.013 70.5064 212.273 70.5089 212.521 70.4442C212.768 70.3796 212.994 70.2502 213.175 70.0693L217.599 66.1815L218.965 67.7366L208.531 76.9098L207.165 75.3546L211.956 71.1516C211.693 71.2787 211.4 71.3313 211.109 71.3035C210.818 71.2757 210.541 71.1687 210.306 70.994C209.594 70.5546 208.955 70.0049 208.415 69.3653C206.639 67.3478 206.503 65.6771 207.984 64.3742L212.513 60.4338Z" fill="#F2F2F2"/>
<path d="M215.697 87.4068L210.443 79.4526L222.002 71.761L227.171 79.5471L225.953 80.3457L221.939 74.3038L218.156 76.8152L221.781 82.2686L220.573 83.0777L216.948 77.6137L212.745 80.3772L216.874 86.5977L215.697 87.4068Z" fill="#F2F2F2"/>
<path d="M232.508 93.2284L230.407 89.0254L219.269 94.5104L218.354 92.619L229.535 87.155L227.433 82.952L228.736 82.311L233.79 92.64L232.508 93.2284Z" fill="#F2F2F2"/>
<path d="M225.521 111.375L224.891 109.399L231.027 107.434L228.789 100.405L222.642 102.359L222.012 100.384L235.251 96.1807L235.882 98.1561L230.176 99.9844L232.414 107.014L238.13 105.196L238.761 107.172L225.521 111.375Z" fill="#F2F2F2"/>
<path d="M228.022 126.033L227.686 123.931L231.605 121.704L230.67 115.83L226.267 114.947L225.941 112.909L240.536 116.198L240.904 118.562L228.022 126.033ZM232.939 120.947L238.771 117.637V117.448L232.225 116.114L232.939 120.947Z" fill="#F2F2F2"/>
<path d="M228.022 129.185V126.632L234.327 130.992C234.283 130.101 234.494 129.215 234.936 128.439C235.129 128.104 235.41 127.829 235.75 127.643C236.089 127.458 236.473 127.37 236.859 127.388H239.255C239.685 127.322 240.126 127.387 240.519 127.575C240.913 127.762 241.241 128.063 241.461 128.439C241.91 129.644 242.11 130.927 242.05 132.211L242.123 137.087L228.222 137.297V135.196L234.158 135.111V133.094L228.022 129.185ZM238.992 129.406H237.059C236.812 129.399 236.568 129.451 236.347 129.559C236.125 129.667 235.933 129.827 235.787 130.026C235.434 130.742 235.292 131.544 235.377 132.337V135.059L240.631 134.975V132.064C240.631 130.236 240.074 129.343 239.034 129.364L238.992 129.406Z" fill="#F2F2F2"/>
<path d="M225.479 156.358L225.867 154.257L232.172 155.454L233.538 148.194L227.233 147.006L227.622 144.957L241.282 147.532L240.904 149.633L235.009 148.519L233.643 155.78L239.527 156.883L239.149 158.932L225.479 156.358Z" fill="#F2F2F2"/>
<path d="M221.465 168.347L224.617 159.321L237.752 163.861L234.704 172.687L233.275 172.267L235.65 165.405L231.374 163.861L229.272 170.05L227.896 169.577L229.997 163.377L225.29 161.759L222.841 168.82L221.465 168.347Z" fill="#F2F2F2"/>
<path d="M220.813 181.261L218.974 180.347C217.177 179.443 216.999 177.531 218.459 174.61L220.487 170.543L232.928 176.743L229.524 183.573L228.2 182.911L230.68 177.941L226.634 175.934L225.71 177.794C225.394 178.414 225.111 178.939 224.869 179.349C224.621 179.767 224.34 180.164 224.028 180.536C223.767 180.859 223.45 181.133 223.093 181.345C222.772 181.52 222.408 181.604 222.042 181.587C221.613 181.575 221.192 181.464 220.813 181.261V181.261ZM219.962 178.561L221.517 179.338C221.734 179.48 221.988 179.556 222.247 179.556C222.507 179.556 222.761 179.48 222.978 179.338C223.558 178.82 224.015 178.177 224.312 177.457L225.363 175.356L220.824 173.086L219.773 175.188C219.605 175.524 219.479 175.808 219.384 176.039C219.271 176.335 219.187 176.641 219.132 176.953C219.044 177.303 219.074 177.672 219.216 178.004C219.395 178.27 219.658 178.469 219.962 178.571V178.561Z" fill="#F2F2F2"/>
<path d="M208.457 190.749L209.675 188.963L214.047 190.014L217.399 185.086L214.793 181.419L215.959 179.727L224.365 192.115L223.01 194.101L208.457 190.749ZM215.528 190.413L222.032 192L222.148 191.842L218.292 186.357L215.528 190.413Z" fill="#F2F2F2"/>
<path d="M199.525 200.396L200.944 198.883L205.651 203.275L210.695 197.884L205.956 193.482L207.375 191.958L217.525 201.415L216.117 202.928L211.725 198.84L206.692 204.241L211.073 208.329L209.655 209.852L199.525 200.396Z" fill="#F2F2F2"/>
<path d="M195.554 203.789L197.193 202.486L205.841 213.372L204.191 214.675L200.45 209.968C200.114 210.201 199.837 210.511 199.641 210.871C199.515 211.243 199.482 211.64 199.547 212.027L199.904 215.537C200.019 216.267 199.994 217.012 199.831 217.733C199.482 218.346 198.996 218.871 198.412 219.267L197.655 219.866L196.752 218.731L197.603 218.048C197.879 217.836 198.067 217.529 198.128 217.186C198.202 216.695 198.202 216.196 198.128 215.705L197.803 213.12C197.73 212.678 197.73 212.227 197.803 211.785C197.86 211.4 198.02 211.037 198.265 210.735C197.771 210.966 196.374 210.882 194.062 210.493L188.325 209.526L190.426 207.876L196.121 208.927C196.933 209.105 197.76 209.197 198.591 209.2C198.969 209.191 199.336 209.066 199.641 208.843L195.554 203.789Z" fill="#F2F2F2"/>
<path d="M182.734 224.447L179.424 218.741C179.064 218.159 178.888 217.481 178.92 216.797C178.974 216.155 179.22 215.544 179.624 215.043C180.023 214.535 180.474 214.07 180.969 213.656C181.488 213.235 182.04 212.856 182.618 212.521C185.981 210.58 188.292 210.693 189.553 212.857L192.853 218.542C194.191 220.839 193.179 222.962 189.816 224.909C186.454 226.857 184.093 226.703 182.734 224.447ZM181.168 217.754L184.499 223.47C185.361 224.951 186.895 225.046 189.123 223.753C189.537 223.516 189.934 223.249 190.31 222.955C190.636 222.692 190.922 222.384 191.161 222.041C191.404 221.707 191.54 221.308 191.55 220.895C191.543 220.437 191.408 219.989 191.161 219.603L187.841 213.876C187.032 212.5 185.518 212.458 183.28 213.75C181.042 215.043 180.37 216.398 181.168 217.754Z" fill="#F2F2F2"/>
<path d="M167.719 225.246L166.857 223.081C166.663 222.695 166.586 222.262 166.635 221.832C166.683 221.403 166.855 220.998 167.13 220.665C168.056 219.767 169.173 219.091 170.398 218.689L175.148 216.787L180.317 229.691L175.704 231.54C174.832 231.925 173.902 232.163 172.951 232.244C172.406 232.315 171.854 232.196 171.386 231.908C171.025 231.597 170.75 231.199 170.587 230.752L169.894 229.018C169.795 228.798 169.745 228.56 169.745 228.319C169.745 228.079 169.795 227.841 169.894 227.621C170.134 227.151 170.497 226.755 170.944 226.475V226.402C170.297 226.572 169.617 226.572 168.969 226.402C168.683 226.325 168.419 226.18 168.201 225.978C167.983 225.777 167.818 225.526 167.719 225.246V225.246ZM168.769 222.388L169.547 224.342C169.649 224.638 169.84 224.895 170.093 225.078C170.339 225.238 170.634 225.301 170.923 225.256C171.212 225.233 171.497 225.181 171.775 225.099C172.016 225.025 172.353 224.899 172.825 224.731L175.652 223.607L173.771 218.889L170.944 220.024C170.231 220.259 169.573 220.638 169.011 221.138C168.856 221.302 168.754 221.509 168.719 221.732C168.683 221.955 168.715 222.184 168.811 222.388H168.769ZM171.691 228.356L172.289 229.859C172.354 230.073 172.478 230.263 172.647 230.409C172.817 230.554 173.025 230.648 173.246 230.678C173.904 230.699 174.556 230.558 175.148 230.269L177.837 229.218L176.125 224.805L173.382 225.918C172.759 226.106 172.204 226.471 171.785 226.969C171.657 227.176 171.585 227.413 171.576 227.656C171.567 227.899 171.621 228.14 171.733 228.356H171.691Z" fill="#F2F2F2"/>
<path d="M154.353 223.754C155.526 223.174 156.76 222.723 158.031 222.409C161.813 221.443 164.013 222.178 164.629 224.616L166.248 231.015C166.899 233.589 165.344 235.355 161.561 236.269C160.32 236.585 159.048 236.768 157.768 236.815L157.39 235.323C158.663 235.327 159.933 235.182 161.172 234.892C161.639 234.777 162.095 234.626 162.538 234.441C162.912 234.273 163.265 234.061 163.589 233.81C163.926 233.571 164.173 233.228 164.293 232.833C164.42 232.39 164.42 231.92 164.293 231.477L162.696 225.173C162.297 223.618 160.815 223.176 158.241 223.828C157.011 224.161 155.825 224.64 154.71 225.257L154.353 223.754Z" fill="#F2F2F2"/>
<path d="M149.95 224.184L152.052 223.943L153.691 237.739L151.59 237.991L150.875 232.012C150.465 232.036 150.065 232.155 149.709 232.359C149.409 232.612 149.175 232.932 149.026 233.294L147.481 236.447C147.206 237.131 146.795 237.753 146.273 238.275C145.654 238.62 144.963 238.814 144.255 238.842L143.299 238.958L143.12 237.508L144.171 237.382C144.517 237.339 144.837 237.175 145.075 236.92C145.389 236.534 145.648 236.106 145.842 235.648L146.893 233.284C147.061 232.869 147.287 232.48 147.565 232.128C147.822 231.851 148.143 231.642 148.5 231.519C147.954 231.445 146.809 230.646 145.043 229.102L140.662 225.267L143.299 224.951L147.618 228.797C148.214 229.375 148.869 229.889 149.572 230.331C149.892 230.51 150.257 230.594 150.623 230.573L149.95 224.184Z" fill="#F2F2F2"/>
<path d="M127.885 224.952L130.049 225.004L131.531 229.26L137.489 229.386L139.149 225.183L141.25 225.235L135.419 239L133.012 238.948L127.885 224.952ZM132.014 230.699L134.231 237.004H134.421L136.921 230.783L132.014 230.699Z" fill="#F2F2F2"/>
<path d="M124.869 224.427L127.38 224.847L121.969 230.216C122.852 230.338 123.685 230.702 124.375 231.267C124.678 231.516 124.906 231.845 125.032 232.216C125.158 232.587 125.178 232.987 125.089 233.369L124.69 235.733C124.673 236.169 124.526 236.591 124.268 236.943C124.009 237.295 123.651 237.562 123.24 237.708C121.975 237.932 120.678 237.9 119.426 237.614L114.613 236.805L116.904 223.145L119.005 223.492L118.028 229.344L120.014 229.67L124.869 224.427ZM122.683 235.176L122.998 233.274C123.053 233.033 123.046 232.782 122.98 232.544C122.914 232.305 122.791 232.087 122.62 231.908C121.984 231.434 121.226 231.15 120.435 231.089L117.745 230.637L116.893 235.796L119.762 236.279C121.538 236.574 122.504 236.206 122.683 235.176V235.176Z" fill="#F2F2F2"/>
<path d="M107.352 220.328L109.317 221.053L104.473 234.083L102.508 233.358L104.609 227.715C104.232 227.552 103.823 227.473 103.412 227.484C103.022 227.567 102.661 227.748 102.361 228.009L99.5343 230.111C98.9734 230.586 98.3232 230.943 97.6219 231.162C96.8977 231.194 96.1765 231.05 95.5204 230.741L94.6167 230.405L95.1211 229.039L96.1718 229.418C96.5085 229.555 96.8859 229.555 97.2226 229.418C97.6838 229.231 98.1101 228.968 98.4835 228.64L100.522 227.022C100.86 226.731 101.239 226.49 101.646 226.307C102.002 226.177 102.385 226.137 102.76 226.192C102.308 225.887 101.646 224.637 100.785 222.461L98.6831 217.05L101.163 217.975L103.264 223.365C103.53 224.155 103.882 224.913 104.315 225.624C104.518 225.938 104.811 226.183 105.156 226.328L107.352 220.328Z" fill="#F2F2F2"/>
<path d="M84.2249 221.968L85.5804 219.414C85.7851 218.949 86.1202 218.552 86.5453 218.272C86.9704 217.993 87.4673 217.842 87.9761 217.838C89.3195 217.923 90.6233 218.326 91.7799 219.015L93.6187 219.992L95.9619 215.558L97.8008 216.535L91.286 228.819L87.2826 226.717C86.7783 226.458 86.3475 226.216 85.9902 225.992C85.6218 225.751 85.2707 225.484 84.9394 225.194C84.629 224.935 84.3689 224.622 84.1724 224.269C84.0061 223.944 83.9197 223.583 83.9202 223.218C83.9138 222.782 84.0187 222.352 84.2249 221.968V221.968ZM87.3247 220.465L86.1688 222.703C85.9962 223.002 85.933 223.351 85.9902 223.691C86.056 224.027 86.2338 224.331 86.4946 224.553C86.7229 224.772 86.9689 224.972 87.2301 225.152C87.4402 225.288 87.7134 225.446 88.0392 225.614L90.1407 226.665L93.0723 221.127L90.9708 220.013C90.3306 219.644 89.608 219.442 88.8693 219.425C88.5373 219.424 88.2127 219.523 87.9374 219.708C87.662 219.894 87.4486 220.157 87.3247 220.465V220.465Z" fill="#F2F2F2"/>
<path d="M79.7071 205.344L87.5037 210.861L79.4864 222.209L71.8579 216.819L72.6985 215.631L78.6353 219.834L81.2517 216.125L75.9033 212.342L76.7124 211.144L82.0608 214.927L84.9399 210.85L78.835 206.532L79.7071 205.344Z" fill="#F2F2F2"/>
<path d="M67.098 212.815L60.7935 206.847L69.1995 197.884L68.1488 196.949L71.6793 193.208L72.9823 194.437L70.5445 197.022L77.448 203.537L79.8858 200.952L81.2098 202.192L77.7633 205.891L76.8911 205.071C75.5962 205.41 74.3817 206.002 73.3185 206.815C71.6291 208.114 70.0606 209.563 68.6321 211.145L67.098 212.815ZM63.3468 207.078L66.7828 210.304L67.4553 209.589C68.7633 208.182 70.1984 206.898 71.7424 205.754C72.8392 204.877 74.0611 204.168 75.3675 203.653L70.6916 199.25L63.3468 207.078Z" fill="#F2F2F2"/>
<path d="M66.4464 192.294L67.97 194.27L56.9685 202.739L55.8022 201.236L64.8913 194.217L51.2314 195.321L49.6973 193.335L60.7092 184.876L61.8756 186.379L52.6394 193.513L66.4464 192.294Z" fill="#F2F2F2"/>
<path d="M43.277 179.401L45.5677 183.499L56.4325 177.425L57.4833 179.264L46.6184 185.327L48.9196 189.435L47.6482 190.15L42.0371 180.105L43.277 179.401Z" fill="#F2F2F2"/>
<path d="M49.2667 160.897L50.0127 162.841L43.9814 165.132L46.6188 172.036L52.6397 169.745L53.3752 171.689L40.3878 176.627L39.6522 174.694L45.2528 172.592L42.6259 165.689L37.0253 167.79L36.2793 165.857L49.2667 160.897Z" fill="#F2F2F2"/>
<path d="M45.9564 146.354L46.4082 148.456L42.6149 150.883L43.8654 156.704L48.3206 157.356L48.7514 159.363L34.0407 156.873L33.5469 154.529L45.9564 146.354ZM41.3225 151.703L35.7325 155.317V155.507L42.3628 156.494L41.3225 151.703Z" fill="#F2F2F2"/>
<path d="M45.7673 143.287L45.9459 145.829L39.4627 141.795C39.5472 142.688 39.3798 143.587 38.9794 144.39C38.8084 144.739 38.5441 145.034 38.2158 145.241C37.8875 145.449 37.508 145.562 37.1195 145.567L34.7343 145.735C34.3053 145.82 33.8607 145.774 33.4579 145.604C33.0552 145.433 32.7128 145.146 32.4752 144.779C31.9555 143.603 31.6836 142.334 31.6766 141.049L31.3403 136.183L45.2104 135.217L45.347 137.318L39.4312 137.728L39.5678 139.746L45.7673 143.287ZM34.7973 143.654L36.7202 143.518C36.9673 143.516 37.2099 143.452 37.4263 143.333C37.6427 143.213 37.8262 143.042 37.9601 142.835C38.2804 142.109 38.3827 141.306 38.2543 140.523L38.0652 137.802L32.8114 138.169L33.011 141.07C33.1792 142.845 33.7571 143.728 34.7973 143.654V143.654Z" fill="#F2F2F2"/>
<path d="M36.7834 114.863L43.3192 115.704C43.9998 115.766 44.6433 116.042 45.158 116.492C45.6396 116.923 45.977 117.491 46.1247 118.12C46.2887 118.746 46.3838 119.387 46.4084 120.033C46.4289 120.7 46.3938 121.368 46.3033 122.029C45.813 125.875 44.3174 127.626 41.8166 127.283L35.3019 126.442C32.6644 126.096 31.6032 124.005 32.097 120.138C32.5909 116.271 34.125 114.527 36.7834 114.863ZM43.088 117.7L36.5207 116.849C34.8185 116.625 33.8063 117.791 33.484 120.348C33.3868 120.836 33.3306 121.332 33.3159 121.83C33.3286 122.251 33.3994 122.668 33.5261 123.069C33.6322 123.483 33.8679 123.851 34.1986 124.12C34.5676 124.392 35.0033 124.559 35.4595 124.604L42.0267 125.455C43.6099 125.658 44.5661 124.477 44.8953 121.914C45.1895 119.276 44.5906 117.9 43.0144 117.7H43.088Z" fill="#F2F2F2"/>
<path d="M39.2207 101.456L42.0052 102.233C42.5144 102.319 42.9863 102.555 43.3607 102.911C43.735 103.266 43.9948 103.726 44.1068 104.23C44.314 105.557 44.2023 106.915 43.781 108.191L43.2241 110.198L48.0471 111.533L47.5007 113.529L34.1035 109.83L35.3119 105.449C35.4695 104.902 35.6061 104.398 35.7532 104.041C35.9015 103.62 36.0842 103.212 36.2996 102.822C36.4772 102.462 36.7235 102.141 37.0246 101.876C37.3066 101.647 37.6373 101.485 37.9913 101.403C38.3992 101.319 38.8216 101.337 39.2207 101.456V101.456ZM41.3222 104.156L38.8845 103.484C38.5612 103.372 38.2096 103.372 37.8863 103.484C37.5732 103.625 37.3149 103.865 37.1507 104.167C36.9809 104.435 36.84 104.72 36.7304 105.018C36.6464 105.249 36.5518 105.543 36.4467 105.9L35.8688 108.17L41.9107 109.851L42.5516 107.561C42.7695 106.86 42.8092 106.116 42.6672 105.396C42.5909 105.087 42.4277 104.806 42.1968 104.586C41.966 104.366 41.6771 104.217 41.3643 104.156H41.3222Z" fill="#F2F2F2"/>
<path d="M42.3834 90.076L40.1138 95.5609L51.6196 100.289L50.8315 102.212L37.9702 96.9584L41.0384 89.5085L42.3834 90.076Z" fill="#F2F2F2"/>
<path d="M59.2171 84.8437L58.1664 86.7455L53.7006 86.1571L50.8951 91.4109L53.8793 94.7839L52.9336 96.6122L43.2876 85.1589L44.4119 83.0574L59.2171 84.8437ZM52.2191 85.8944L45.5783 85.0538L45.4942 85.2219L49.9074 90.3076L52.2191 85.8944Z" fill="#F2F2F2"/>
<path d="M67.0455 74.2827L65.8056 75.9534L60.6358 72.0866L56.2121 78.0024L61.3714 81.9007L60.1315 83.5609L49.0039 75.2074L50.2438 73.5472L55.0458 77.1303L59.4695 71.2145L54.6465 67.6314L55.8969 65.9607L67.0455 74.2827Z" fill="#F2F2F2"/>
<path d="M70.8805 70.227L69.0732 71.9607L59.4272 61.9364L60.8037 60.6125L68.7685 68.882L66.2047 55.4427L68.0015 53.709L77.6474 63.7122L76.2604 65.0887L68.1591 56.6826L70.8805 70.227Z" fill="#F2F2F2"/>
<path d="M84.0681 52.1648L85.6863 54.424C85.9716 54.7953 86.1464 55.2396 86.1907 55.7059C86.2337 56.1069 86.187 56.5125 86.0541 56.8932C85.881 57.2786 85.6468 57.6334 85.3606 57.944C85.0651 58.292 84.7418 58.6153 84.3939 58.9107C84.0786 59.1629 83.7109 59.4466 83.2801 59.7513C82.0563 60.6195 80.7589 61.3789 79.4027 62.021L78.4781 60.7285C79.8111 60.2092 81.0888 59.558 82.2923 58.7846C82.6391 58.5429 82.9228 58.3223 83.1435 58.1436C83.3996 57.9204 83.6385 57.678 83.858 57.4186C84.1002 57.1684 84.2581 56.8488 84.3098 56.5045C84.3611 56.1596 84.2742 55.8085 84.0681 55.5273L82.7126 53.6254C82.2083 52.9004 81.168 53.1 79.5604 54.2033L77.2067 55.8845L76.4291 54.8338L78.5306 53.3732C80.1068 52.2489 80.6321 51.2717 80.0962 50.5782L78.7092 48.6448C78.2784 48.0353 77.3012 48.277 75.7986 49.3488C75.2943 49.706 74.6323 50.2209 73.8232 50.9039L72.5623 51.9547L71.7217 50.7673C73.0772 49.7165 74.1594 48.8234 74.9685 48.235C75.9098 47.5022 76.9786 46.95 78.1208 46.6063C78.499 46.4979 78.9021 46.5151 79.2697 46.6553C79.6372 46.7955 79.9494 47.0511 80.1593 47.3839L81.6724 49.4854C81.8023 49.6611 81.8874 49.8659 81.9203 50.0819C81.9533 50.298 81.9331 50.5188 81.8615 50.7253C81.709 51.1905 81.4415 51.6097 81.084 51.9442V52.0177C81.3399 51.8904 81.603 51.7781 81.872 51.6815C82.1153 51.6011 82.3648 51.5414 82.6181 51.5028C82.8819 51.4571 83.1534 51.4938 83.3956 51.6079C83.6663 51.7289 83.8988 51.9214 84.0681 52.1648V52.1648Z" fill="#F2F2F2"/>
<path d="M100.365 49.6009L98.4523 50.6517L95.1004 47.594L89.8465 50.3365L90.3719 54.8022L88.5541 55.7479L87.041 40.9217L89.1425 39.8184L100.365 49.6009ZM93.976 46.5537L88.9954 42.0775L88.8168 42.1616L89.6259 48.8129L93.976 46.5537Z" fill="#F2F2F2"/>
<path d="M113.951 48.6969L112.102 49.3169L110.967 45.9544L101.931 49.0332L97.4229 35.8671L99.3878 35.2052L103.391 47.0052L110.337 44.641L106.344 32.8304L108.309 32.1685L113.951 48.6969Z" fill="#F2F2F2"/>
<path d="M118.249 44.1577L115.78 44.5674L113.479 30.9075L115.359 30.5923L117.261 41.909L122.725 29.3629L125.205 28.9426L127.496 42.6551L125.625 42.9703L123.692 31.4645L118.249 44.1577Z" fill="#F2F2F2"/>
<path d="M131.993 42.3927H129.45L133.8 36.0882C132.904 36.1272 132.016 35.9123 131.236 35.4682C130.903 35.2762 130.629 34.9963 130.443 34.6591C130.258 34.3219 130.169 33.9402 130.186 33.5558V31.1601C130.121 30.7295 130.187 30.2893 130.374 29.8962C130.561 29.503 130.861 29.1748 131.236 28.9535C132.441 28.5011 133.724 28.2973 135.009 28.3546L139.895 28.281L140.115 42.1721H138.014L137.919 36.2458H135.902L131.993 42.3927ZM132.203 31.4228V33.3457C132.193 33.5923 132.245 33.8376 132.353 34.0595C132.461 34.2814 132.623 34.473 132.823 34.6171C133.533 34.9766 134.333 35.1226 135.124 35.0374H137.835L137.751 29.7836L134.841 29.8361C133.075 29.8466 132.182 30.4141 132.203 31.4648V31.4228Z" fill="#F2F2F2"/>
<path d="M146.62 37.2123L144.077 41.0791L142.458 40.9215L144.833 37.0337L143.289 32.7361L144.907 32.9042L146.62 37.2123ZM150.245 37.5801L147.702 41.4469L146.063 41.2893L148.437 37.391L146.893 33.1039L148.511 33.272L150.245 37.5801Z" fill="#F2F2F2"/>
<path d="M136.249 127.787L137.299 127.872L139.758 99.7637L146.346 108.39L143.762 50.6826H143.173C138.97 69.5963 134.767 88.4855 130.564 107.35L138.76 99.7427L136.249 127.787Z" fill="#F2F2F2"/>
<path d="M136.532 136.645L135.481 136.551L132.728 164.627L126.224 155.937C126.924 175.18 127.59 194.423 128.22 213.666L128.819 213.729C133.211 194.879 137.607 176.031 142.006 157.188L133.737 164.711L136.532 136.645Z" fill="#F2F2F2"/>
<path d="M227.938 132.527V131.98L164.713 124.982L173.823 131.865H142.458C142.255 130.661 141.669 129.556 140.787 128.712C139.657 127.777 138.236 127.265 136.768 127.265C135.301 127.265 133.88 127.777 132.749 128.712C131.867 129.556 131.281 130.661 131.078 131.865H121.622V132.789H131.078C131.281 133.993 131.867 135.098 132.749 135.942C133.88 136.877 135.301 137.389 136.768 137.389C138.236 137.389 139.657 136.877 140.787 135.942C141.673 135.101 142.26 133.994 142.458 132.789H173.844L165.029 139.504L227.938 132.527ZM136.28 136.456C135.269 136.406 134.305 136.016 133.543 135.351C132.78 134.686 132.264 133.784 132.077 132.789H136.28V136.456ZM136.28 131.865H132.077C132.264 130.87 132.78 129.968 133.543 129.303C134.305 128.638 135.269 128.248 136.28 128.198V131.865ZM137.257 136.456V132.789H141.46C141.269 133.782 140.752 134.682 139.99 135.347C139.228 136.011 138.266 136.402 137.257 136.456V136.456ZM137.257 131.865V128.198C138.266 128.252 139.228 128.643 139.99 129.307C140.752 129.972 141.269 130.872 141.46 131.865H137.257Z" fill="#F2F2F2"/>
<path d="M108.592 139.504L99.8291 132.789H131.215C131.418 133.993 132.004 135.098 132.886 135.942C134.016 136.877 135.438 137.389 136.905 137.389C138.372 137.389 139.794 136.877 140.924 135.942C141.81 135.101 142.397 133.994 142.595 132.789H152.052V131.865H142.595C142.397 130.66 141.81 129.553 140.924 128.712C139.794 127.777 138.372 127.265 136.905 127.265C135.438 127.265 134.016 127.777 132.886 128.712C132.004 129.556 131.418 130.661 131.215 131.865H99.8291L108.939 124.982L45.7148 131.98V132.527L108.592 139.504ZM137.341 132.789H141.544C141.353 133.782 140.836 134.682 140.074 135.347C139.313 136.011 138.351 136.402 137.341 136.456V132.789ZM137.341 128.198C138.351 128.252 139.313 128.643 140.074 129.307C140.836 129.972 141.353 130.872 141.544 131.865H137.341V128.198ZM132.15 132.789H136.354V136.456C135.343 136.406 134.379 136.016 133.617 135.351C132.854 134.686 132.338 133.784 132.15 132.789ZM132.15 131.865C132.338 130.87 132.854 129.968 133.617 129.303C134.379 128.638 135.343 128.248 136.354 128.198V131.865H132.15Z" fill="#F2F2F2"/>
<path d="M136.301 141.248C141.414 141.248 145.558 137.103 145.558 131.991C145.558 126.878 141.414 122.734 136.301 122.734C131.189 122.734 127.044 126.878 127.044 131.991C127.044 137.103 131.189 141.248 136.301 141.248Z" fill="#F2F2F2"/>
<path d="M127.044 132.369H145.558" stroke="white" stroke-width="2"/>
<path d="M135.523 141.227L137.205 122.786" stroke="white" stroke-width="2"/>
<path d="M104.872 97.8096V103.61C104.963 104.682 104.739 105.757 104.227 106.703C103.716 107.649 102.94 108.426 101.993 108.937C100.081 109.967 96.9601 110.482 92.631 110.482H79.8643V75.9327H92.2527C94.6192 75.8482 96.9834 76.1535 99.2508 76.8364C100.577 77.1774 101.743 77.9685 102.55 79.0745C103.106 80.1205 103.374 81.2953 103.328 82.479V87.1548C103.37 87.7501 103.285 88.3474 103.079 88.9073C102.872 89.4671 102.549 89.9765 102.13 90.4017C101.114 91.2517 99.8931 91.8205 98.5888 92.0514V92.2615C100.239 92.4944 101.8 93.1535 103.118 94.1739C103.669 94.6051 104.114 95.1572 104.418 95.7875C104.722 96.4179 104.878 97.1097 104.872 97.8096V97.8096ZM98.4838 86.9447V82.9518C98.5304 82.4021 98.4198 81.8505 98.1649 81.3612C97.9101 80.8719 97.5214 80.4651 97.0442 80.1883C95.5321 79.5489 93.8905 79.2752 92.2527 79.3897H85.1181V91.0532H92.4734C94.0983 91.1853 95.7265 90.8421 97.1598 90.0654C97.6224 89.6962 97.9857 89.2175 98.2168 88.6727C98.448 88.1278 98.5397 87.5339 98.4838 86.9447ZM99.7026 103.4V98.1458C99.7432 97.371 99.5491 96.602 99.1457 95.9392C98.7188 95.3535 98.0963 94.9398 97.391 94.7729C96.7058 94.5627 96.0021 94.4185 95.2894 94.342C94.6695 94.2895 93.7974 94.2685 92.6625 94.2685H85.1181V106.878H92.6835C94.5442 107 96.4098 106.728 98.158 106.079C98.6515 105.835 99.0616 105.45 99.3365 104.974C99.6115 104.497 99.7389 103.949 99.7026 103.4V103.4Z" fill="#F2F2F2"/>
<path d="M192.874 110.482H169.179V75.9326H192.391V79.5472H174.296V90.8324H190.583V94.5101H174.296V106.909H192.874V110.482Z" fill="#F2F2F2"/>
<path d="M104.032 189.362C100.853 190.059 97.6088 190.411 94.3546 190.413C84.6665 190.413 79.819 187.292 79.812 181.051V164.659C79.812 158.053 84.6595 154.75 94.3546 154.75C97.5357 154.755 100.707 155.108 103.811 155.801V159.626C100.754 158.823 97.61 158.396 94.4491 158.354C93.2537 158.34 92.0591 158.421 90.8765 158.596C89.834 158.758 88.8145 159.043 87.8398 159.447C86.889 159.815 86.087 160.487 85.5597 161.36C84.9948 162.353 84.7183 163.485 84.7611 164.627V180.82C84.7611 184.792 88.0605 186.777 94.6593 186.777C97.8271 186.709 100.975 186.254 104.032 185.422V189.362Z" fill="#F2F2F2"/>
<path d="M196.499 158.922H184.941V189.846H179.687V158.922H167.96V155.297H196.499V158.922Z" fill="#F2F2F2"/>
</svg>