<svg width="366" height="379" viewBox="0 0 366 379" fill="none" xmlns="http://www.w3.org/2000/svg">
<g filter="url(#filter0_d)">
<path fill-rule="evenodd" clip-rule="evenodd" d="M184.684 133.394C184.234 135.311 183.999 137.275 183.983 139.248L183.793 163.392C183.782 164.805 184.831 165.99 186.2 166.238C187.545 166.482 188.899 165.764 189.373 164.466L197.624 141.824C198.304 139.959 198.771 138.019 199.018 136.044L215.983 0L184.684 133.394ZM171.347 228.574C170.666 230.442 170.197 232.386 169.95 234.366L152.997 370.43L184.352 237.069C184.807 235.133 185.043 233.149 185.055 231.156L185.233 202.072C185.239 201.086 184.523 200.251 183.57 200.061C182.607 199.87 181.633 200.384 181.293 201.316L171.347 228.574ZM199.94 184.356C199.269 182.259 199.269 181.844 199.269 181.132V181.131C199.269 181.122 199.273 179.997 200.365 178.245C201.248 176.829 217.661 174.392 224.04 173.494C225.711 173.258 227.394 173.204 229.077 173.315L361.675 182.033L228.827 189.612C227.264 189.701 225.701 189.648 224.15 189.437C217.778 188.569 200.487 186.066 199.94 184.356ZM168.817 181.75C168.817 182.462 168.817 182.878 168.137 184.975C167.582 186.69 149.967 189.204 143.565 190.063C142.032 190.269 140.491 190.321 138.948 190.234L4.38086 182.652L138.699 173.929C140.362 173.821 142.026 173.874 143.677 174.104C150.092 174.995 166.811 177.444 167.707 178.863C168.813 180.615 168.817 181.741 168.817 181.75V181.75Z" fill="#2D9CDB"/>
<path d="M193.661 182.313C193.661 187.392 189.544 191.508 184.466 191.508C179.387 191.508 175.271 187.392 175.271 182.313C175.271 177.235 179.387 173.118 184.466 173.118C189.544 173.118 193.661 177.235 193.661 182.313Z" fill="#2D9CDB"/>
</g>
<defs>
<filter id="filter0_d" x="0.380859" y="0" width="365.294" height="378.43" filterUnits="userSpaceOnUse" color-interpolation-filters="sRGB">
<feFlood flood-opacity="0" result="BackgroundImageFix"/>
<feColorMatrix in="SourceAlpha" type="matrix" values="0 0 0 0 0 0 0 0 0 0 0 0 0 0 0 0 0 0 127 0"/>
<feOffset dy="4"/>
<feGaussianBlur stdDeviation="2"/>
<feColorMatrix type="matrix" values="0 0 0 0 0 0 0 0 0 0 0 0 0 0 0 0 0 0 0.9 0"/>
<feBlend mode="normal" in2="BackgroundImageFix" result="effect1_dropShadow"/>
<feBlend mode="normal" in="SourceGraphic" in2="effect1_dropShadow" result="shape"/>
</filter>
</defs>
</svg>