<svg width="58" height="59" viewBox="0 0 58 59" fill="none" xmlns="http://www.w3.org/2000/svg">
<path d="M40.0313 2.24998L39.287 4.48535C39.2179 4.71979 39.0781 4.92715 38.8867 5.07905C38.7016 5.21566 38.48 5.29396 38.2502 5.30393C38.0196 5.31862 37.7881 5.30807 37.5598 5.27245C37.3255 5.23416 37.0946 5.177 36.8694 5.10154C35.5516 4.66676 35.0336 4.02358 35.3155 3.17201L36.0508 0.94339C36.3507 0.0438453 37.1573 -0.189287 38.4706 0.243994C39.7839 0.677275 40.3042 1.34594 40.0313 2.24998ZM38.6078 4.26046L39.3567 2.0116C39.5486 1.43139 39.2082 0.997363 38.3357 0.709508C38.1735 0.65427 38.0074 0.611419 37.8387 0.581323C37.6895 0.559795 37.5381 0.559795 37.3889 0.581323C37.2438 0.595252 37.1064 0.653333 36.9954 0.747739C36.8733 0.858415 36.7845 1.00093 36.739 1.15928L35.9991 3.40814C35.8222 3.95087 36.1708 4.36616 37.0448 4.65401C37.9189 4.94187 38.4399 4.81068 38.6078 4.26046Z" fill="#F2F2F2"/>
<path d="M43.1458 6.6106C43.0427 6.82035 42.8926 7.0035 42.7072 7.14583C42.5544 7.25751 42.3678 7.3131 42.1788 7.30325C41.996 7.29363 41.8157 7.25726 41.6435 7.1953C41.4434 7.11721 41.2488 7.02554 41.0611 6.92094C40.8789 6.82199 40.7283 6.73204 40.6113 6.65333C40.4826 6.56818 40.3635 6.46941 40.256 6.35873C40.1534 6.25844 40.0763 6.13507 40.0311 5.99891C39.9917 5.85608 39.9848 5.70623 40.0109 5.56038C40.0418 5.36663 40.1073 5.18001 40.2043 5.00941L41.5536 2.51767C41.6493 2.32995 41.7833 2.16445 41.9471 2.03192C42.0754 1.92871 42.2253 1.85569 42.3857 1.81828C42.5485 1.78995 42.7155 1.79608 42.8759 1.83627C43.0401 1.87174 43.2005 1.92295 43.3549 1.98919C43.4899 2.04766 43.6495 2.12637 43.8272 2.21408C44.1015 2.36475 44.4569 2.58289 44.8954 2.87524L44.648 3.32501C44.2829 3.05698 43.9014 2.81212 43.5056 2.59188C43.265 2.43401 42.9876 2.34105 42.7005 2.32202C42.5116 2.32202 42.3294 2.49518 42.1585 2.81452L41.8752 3.33176C42.0856 3.32177 42.2963 3.34763 42.4981 3.40822C42.7198 3.46394 42.9341 3.54545 43.1368 3.6511C43.5716 3.88948 43.8384 4.1481 43.9374 4.42696C43.9855 4.58206 43.999 4.74584 43.9768 4.90672C43.9547 5.06761 43.8974 5.22166 43.8092 5.35798L43.1458 6.6106ZM42.5296 6.31825L43.2177 5.05664C43.2727 4.97897 43.3094 4.88985 43.3249 4.79598C43.3405 4.70211 43.3346 4.60593 43.3077 4.51466C43.1775 4.30498 42.9848 4.14139 42.7567 4.0469C42.5667 3.94678 42.3616 3.87842 42.1495 3.8445C41.9639 3.80067 41.7692 3.8148 41.5918 3.88498L40.7845 5.36923C40.6271 5.65933 40.5888 5.87972 40.6698 6.03264C40.8294 6.25052 41.0434 6.42268 41.2905 6.53189C41.5141 6.67882 41.7722 6.76486 42.0393 6.78151C42.2058 6.76802 42.3699 6.6151 42.5296 6.31825Z" fill="#F2F2F2"/>
<path d="M46.6876 10.8855L43.4043 8.1194L45.7858 5.28809L46.3121 5.73786L44.2544 8.18237L45.3608 9.1134L47.4185 6.66664L47.9515 7.11641L45.8938 9.56092L47.0025 10.4852L49.0602 8.03844L49.5864 8.48822L46.537 12.0976L46.0287 11.6816L46.6876 10.8855Z" fill="#F2F2F2"/>
<path d="M51.0505 13.4156L49.4988 11.4771L49.0625 11.8257C48.9705 11.8859 48.8973 11.9707 48.8512 12.0705C48.8051 12.1703 48.7879 12.2811 48.8016 12.3901C48.868 12.6742 49.0058 12.9366 49.2019 13.1525C49.4675 13.4655 49.7695 13.7456 50.1015 13.9868L49.7012 14.3152C49.3292 14.0118 48.99 13.6704 48.6892 13.2964C48.4231 12.9918 48.2457 12.62 48.1765 12.2215C48.1541 12.0521 48.1788 11.8798 48.2478 11.7236C48.3168 11.5673 48.4275 11.433 48.5678 11.3354L49.7012 10.4224C50.0565 10.139 50.3893 10.0378 50.7042 10.1188C51.019 10.1997 51.3518 10.4651 51.7094 10.9104C52.067 11.3557 52.2154 11.693 52.2244 12.0011C52.2334 12.3092 52.0557 12.6128 51.6892 12.9006L51.0505 13.4156ZM50.974 12.597L51.4238 12.235C51.4993 12.1875 51.5609 12.1208 51.6024 12.0419C51.6439 11.9629 51.6637 11.8743 51.6599 11.7852C51.6071 11.5597 51.4962 11.3519 51.3384 11.1825C51.1993 10.9879 51.0188 10.8266 50.8099 10.7102C50.7226 10.6794 50.6284 10.6742 50.5383 10.6953C50.4482 10.7165 50.3661 10.763 50.3016 10.8294L49.8519 11.1915L50.974 12.597Z" fill="#F2F2F2"/>
<path d="M51.5746 17.5037C51.311 17.2053 51.0789 16.8805 50.8819 16.5344C50.7695 16.341 50.684 16.1904 50.6278 16.0847C50.564 15.9544 50.5136 15.818 50.4772 15.6776C50.4343 15.5447 50.4258 15.4032 50.4524 15.2661C50.4905 15.1306 50.5572 15.0048 50.6481 14.8973C50.7744 14.7475 50.9268 14.6217 51.0978 14.5262L52.2717 13.8381C52.423 13.7434 52.5854 13.6679 52.7553 13.6132C52.8852 13.5716 53.0234 13.5623 53.1578 13.5862C53.2677 13.6071 53.3744 13.6426 53.4749 13.6919C53.5857 13.7506 53.6829 13.8318 53.7605 13.9303C53.8572 14.0495 53.9359 14.1552 54.0011 14.2519C54.0663 14.3486 54.1473 14.4767 54.244 14.6432C54.4242 14.9494 54.5705 15.2744 54.6803 15.6124L54.244 15.8688C54.1393 15.4975 53.9882 15.1408 53.7942 14.8073C53.6854 14.5725 53.5172 14.3702 53.3062 14.2204C53.1803 14.1664 52.9824 14.2204 52.7103 14.38L51.3902 15.1536C51.1653 15.2908 51.0371 15.4348 51.0281 15.5877C51.0642 15.8599 51.1661 16.1193 51.325 16.3433C51.5172 16.6704 51.7491 16.9726 52.0154 17.2428L51.5746 17.5037Z" fill="#F2F2F2"/>
<path d="M56.0139 19.8742L55.4652 18.5249L52.5079 19.7392L52.2471 19.1028L55.2043 17.8884L54.6534 16.5391L55.1189 16.3457L56.4682 19.665L56.0139 19.8742Z" fill="#F2F2F2"/>
<path d="M55.1592 24.6124L54.9343 24.6618C54.7949 24.7115 54.6446 24.7227 54.4994 24.6942C54.3541 24.6658 54.2193 24.5986 54.109 24.4999C53.9185 24.3095 53.7521 23.9182 53.6097 23.326L53.2229 21.6978L56.8211 20.8433L57.1944 22.4175C57.2601 22.674 57.303 22.9359 57.3226 23.2001C57.3398 23.3622 57.3085 23.5258 57.2326 23.6701C57.1771 23.7623 57.0999 23.8395 57.0077 23.895C56.8938 23.9501 56.7738 23.9916 56.6502 24.0187L56.5242 24.0479C56.4463 24.0738 56.3637 24.0824 56.2821 24.073C56.2006 24.0637 56.122 24.0367 56.052 23.9939C55.9065 23.8739 55.7936 23.7192 55.7236 23.5441H55.6944C55.7484 24.1671 55.5662 24.5157 55.1592 24.6124ZM54.8039 23.9737L55.04 23.9175C55.1005 23.9049 55.157 23.8779 55.2048 23.8388C55.2526 23.7996 55.2902 23.7494 55.3143 23.6926C55.3688 23.4692 55.3571 23.2348 55.2806 23.0179L55.0355 21.9834L53.8751 22.251L54.1112 23.2495C54.1452 23.4864 54.2371 23.7112 54.3788 23.904C54.4375 23.9516 54.5075 23.983 54.5821 23.9953C54.6566 24.0075 54.7331 24.0001 54.8039 23.9737ZM56.4073 23.4115H56.45C56.5219 23.4047 56.5911 23.3807 56.6518 23.3416C56.7124 23.3025 56.7628 23.2493 56.7986 23.1866C56.8381 22.9825 56.8234 22.7715 56.7559 22.5749L56.531 21.6304L55.474 21.8822L55.6989 22.8492C55.7225 23.0527 55.809 23.2437 55.9463 23.3957C56.0179 23.4299 56.0958 23.4489 56.1751 23.4516C56.2545 23.4543 56.3335 23.4406 56.4073 23.4115Z" fill="#F2F2F2"/>
<path d="M56.7806 28.8312L55.4987 28.919C55.3028 28.9377 55.1051 28.9232 54.914 28.8762C54.7741 28.8426 54.6435 28.778 54.5317 28.6873C54.4276 28.5901 54.3501 28.4677 54.3068 28.332C54.2535 28.1863 54.2151 28.0356 54.1921 27.8822C54.1719 27.7383 54.1517 27.5449 54.1359 27.3065C54.1167 27.0687 54.1107 26.8299 54.1179 26.5914C54.1277 26.4126 54.1656 26.2365 54.2304 26.0696C54.2934 25.8987 54.4198 25.7585 54.5834 25.6783C54.7955 25.5813 55.025 25.5278 55.2581 25.5209L56.5377 25.431C56.7472 25.4117 56.9584 25.4269 57.1629 25.4759C57.308 25.5111 57.4448 25.5746 57.5654 25.6626C57.6755 25.7569 57.7573 25.8799 57.8016 26.0179C57.8579 26.1629 57.8979 26.3138 57.9208 26.4677C57.941 26.6049 57.959 26.7983 57.977 27.0412C57.995 27.284 58.0017 27.4774 57.9995 27.6191C57.9974 27.7706 57.9785 27.9215 57.9432 28.0689C57.9191 28.2119 57.8552 28.3451 57.7588 28.4534C57.652 28.5581 57.525 28.64 57.3855 28.6941C57.1929 28.7731 56.9884 28.8195 56.7806 28.8312ZM55.3503 28.2241L56.8458 28.1206C57.1876 28.0981 57.3923 28.0149 57.4642 27.871C57.5491 27.6131 57.5722 27.3389 57.5317 27.0704C57.5348 26.7987 57.4748 26.53 57.3563 26.2855C57.2648 26.1521 57.0489 26.0981 56.7086 26.1236L55.2131 26.2271C55.0815 26.2322 54.9516 26.2588 54.8286 26.3058C54.7818 26.3271 54.7401 26.3582 54.7064 26.397C54.6726 26.4358 54.6476 26.4814 54.6329 26.5307C54.5953 26.6276 54.5747 26.7303 54.5722 26.8343C54.5722 26.9355 54.5722 27.0861 54.5879 27.284C54.6037 27.4819 54.6172 27.6326 54.6352 27.7338C54.6518 27.836 54.6852 27.9348 54.7341 28.0262C54.7571 28.0703 54.7889 28.1093 54.8276 28.1407C54.8663 28.172 54.911 28.195 54.959 28.2083C55.0876 28.2361 55.2199 28.2414 55.3503 28.2241Z" fill="#F2F2F2"/>
<path d="M53.8145 34.213C53.7971 33.8152 53.8197 33.4167 53.882 33.0234C53.9157 32.7985 53.9449 32.6298 53.9697 32.5084C54.0022 32.3661 54.0489 32.2275 54.1091 32.0946C54.1589 31.9645 54.2409 31.8492 54.3475 31.7595C54.4629 31.6787 54.5939 31.6228 54.732 31.5953C54.9253 31.56 55.1234 31.56 55.3167 31.5953L56.6661 31.7932C56.8424 31.8179 57.0153 31.8632 57.181 31.9282C57.3064 31.9768 57.4188 32.0537 57.5094 32.1531C57.583 32.2377 57.6443 32.3324 57.6915 32.4342C57.7389 32.5512 57.7611 32.6768 57.7568 32.803C57.7568 32.9559 57.7567 33.0886 57.7455 33.2033C57.7343 33.318 57.7163 33.4709 57.687 33.6531C57.6353 34.0043 57.5455 34.3489 57.4194 34.6808L56.9202 34.6066C57.0723 34.2533 57.1796 33.8823 57.2395 33.5024C57.2957 33.1133 57.2935 32.8592 57.2283 32.74C57.1631 32.6208 56.9741 32.5354 56.6616 32.4881L55.1503 32.2633C55.0562 32.2347 54.9564 32.2298 54.8599 32.2491C54.7634 32.2683 54.6731 32.311 54.5971 32.3735C54.4522 32.6077 54.3679 32.8743 54.352 33.1493C54.2996 33.5219 54.2936 33.8996 54.334 34.2737L53.8145 34.213Z" fill="#F2F2F2"/>
<path d="M54.3249 40.4288L53.124 39.979C52.9379 39.9141 52.7644 39.8175 52.6113 39.6934C52.4982 39.6049 52.4067 39.4918 52.3437 39.3628C52.2915 39.2307 52.2729 39.0878 52.2897 38.9468C52.3021 38.7942 52.3308 38.6435 52.3751 38.497C52.4156 38.3576 52.4808 38.1754 52.5663 37.9505C52.648 37.7267 52.7419 37.5075 52.8474 37.2938C52.9313 37.136 53.0399 36.9925 53.169 36.8688C53.2977 36.7388 53.4718 36.6638 53.6547 36.6597C53.8869 36.661 54.1164 36.7091 54.3294 36.8013L55.5303 37.2511C55.7284 37.3194 55.9133 37.4214 56.0768 37.5525C56.1955 37.6448 56.2942 37.7603 56.3669 37.892C56.4251 38.0241 56.4468 38.1693 56.4298 38.3126C56.4204 38.465 56.394 38.6158 56.3511 38.7624C56.3106 38.8973 56.2477 39.0794 56.16 39.3088C56.0723 39.5382 56.0003 39.7136 55.9351 39.8418C55.8675 39.9813 55.7854 40.1132 55.69 40.2354C55.607 40.354 55.4936 40.448 55.3616 40.5075C55.2178 40.5596 55.0644 40.5803 54.9119 40.5682C54.7099 40.5539 54.5117 40.5068 54.3249 40.4288ZM53.2814 39.2796L54.6825 39.8126C55.0018 39.934 55.2222 39.9453 55.3571 39.8441C55.5431 39.6456 55.6795 39.4059 55.7552 39.1447C55.8717 38.8989 55.9295 38.6295 55.9238 38.3576C55.8946 38.2001 55.7214 38.0607 55.4021 37.9393L54.0011 37.4063C53.8799 37.3544 53.7504 37.3247 53.6188 37.3186C53.5689 37.3173 53.5194 37.3264 53.4733 37.3454C53.4272 37.3644 53.3856 37.3928 53.3511 37.4288C53.2787 37.5023 53.218 37.5865 53.1712 37.6784C53.1053 37.8146 53.0468 37.9542 52.9958 38.0967C52.94 38.2358 52.8912 38.3777 52.8497 38.5217C52.8233 38.6222 52.8127 38.7261 52.8182 38.8298C52.8203 38.8796 52.8326 38.9284 52.8543 38.9732C52.8759 39.0181 52.9065 39.058 52.9441 39.0907C53.0455 39.1717 53.1594 39.2355 53.2814 39.2796Z" fill="#F2F2F2"/>
<path d="M53.2524 43.9843L54.0508 42.5383L51.2532 40.9933L51.586 40.3906L54.8266 42.1897L53.7022 44.2384L53.2524 43.9843Z" fill="#F2F2F2"/>
<path d="M50.2589 47.3285L49.0445 46.411C48.8842 46.2948 48.7476 46.149 48.642 45.9815C48.5598 45.8522 48.5076 45.7062 48.4891 45.5542C48.4795 45.4008 48.5041 45.2472 48.561 45.1044C48.6114 44.9563 48.6786 44.8144 48.7612 44.6816C48.8377 44.5602 48.9366 44.4162 49.0603 44.2543C49.1808 44.0992 49.3206 43.9602 49.4763 43.8405C49.5297 43.7875 49.5939 43.7468 49.6646 43.7212C49.7353 43.6955 49.8107 43.6856 49.8856 43.6921L48.4891 42.6351L48.9051 42.0864L53.0633 45.2348L52.6472 45.7836L52.3301 45.5429C52.555 45.7791 52.4223 46.2176 51.9478 46.836C51.648 47.2303 51.3481 47.4552 51.0483 47.5107C50.9114 47.5395 50.7698 47.5381 50.6335 47.5067C50.4972 47.4752 50.3694 47.4144 50.2589 47.3285ZM49.4021 45.7993L50.4883 46.6201C50.7604 46.827 50.9786 46.899 51.1427 46.845C51.6024 46.5543 51.9412 46.1069 52.0963 45.5857C52.0963 45.4125 51.9793 45.2236 51.7072 45.0167L50.621 44.1959C50.3736 44.0092 50.1712 43.9462 50.0071 44.0137C49.7698 44.1465 49.569 44.3357 49.4224 44.5647C49.2433 44.765 49.1172 45.007 49.0558 45.2686C49.0401 45.4327 49.1547 45.6104 49.4021 45.7993Z" fill="#F2F2F2"/>
<path d="M45.3767 48.3204L45.858 47.8706L46.1031 48.1135C45.9532 47.8691 46.1248 47.5093 46.6181 47.034C46.9869 46.6832 47.2927 46.4943 47.5446 46.4718C47.7965 46.4493 48.0821 46.609 48.4104 46.9531C48.6938 47.2522 48.8242 47.522 48.7972 47.7604C48.7702 47.9988 48.5723 48.3001 48.1878 48.66L47.3849 49.4246L47.792 49.8518C47.8399 49.9158 47.9045 49.9653 47.9786 49.9951C48.0528 50.0248 48.1337 50.0336 48.2125 50.0205C48.4362 49.9306 48.6362 49.7906 48.7972 49.6112C49.1033 49.3164 49.3895 49.0016 49.654 48.6689L50.0026 49.0355C49.6668 49.4148 49.3519 49.7454 49.0581 50.0273C48.6083 50.456 48.265 50.6809 48.0281 50.7019C47.792 50.7199 47.5086 50.5557 47.1825 50.2139L45.3767 48.3204ZM46.382 48.3766L47.0881 49.1187L47.8572 48.3856C48.0821 48.1607 48.2013 48.0033 48.2035 47.8886C48.1603 47.6981 48.0551 47.5272 47.9044 47.4028C47.7826 47.2499 47.6158 47.139 47.4277 47.0857C47.2927 47.0655 47.1286 47.1487 46.9329 47.3354L46.8317 47.4298C46.7373 47.5213 46.6586 47.5962 46.5956 47.6547C46.527 47.7295 46.4638 47.8092 46.4067 47.8931C46.3486 47.9681 46.3121 48.0575 46.301 48.1517C46.2958 48.1929 46.3004 48.2348 46.3145 48.2739C46.3285 48.313 46.3517 48.3482 46.382 48.3766Z" fill="#F2F2F2"/>
<path d="M41.9719 50.7557L42.5409 50.3667L43.4764 51.7362L44.9787 50.7108L44.0431 49.3412L44.6121 48.9521L46.699 52.0084L46.1323 52.3862L45.2643 51.1178L43.762 52.1613L44.6301 53.4296L44.0611 53.8187L41.9719 50.7557Z" fill="#F2F2F2"/>
<path d="M40.3055 51.6214L41.1173 51.248L42.6623 54.6101L42.0731 54.8822L40.825 52.1611L40.4044 55.6446L39.5926 56.0179L38.0476 52.6446L38.6368 52.3747L39.9142 55.1543L40.3055 51.6214Z" fill="#F2F2F2"/>
<path d="M34.0356 53.8143L34.6856 53.6411L35.1353 55.2805C35.1128 54.9207 35.4637 54.6441 36.1878 54.4507C36.6601 54.3233 37.0079 54.3233 37.2313 54.4507C37.3539 54.5285 37.4591 54.6308 37.5404 54.7511C37.6217 54.8715 37.6772 55.0073 37.7035 55.1501L38.0858 56.5669L37.4112 56.7468L37.0401 55.366C37.0236 55.2877 36.9964 55.212 36.9592 55.1411C36.9234 55.08 36.8751 55.0271 36.8175 54.9859C36.7379 54.9306 36.6421 54.9037 36.5454 54.9095C36.3992 54.9093 36.2537 54.9305 36.1136 54.9724C35.8402 55.0208 35.583 55.1359 35.3647 55.3075C35.308 55.38 35.2713 55.4662 35.2582 55.5574C35.2452 55.6485 35.2563 55.7415 35.2905 55.827L35.6616 57.2078L34.9982 57.3877L34.0356 53.8143Z" fill="#F2F2F2"/>
<path d="M30.1989 55.984L32.6727 55.7276L32.6165 55.1721C32.6144 55.0627 32.582 54.9559 32.5228 54.8638C32.4636 54.7717 32.3801 54.6978 32.2814 54.6504C32.0072 54.5511 31.712 54.5247 31.4246 54.5739C31.0163 54.6269 30.616 54.7296 30.2327 54.8798L30.1787 54.3558C30.6363 54.2073 31.1081 54.107 31.5865 54.0567C31.9857 53.997 32.3936 54.0492 32.7649 54.2074C32.9201 54.2798 33.0522 54.3938 33.1467 54.5367C33.2411 54.6796 33.2942 54.8458 33.3001 55.017L33.4508 56.4697C33.4958 56.9195 33.4013 57.2546 33.163 57.475C32.9246 57.6954 32.5198 57.8348 31.9531 57.8932C31.4193 57.9472 31.0205 57.8948 30.7567 57.7358C30.4928 57.5769 30.3361 57.2643 30.2867 56.7981L30.1989 55.984ZM30.9298 56.3618L30.9906 56.9397C30.9892 57.0285 31.0117 57.1159 31.0556 57.193C31.0995 57.2701 31.1632 57.3341 31.2402 57.3783C31.4564 57.4549 31.6889 57.4743 31.9148 57.4345C32.151 57.4224 32.3814 57.3579 32.5895 57.2456C32.6626 57.1888 32.718 57.1122 32.7491 57.0249C32.7802 56.9377 32.7857 56.8434 32.7649 56.7531L32.7042 56.1751L30.9298 56.3618Z" fill="#F2F2F2"/>
<path d="M25.9848 54.1377L26.6729 54.1782L26.5785 55.8333L28.3955 55.9368L28.49 54.2816L29.1647 54.3199L28.9668 58.008L28.2786 57.9698L28.3663 56.4338L26.5492 56.3303L26.4615 57.8663L25.7869 57.8258L25.9848 54.1377Z" fill="#F2F2F2"/>
<path d="M21.8875 53.2852L22.5621 53.4381L22.1933 55.055L23.9677 55.4598L24.3365 53.8406L25.0112 53.9935L24.1903 57.603L23.5157 57.45L23.8552 55.9501L22.0809 55.5475L21.7413 57.0453L21.0667 56.8923L21.8875 53.2852Z" fill="#F2F2F2"/>
<path d="M16.9848 54.021L17.4728 52.8358C17.5402 52.6503 17.64 52.4782 17.7674 52.3276C17.8594 52.2175 17.9746 52.1291 18.1048 52.069C18.2382 52.0189 18.3821 52.0034 18.5231 52.024C18.6757 52.0418 18.8263 52.0741 18.9728 52.1207C19.1123 52.1679 19.2922 52.2354 19.5126 52.3253C19.7345 52.413 19.9515 52.5129 20.1625 52.6244C20.3186 52.7127 20.4597 52.825 20.5808 52.9573C20.7067 53.0894 20.7768 53.265 20.7764 53.4475C20.7685 53.6805 20.715 53.9097 20.619 54.1222L20.14 55.3096C20.0658 55.5057 19.9594 55.6881 19.8251 55.8493C19.7294 55.9644 19.6117 56.0592 19.4788 56.1282C19.3456 56.185 19.1992 56.2037 19.056 56.1821C18.9033 56.1684 18.7525 56.1382 18.6063 56.0922C18.4736 56.0494 18.2914 55.9797 18.0665 55.8875C17.8416 55.7953 17.664 55.7166 17.5381 55.6626C17.3999 55.5925 17.2696 55.508 17.149 55.4108C17.0326 55.324 16.9417 55.2075 16.8859 55.0734C16.8391 54.9284 16.8222 54.7754 16.8364 54.6237C16.8526 54.416 16.9027 54.2124 16.9848 54.021ZM18.161 53.0067L17.592 54.3943C17.4638 54.7091 17.4458 54.9318 17.5425 55.0689C17.737 55.2592 17.9735 55.4009 18.2329 55.4827C18.4757 55.6054 18.7436 55.6701 19.0156 55.6716C19.173 55.6492 19.3169 55.4782 19.4473 55.1634L20.0163 53.7669C20.071 53.6461 20.1045 53.5167 20.1152 53.3845C20.1173 53.3347 20.109 53.285 20.0908 53.2385C20.0726 53.192 20.0449 53.1499 20.0095 53.1147C19.9392 53.0388 19.8563 52.9757 19.7644 52.928C19.6745 52.8808 19.5395 52.8178 19.3529 52.7436C19.1662 52.6694 19.029 52.6154 18.9301 52.5862C18.831 52.5565 18.7276 52.5436 18.6242 52.548C18.5745 52.5482 18.5253 52.5589 18.4799 52.5794C18.4346 52.6 18.3941 52.6299 18.3611 52.6672C18.2749 52.7677 18.2072 52.8826 18.161 53.0067Z" fill="#F2F2F2"/>
<path d="M11.9204 54.2212C11.9956 54.1116 12.0917 54.018 12.2033 53.9458C12.3148 53.8736 12.4396 53.8243 12.5703 53.8006C12.8329 53.752 13.1042 53.8059 13.3282 53.9513C13.5606 54.0881 13.732 54.3085 13.8072 54.5675C13.8447 54.6946 13.8557 54.8281 13.8394 54.9596C13.8232 55.0911 13.7801 55.2179 13.7128 55.3321L13.155 54.9858C13.195 54.8394 13.2079 54.687 13.1933 54.536C13.1437 54.4216 13.0591 54.3259 12.9515 54.2628C12.844 54.1997 12.7191 54.1725 12.5951 54.1852C12.449 54.2257 12.3158 54.3032 12.2083 54.4101L11.9204 54.2212ZM16.3911 50.8838L17.1513 51.3539L15.2015 54.5023L14.6483 54.1604L16.2225 51.6192L13.0876 53.1934L12.3275 52.7212L14.275 49.5728L14.8214 49.9123L13.2113 52.512L16.3911 50.8838Z" fill="#F2F2F2"/>
<path d="M8.14684 47.3079L9.05988 46.4084C9.19611 46.2659 9.35586 46.148 9.53214 46.0598C9.65934 45.9933 9.80018 45.9571 9.94368 45.9541C10.0863 45.9598 10.225 46.0024 10.3462 46.0778C10.482 46.1536 10.6101 46.2424 10.7285 46.3432C10.8387 46.4399 10.9759 46.568 11.1446 46.7435C11.3145 46.9107 11.4751 47.0872 11.6258 47.2719C11.7349 47.4145 11.8214 47.5731 11.8822 47.7419C11.9495 47.9109 11.9495 48.0992 11.8822 48.2682C11.7824 48.4796 11.6426 48.6697 11.4707 48.8281L10.5576 49.7277C10.413 49.8804 10.2434 50.0074 10.0561 50.1033C9.92334 50.1721 9.778 50.2135 9.62884 50.2247C9.48392 50.2236 9.34191 50.184 9.2173 50.11C9.08072 50.0364 8.95254 49.9482 8.83499 49.8469C8.72929 49.7547 8.58986 49.622 8.41895 49.4488C8.24804 49.2757 8.11535 49.134 8.02315 49.0283C7.92341 48.9094 7.83741 48.7797 7.76678 48.6415C7.6918 48.5174 7.65286 48.3749 7.65434 48.23C7.66639 48.0811 7.70928 47.9363 7.78027 47.8049C7.87522 47.6208 7.99897 47.453 8.14684 47.3079ZM9.62659 46.8334L8.56063 47.8881C8.31775 48.1288 8.21655 48.3267 8.25478 48.4818C8.3595 48.7329 8.52118 48.9562 8.72704 49.134C8.90262 49.342 9.12442 49.506 9.37472 49.613C9.52989 49.6535 9.72779 49.5523 9.97067 49.3117L11.0344 48.2569C11.1319 48.1673 11.2133 48.0616 11.275 47.9443C11.2951 47.899 11.3055 47.85 11.3055 47.8004C11.3055 47.7508 11.2951 47.7018 11.275 47.6565C11.2389 47.5596 11.1873 47.4692 11.1221 47.3889C11.0569 47.3079 10.9557 47.1977 10.8162 47.056C10.6768 46.9144 10.5666 46.8109 10.4879 46.7457C10.4077 46.6798 10.3173 46.6274 10.2203 46.5905C10.175 46.5704 10.1259 46.5601 10.0764 46.5601C10.0268 46.5601 9.97776 46.5704 9.93243 46.5905C9.8171 46.653 9.71359 46.7352 9.62659 46.8334Z" fill="#F2F2F2"/>
<path d="M4.98498 44.3219L5.8328 45.4913L8.41899 43.6157L8.82378 44.1712L6.23984 46.0512L7.09441 47.2274L6.68512 47.5242L4.57568 44.6232L4.98498 44.3219Z" fill="#F2F2F2"/>
<path d="M4.69259 39.5134L4.89049 39.4122C5.0143 39.3317 5.15745 39.2859 5.30499 39.2796C5.45253 39.2732 5.59907 39.3066 5.72932 39.3762C5.9542 39.5179 6.21732 39.8575 6.49168 40.3994L7.25405 41.8904L3.95722 43.5726L3.21959 42.1288C3.09557 41.8947 2.99247 41.6502 2.91149 41.3979C2.85646 41.2449 2.84786 41.0791 2.88676 40.9212C2.91734 40.8149 2.97554 40.7187 3.05542 40.6423C3.15097 40.5606 3.25682 40.4918 3.37026 40.4377L3.4872 40.3792C3.55634 40.3353 3.63426 40.3072 3.71547 40.2967C3.79668 40.2862 3.8792 40.2936 3.95722 40.3185C4.1258 40.3984 4.27187 40.5189 4.38225 40.6693L4.40924 40.6558C4.22633 40.0801 4.32078 39.6993 4.69259 39.5134ZM3.76381 40.9751L3.72333 40.9954C3.55242 41.0831 3.45572 41.1843 3.43998 41.2945C3.44803 41.5024 3.51171 41.7043 3.62438 41.8792L4.07416 42.7428L5.04117 42.2503L4.59139 41.3642C4.45197 41.0928 4.32828 40.9354 4.22033 40.8919C4.14264 40.8732 4.0619 40.871 3.98328 40.8853C3.90466 40.8996 3.82991 40.9302 3.76381 40.9751ZM5.18959 40.0509L4.96471 40.1611C4.90848 40.1891 4.85989 40.2303 4.82307 40.2813C4.78626 40.3322 4.76232 40.3912 4.75331 40.4534C4.75602 40.6821 4.8222 40.9056 4.94447 41.0988L5.43472 42.0411L6.49843 41.4991L6.03292 40.5861C5.94472 40.366 5.80424 40.1707 5.62362 40.0171C5.55434 39.9856 5.47817 39.9721 5.40225 39.978C5.32634 39.9839 5.25317 40.009 5.18959 40.0509Z" fill="#F2F2F2"/>
<path d="M2.90463 35.7915L3.66925 38.1573L4.19998 37.9841C4.3085 37.9613 4.40835 37.9082 4.48795 37.831C4.56755 37.7538 4.62365 37.6556 4.64975 37.5478C4.68935 37.2588 4.65372 36.9645 4.5463 36.6933C4.40962 36.3054 4.2253 35.936 3.99758 35.5936L4.49908 35.4316C4.74044 35.8475 4.93719 36.2877 5.08603 36.745C5.22658 37.1236 5.26004 37.5337 5.18273 37.9301C5.14482 38.0962 5.06175 38.2486 4.94269 38.3704C4.82363 38.4922 4.67323 38.5788 4.50807 38.6205L3.11827 39.0703C2.68649 39.2097 2.33792 39.1857 2.07255 38.9983C1.80044 38.8094 1.57556 38.4429 1.40014 37.9009C1.23598 37.3926 1.20449 36.9901 1.30569 36.6978C1.40689 36.4054 1.679 36.1873 2.12653 36.0433L2.90463 35.7915ZM2.67975 36.5853L2.12653 36.763C2.04128 36.7811 1.96223 36.8211 1.89717 36.8791C1.8321 36.937 1.78326 37.011 1.75546 37.0935C1.72588 37.322 1.7553 37.5543 1.84092 37.7682C1.90098 38.0004 2.01328 38.2157 2.16925 38.3979C2.23963 38.458 2.32586 38.4966 2.4176 38.509C2.50934 38.5213 2.6027 38.507 2.68649 38.4676L3.23971 38.2877L2.67975 36.5853Z" fill="#F2F2F2"/>
<path d="M0.675991 31.9775L0.91662 33.4033L4.06503 32.8703L4.17972 33.545L1.03131 34.078L1.28318 35.5195L0.783937 35.605L0.187988 32.0607L0.675991 31.9775Z" fill="#F2F2F2"/>
<path d="M3.71879 28.1616C3.80553 28.5501 3.85225 28.9465 3.85822 29.3445C3.85822 29.5694 3.85822 29.7426 3.85822 29.8685C3.85025 30.0134 3.82841 30.1573 3.793 30.298C3.76541 30.4345 3.70436 30.562 3.61534 30.6691C3.51573 30.7682 3.39613 30.8448 3.26452 30.894C3.08168 30.9651 2.88724 31.0017 2.69106 31.0019L1.32825 31.0357C1.15099 31.0438 0.973417 31.0294 0.799765 30.9929C0.67167 30.9657 0.552077 30.9078 0.451191 30.8243C0.365379 30.7532 0.289713 30.6707 0.226305 30.5791C0.159207 30.4718 0.115527 30.3515 0.0981201 30.2261C0.0711337 30.0777 0.0531428 29.945 0.0418985 29.8303C0.0306542 29.7156 0.00141898 29.5627 0.00141898 29.367C-0.00694653 29.0127 0.0216942 28.6584 0.0868757 28.31L0.59287 28.2966C0.503903 28.6737 0.463099 29.0606 0.471431 29.448C0.452691 29.7064 0.501517 29.9652 0.613109 30.1991C0.698566 30.307 0.898715 30.3565 1.21356 30.3475L2.74278 30.307C2.84056 30.3189 2.93976 30.3064 3.03156 30.2707C3.12336 30.235 3.20493 30.1772 3.26902 30.1024C3.36964 29.8467 3.40594 29.5703 3.37471 29.2973C3.36228 28.9204 3.30336 28.5465 3.1993 28.1841L3.71879 28.1616Z" fill="#F2F2F2"/>
<path d="M0.984186 23.9398L0.815521 25.3746L3.99091 25.7457L3.90996 26.4203L0.736811 26.0582L0.568147 27.502L0.0666504 27.4435L0.48269 23.8813L0.984186 23.9398Z" fill="#F2F2F2"/>
<path d="M4.03365 20.2114L4.24729 20.2698C4.39274 20.2948 4.52887 20.3583 4.64156 20.4535C4.75425 20.5488 4.83941 20.6725 4.88822 20.8118C4.96168 21.0742 4.9167 21.4977 4.75328 22.0824L4.30351 23.6926L0.736816 22.7009L1.18659 21.1402C1.25316 20.8842 1.34351 20.635 1.45645 20.3958C1.51838 20.2451 1.62515 20.1171 1.7623 20.0292C1.85673 19.9737 1.96324 19.9421 2.07264 19.937C2.19866 19.9423 2.32343 19.9642 2.4437 20.0022L2.56964 20.0382C2.6501 20.0533 2.72635 20.0856 2.79312 20.133C2.85989 20.1803 2.91561 20.2416 2.95644 20.3126C3.02432 20.4862 3.04902 20.6737 3.02841 20.859H3.05764C3.30277 20.3126 3.6311 20.0967 4.03365 20.2114ZM2.36049 20.6611H2.31552C2.25062 20.6308 2.17942 20.6164 2.10784 20.6191C2.03626 20.6219 1.96636 20.6417 1.90398 20.6769C1.77081 20.8323 1.68085 21.02 1.64311 21.2211L1.37999 22.1566L2.42571 22.4512L2.70007 21.4932C2.77519 21.3053 2.79089 21.0989 2.74505 20.9018C2.70117 20.8363 2.64447 20.7804 2.57837 20.7375C2.51227 20.6946 2.43815 20.6656 2.36049 20.6521V20.6611ZM4.03365 20.9512L3.79752 20.8838C3.73728 20.8658 3.67356 20.863 3.61197 20.8756C3.55039 20.8881 3.49285 20.9157 3.44445 20.9557C3.2929 21.1224 3.19087 21.328 3.14985 21.5494L2.86199 22.5727L4.01116 22.8965L4.28777 21.9093C4.3731 21.6859 4.40319 21.4452 4.37548 21.2076C4.34541 21.1382 4.29832 21.0775 4.23857 21.0311C4.17882 20.9847 4.10834 20.9542 4.03365 20.9423V20.9512Z" fill="#F2F2F2"/>
<path d="M5.24791 16.2648L4.20219 18.5137L4.71043 18.7386C4.80509 18.7934 4.91322 18.8205 5.02255 18.817C5.13187 18.8134 5.238 18.7792 5.32887 18.7183C5.55378 18.5325 5.72787 18.2926 5.83486 18.0212C5.99613 17.6474 6.11166 17.2555 6.17894 16.854L6.65795 17.0789C6.5507 17.5435 6.39545 17.9957 6.19468 18.4282C6.04084 18.8021 5.78723 19.1265 5.46155 19.366C5.31943 19.4613 5.15385 19.5157 4.98291 19.5232C4.81197 19.5307 4.64224 19.4911 4.49229 19.4087L3.16771 18.7948C2.99528 18.7354 2.83987 18.635 2.71489 18.5022C2.58991 18.3694 2.49911 18.2081 2.45033 18.0324C2.38511 17.7153 2.47281 17.2993 2.71119 16.7798C2.93608 16.2941 3.18495 15.9785 3.45781 15.833C3.73068 15.6876 4.08 15.7131 4.50578 15.9095L5.24791 16.2648ZM4.55076 16.6989L4.02228 16.456C3.94551 16.4111 3.8582 16.3875 3.76928 16.3875C3.68037 16.3875 3.59305 16.4111 3.51629 16.456C3.33927 16.6036 3.20301 16.794 3.12049 17.0092C3.00934 17.2176 2.9456 17.448 2.93383 17.6839C2.94521 17.7757 2.98257 17.8624 3.04154 17.9337C3.1005 18.005 3.1786 18.058 3.26666 18.0864L3.7929 18.3293L4.55076 16.6989Z" fill="#F2F2F2"/>
<path d="M8.99675 13.5796L8.6077 14.1553L7.2314 13.2288L6.21491 14.74L7.59121 15.6665L7.19766 16.2332L4.13696 14.1665L4.52152 13.5953L5.79662 14.4544L6.81311 12.9432L5.53576 12.0863L5.92031 11.5151L8.99675 13.5796Z" fill="#F2F2F2"/>
<path d="M11.8101 10.4852L11.3356 10.9844L10.1324 9.84424L8.8798 11.1643L10.0852 12.3067L9.61068 12.806L6.92554 10.2603L7.3978 9.76103L8.52223 10.818L9.77484 9.49567L8.65041 8.4387L9.12268 7.93945L11.8101 10.4852Z" fill="#F2F2F2"/>
<path d="M13.6813 5.89781L14.4549 6.92329C14.5782 7.07745 14.674 7.25165 14.7382 7.43828C14.7861 7.57298 14.8037 7.71654 14.79 7.85882C14.7635 7.99906 14.7024 8.13047 14.6123 8.24112C14.5203 8.3663 14.4147 8.48094 14.2975 8.58295C14.1873 8.67965 14.0366 8.80784 13.8477 8.94277C13.6589 9.0892 13.4622 9.22509 13.2585 9.34981C13.1037 9.43997 12.935 9.5038 12.7593 9.53872C12.5821 9.58008 12.3959 9.55105 12.2398 9.45776C12.041 9.33514 11.8689 9.17376 11.7338 8.98325L10.9602 7.95777C10.8294 7.79284 10.7268 7.60743 10.6566 7.40904C10.6041 7.26523 10.5827 7.11196 10.5936 6.95927C10.613 6.81587 10.6713 6.68054 10.7623 6.56797C10.8529 6.44238 10.957 6.32701 11.0726 6.22389C11.1783 6.12944 11.329 5.99901 11.5224 5.86408C11.7158 5.72914 11.8732 5.60321 11.9924 5.52675C12.123 5.44379 12.2626 5.37589 12.4084 5.32435C12.5415 5.26717 12.6878 5.24772 12.8312 5.26813C12.9769 5.30135 13.1145 5.36327 13.236 5.45029C13.4089 5.57296 13.5595 5.72432 13.6813 5.89781ZM13.9444 7.42704L13.0449 6.23064C12.838 5.95853 12.6558 5.83034 12.4984 5.84833C12.2357 5.91882 11.9931 6.04974 11.79 6.23064C11.5664 6.37772 11.3801 6.57482 11.2458 6.80635C11.185 6.95477 11.2458 7.16392 11.4707 7.43828L12.3702 8.63467C12.4471 8.74236 12.5414 8.83658 12.6491 8.91353C12.6906 8.94114 12.7376 8.95962 12.7868 8.96776C12.836 8.9759 12.8864 8.97352 12.9347 8.96076C13.0351 8.93708 13.1314 8.89842 13.2203 8.84607C13.308 8.79209 13.4317 8.70439 13.5891 8.5852C13.7053 8.49864 13.8172 8.40633 13.9242 8.30859C14.0006 8.23848 14.0651 8.15646 14.1153 8.06571C14.1397 8.02234 14.1551 7.97447 14.1605 7.925C14.1659 7.87553 14.1612 7.82548 14.1468 7.77786C14.0999 7.65021 14.0314 7.53155 13.9444 7.42704Z" fill="#F2F2F2"/>
<path d="M18.2621 6.10671C17.956 6.36069 17.6244 6.58226 17.2726 6.76788C17.0747 6.87357 16.9195 6.95453 16.8048 7.00625C16.6729 7.06643 16.5349 7.11242 16.3933 7.14344C16.2594 7.18268 16.1176 7.18656 15.9817 7.15468C15.8477 7.11124 15.7243 7.03997 15.6197 6.94554C15.4724 6.81552 15.3518 6.6582 15.2644 6.48227L14.6189 5.28588C14.5318 5.13129 14.4638 4.96666 14.4165 4.79562C14.3781 4.66575 14.3704 4.5287 14.394 4.39533C14.4192 4.28503 14.4585 4.17845 14.511 4.07824C14.5783 3.97175 14.6671 3.88058 14.7719 3.81062C14.891 3.71842 14.9967 3.64196 15.0979 3.58574C15.1991 3.52951 15.3228 3.44856 15.5005 3.36085C15.8119 3.19117 16.1406 3.05546 16.481 2.95605L16.7216 3.40583C16.348 3.49587 15.9875 3.63342 15.6489 3.81512C15.412 3.9085 15.2035 4.06196 15.044 4.26039C14.9877 4.38633 15.044 4.58648 15.1856 4.86309L15.9143 6.21241C16.0447 6.44854 16.1841 6.57447 16.3371 6.58797C16.6077 6.55869 16.8671 6.46374 17.0927 6.31136C17.4233 6.12977 17.73 5.90767 18.0057 5.65019L18.2621 6.10671Z" fill="#F2F2F2"/>
<path d="M20.774 1.75088L19.4247 2.25462L20.5491 5.25011L19.9037 5.49073L18.7793 2.49525L17.412 3.00124L17.2366 2.52898L20.5964 1.27637L20.774 1.75088Z" fill="#F2F2F2"/>
<path d="M24.2193 4.24014L22.5125 4.59546L21.7568 0.97254L22.445 0.828613L22.7149 2.1397L23.7921 1.91481C24.1172 1.82426 24.4586 1.80888 24.7906 1.86984C24.908 1.91197 25.0109 1.98691 25.087 2.08576C25.1632 2.18462 25.2093 2.30324 25.2201 2.42755L25.3753 3.17643C25.4899 3.70041 25.1031 4.05348 24.2193 4.24014ZM24.7028 3.22365L24.6061 2.77388C24.5995 2.69558 24.5759 2.61966 24.5371 2.55134C24.4983 2.48301 24.4451 2.4239 24.3813 2.37808C24.1889 2.32293 23.9844 2.32684 23.7943 2.38932L22.7981 2.59622L23.0972 4.02649L24.0777 3.82185C24.1676 3.80161 24.2418 3.78362 24.3025 3.76338C24.3748 3.73696 24.4454 3.70617 24.5139 3.67117C24.59 3.63638 24.6496 3.57353 24.6804 3.49576C24.7159 3.40958 24.7237 3.31449 24.7028 3.22365Z" fill="#F2F2F2"/>
<path d="M26.9676 3.81057H26.2794L26.2322 0.108945H26.9203L26.9406 1.77535H27.9053V1.35481C27.8983 1.14489 27.9256 0.935221 27.9863 0.734128C28.0282 0.589948 28.0994 0.455968 28.1954 0.340578C28.2958 0.233684 28.4233 0.155971 28.5642 0.115691C28.7105 0.0690073 28.8612 0.038097 29.014 0.0234881C29.1557 0.00999494 29.3469 0.00324836 29.592 0.000999494C29.8371 -0.00124937 30.0283 0.000999494 30.1699 0.000999494C30.3224 0.0127639 30.4731 0.0406557 30.6197 0.0842074C30.7603 0.117586 30.8893 0.188287 30.993 0.288854C31.0926 0.401843 31.169 0.533259 31.2179 0.675658C31.2834 0.875204 31.3161 1.08407 31.3146 1.2941L31.3303 2.5782C31.3375 2.77525 31.3117 2.97212 31.2539 3.16065C31.2126 3.29767 31.1411 3.42369 31.0447 3.52946C30.9412 3.62798 30.8143 3.69842 30.6759 3.73411C30.5295 3.77947 30.3788 3.80961 30.2262 3.82406C30.0822 3.83531 29.8888 3.8443 29.6504 3.84655C29.4118 3.85383 29.173 3.84632 28.9353 3.82406C28.7573 3.80405 28.5835 3.75624 28.4203 3.68239C28.2533 3.61022 28.1204 3.47655 28.0493 3.30908C27.9639 3.09075 27.9234 2.85749 27.9301 2.62317V2.1734L26.9676 2.18689V3.81057ZM30.6242 2.68614L30.604 1.1884C30.604 0.846572 30.5275 0.635179 30.3791 0.556468C30.1251 0.458146 29.852 0.419669 29.5807 0.444025C29.3101 0.425391 29.0389 0.470849 28.7891 0.576708C28.652 0.659916 28.5867 0.873558 28.589 1.21314L28.6092 2.71313C28.607 2.84516 28.6268 2.97663 28.6677 3.10218C28.6845 3.14922 28.7113 3.19207 28.7462 3.22778C28.7812 3.2635 28.8234 3.29123 28.8701 3.30908C28.9648 3.35103 29.0659 3.37687 29.1692 3.38554C29.319 3.39343 29.4691 3.39343 29.619 3.38554C29.8184 3.38554 29.9683 3.37879 30.0687 3.3653C30.1714 3.35292 30.2715 3.32486 30.3656 3.28209C30.4112 3.26198 30.4522 3.23261 30.4859 3.19583C30.5195 3.15905 30.5452 3.11567 30.5612 3.06845C30.6034 2.94541 30.6247 2.81619 30.6242 2.68614Z" fill="#F2F2F2"/>
<path d="M36.0484 9.92992L35.72 9.81073L35.5896 8.82798L36.3227 8.15332L36.6488 8.27251L35.9517 8.94717L36.0484 9.92992ZM36.7815 10.1953L36.4532 10.0761L36.3227 9.09334L37.0536 8.41869L37.3819 8.53788L36.6848 9.21253L36.7815 10.1953Z" fill="#F2F2F2"/>
<path d="M39.9885 9.4326L39.7141 9.98582C39.6734 10.087 39.6041 10.1741 39.5146 10.2364C39.4251 10.2987 39.3194 10.3336 39.2104 10.3366C38.9227 10.3284 38.6412 10.2513 38.3895 10.1118L37.9915 9.91386L37.5147 10.8741L37.1077 10.6807L38.43 8.01807L39.3003 8.44985C39.4105 8.50382 39.5027 8.5533 39.5792 8.59827C39.6586 8.64654 39.7339 8.70146 39.8041 8.76244C39.872 8.81545 39.9299 8.88019 39.975 8.95359C40.0118 9.02294 40.0318 9.09997 40.0334 9.17848C40.04 9.26562 40.0245 9.353 39.9885 9.4326ZM39.334 9.77218L39.5814 9.29767C39.6158 9.2329 39.6277 9.15853 39.6151 9.08628C39.5971 9.01498 39.5569 8.95122 39.5005 8.90412C39.4502 8.85819 39.3961 8.8168 39.3385 8.78043C39.2822 8.74505 39.2236 8.7135 39.1631 8.68598L38.7134 8.46109L38.1129 9.65749L38.5627 9.88237C38.701 9.95646 38.8555 9.9951 39.0125 9.99482C39.0811 9.99485 39.1483 9.9746 39.2055 9.93659C39.2627 9.89858 39.3074 9.84451 39.334 9.78117V9.77218Z" fill="#F2F2F2"/>
<path d="M41.1802 13.0446L40.7934 12.7905L41.0026 11.8505L39.9366 11.1511L39.163 11.7245L38.7942 11.4839L41.4141 9.64209L41.8436 9.9232L41.1802 13.0446ZM41.079 11.5334L41.3939 10.1346L41.3601 10.1121L40.202 10.9577L41.079 11.5334Z" fill="#F2F2F2"/>
<path d="M42.9749 14.5671C42.7267 14.432 42.4937 14.2707 42.28 14.0859C41.6503 13.5371 41.5124 13.0604 41.8662 12.6556L42.7928 11.5896C43.1661 11.1623 43.6668 11.2223 44.295 11.7695C44.502 11.949 44.689 12.1503 44.8527 12.37L44.6278 12.6196C44.4751 12.3946 44.2953 12.1892 44.0926 12.0079C44.0156 11.9397 43.9337 11.8774 43.8475 11.8212C43.7791 11.7747 43.706 11.7355 43.6293 11.7043C43.5454 11.6762 43.4546 11.6762 43.3707 11.7043C43.2782 11.737 43.1965 11.7946 43.1346 11.8707L42.2193 12.9209C41.9944 13.1796 42.0979 13.4966 42.5251 13.87C42.7311 14.0465 42.9576 14.1975 43.1998 14.3197L42.9749 14.5671Z" fill="#F2F2F2"/>
<path d="M45.4825 12.9341L45.7726 13.2557L44.8258 14.0877C44.6414 14.2482 44.6684 14.4641 44.9068 14.7354C45.0148 14.8817 45.1578 14.9985 45.3228 15.075C45.3755 15.0898 45.4312 15.0904 45.4842 15.0765C45.5371 15.0627 45.5854 15.035 45.6241 14.9963L46.5709 14.1642L46.8633 14.497L44.6302 16.4603L44.3378 16.1275L45.3633 15.2279C45.307 15.2551 45.2443 15.2664 45.182 15.2604C45.1198 15.2545 45.0603 15.2316 45.0102 15.1942C44.8577 15.1001 44.7211 14.9825 44.6054 14.8456C44.2254 14.4138 44.1961 14.0563 44.5132 13.7774L45.4825 12.9341Z" fill="#F2F2F2"/>
<path d="M46.164 18.707L45.0396 17.0046L47.5133 15.3584L48.6197 17.0248L48.3589 17.1957L47.4998 15.9026L46.6902 16.4401L47.4661 17.6073L47.2075 17.7804L46.4316 16.611L45.5321 17.2025L46.4159 18.5338L46.164 18.707Z" fill="#F2F2F2"/>
<path d="M49.7619 19.9533L49.3121 19.0537L46.9283 20.2276L46.7327 19.8228L49.1255 18.6534L48.6757 17.7539L48.9545 17.6167L50.0362 19.8273L49.7619 19.9533Z" fill="#F2F2F2"/>
<path d="M48.2665 23.8368L48.1316 23.414L49.4449 22.9935L48.9659 21.489L47.6503 21.9073L47.5154 21.4845L50.3489 20.585L50.4839 21.0077L49.2627 21.399L49.7418 22.9035L50.9651 22.5145L51.1001 22.9373L48.2665 23.8368Z" fill="#F2F2F2"/>
<path d="M48.8017 26.9739L48.7298 26.5241L49.5686 26.0473L49.3684 24.7902L48.4262 24.6013L48.3564 24.165L51.4801 24.8689L51.5588 25.3749L48.8017 26.9739ZM49.8542 25.8854L51.1023 25.177V25.1365L49.7013 24.8509L49.8542 25.8854Z" fill="#F2F2F2"/>
<path d="M48.8018 27.6485V27.1021L50.1511 28.0353C50.1417 27.8445 50.187 27.6549 50.2815 27.4889C50.3228 27.4171 50.383 27.3582 50.4557 27.3185C50.5283 27.2789 50.6104 27.26 50.6931 27.264H51.2058C51.298 27.2498 51.3923 27.2637 51.4765 27.3038C51.5607 27.3439 51.6309 27.4084 51.6781 27.4889C51.7741 27.7467 51.817 28.0213 51.804 28.2962L51.8197 29.3397L48.8445 29.3846V28.9349L50.1151 28.9169V28.4851L48.8018 27.6485ZM51.1496 27.6958H50.7358C50.6831 27.6942 50.6308 27.7055 50.5834 27.7286C50.536 27.7517 50.4949 27.786 50.4637 27.8284C50.388 27.9817 50.3576 28.1533 50.376 28.3232V28.9056L51.5004 28.8876V28.2647C51.5004 27.8734 51.3812 27.6823 51.1586 27.6868L51.1496 27.6958Z" fill="#F2F2F2"/>
<path d="M48.2573 33.4639L48.3405 33.0142L49.6898 33.2705L49.9822 31.7166L48.6329 31.4625L48.7161 31.0239L51.6396 31.5749L51.5587 32.0247L50.297 31.7863L50.0047 33.3403L51.2641 33.5764L51.1831 34.0149L48.2573 33.4639Z" fill="#F2F2F2"/>
<path d="M47.3984 36.0299L48.0731 34.0981L50.8842 35.0697L50.232 36.9587L49.9262 36.8687L50.4344 35.4002L49.5191 35.0697L49.0693 36.3942L48.7747 36.293L49.2245 34.9662L48.217 34.6199L47.693 36.1311L47.3984 36.0299Z" fill="#F2F2F2"/>
<path d="M47.2589 38.7938L46.8654 38.5982C46.4808 38.4048 46.4426 37.9955 46.7552 37.3703L47.1892 36.5L49.8519 37.8268L49.1232 39.2886L48.8399 39.1469L49.3706 38.0832L48.5048 37.6537L48.3069 38.0517C48.2394 38.1844 48.1787 38.2968 48.127 38.3845C48.074 38.474 48.0138 38.5589 47.9471 38.6387C47.891 38.7077 47.8233 38.7663 47.7469 38.8118C47.6781 38.8493 47.6003 38.8671 47.5221 38.8636C47.4301 38.8611 47.34 38.8372 47.2589 38.7938ZM47.0768 38.2159L47.4096 38.3823C47.4561 38.4127 47.5104 38.4289 47.5659 38.4289C47.6214 38.4289 47.6757 38.4127 47.7222 38.3823C47.8465 38.2713 47.9441 38.1337 48.0078 37.9798L48.2327 37.53L47.2612 37.0442L47.0363 37.494C47.0003 37.566 46.9733 37.6267 46.9531 37.6762C46.9289 37.7395 46.9109 37.805 46.8991 37.8718C46.8804 37.9467 46.8867 38.0257 46.9171 38.0967C46.9555 38.1536 47.0117 38.1963 47.0768 38.2181V38.2159Z" fill="#F2F2F2"/>
<path d="M44.6143 40.8249L44.8751 40.4426L45.8107 40.6675L46.528 39.6127L45.9703 38.8279L46.2199 38.4658L48.019 41.1172L47.7289 41.5423L44.6143 40.8249ZM46.1277 40.7529L47.5198 41.0925L47.5445 41.0588L46.7192 39.8849L46.1277 40.7529Z" fill="#F2F2F2"/>
<path d="M42.7029 42.8893L43.0065 42.5655L44.014 43.5055L45.0934 42.3519L44.0792 41.4096L44.3828 41.0835L46.5552 43.1075L46.2538 43.4313L45.3138 42.5565L44.2366 43.7124L45.1744 44.5872L44.8708 44.9133L42.7029 42.8893Z" fill="#F2F2F2"/>
<path d="M41.8529 43.6158L42.2037 43.3369L44.0545 45.6667L43.7014 45.9456L42.9008 44.9381C42.8288 44.9882 42.7695 45.0544 42.7277 45.1315C42.7006 45.211 42.6936 45.296 42.7074 45.3789L42.7839 46.13C42.8085 46.2862 42.8032 46.4458 42.7682 46.6C42.6935 46.7313 42.5896 46.8436 42.4646 46.9283L42.3027 47.0565L42.1093 46.8137L42.2914 46.6675C42.3506 46.6222 42.3906 46.5564 42.4039 46.4831C42.4197 46.378 42.4197 46.2711 42.4039 46.166L42.3341 45.6128C42.3187 45.5182 42.3187 45.4217 42.3341 45.3272C42.3465 45.2447 42.3807 45.1671 42.4331 45.1023C42.3274 45.1517 42.0283 45.1338 41.5335 45.0505L40.3057 44.8437L40.7554 44.4906L41.9743 44.7155C42.1479 44.7535 42.3251 44.7731 42.5028 44.7739C42.5838 44.7719 42.6623 44.7453 42.7277 44.6975L41.8529 43.6158Z" fill="#F2F2F2"/>
<path d="M39.1091 48.0369L38.4007 46.8157C38.3236 46.6911 38.286 46.5461 38.2928 46.3997C38.3045 46.2623 38.357 46.1315 38.4435 46.0241C38.5289 45.9155 38.6254 45.8161 38.7313 45.7273C38.8425 45.6373 38.9606 45.5561 39.0844 45.4844C39.804 45.0691 40.2988 45.0931 40.5686 45.5564L41.2748 46.773C41.5611 47.2647 41.3445 47.719 40.6248 48.1358C39.9052 48.5526 39.4 48.5196 39.1091 48.0369ZM38.774 46.6043L39.4869 47.8277C39.6713 48.1448 39.9997 48.165 40.4764 47.8884C40.5651 47.8375 40.65 47.7804 40.7305 47.7175C40.8003 47.6613 40.8616 47.5954 40.9127 47.5219C40.9647 47.4505 40.9938 47.365 40.9959 47.2767C40.9944 47.1786 40.9656 47.0828 40.9127 47.0001L40.2021 45.7745C40.0289 45.4799 39.7051 45.4709 39.2261 45.7475C38.747 46.0241 38.6031 46.3142 38.774 46.6043Z" fill="#F2F2F2"/>
<path d="M35.8954 48.2078L35.711 47.7445C35.6696 47.6619 35.653 47.5691 35.6634 47.4772C35.6738 47.3854 35.7106 47.2986 35.7695 47.2273C35.9675 47.0351 36.2067 46.8906 36.4689 46.8045L37.4854 46.3975L38.5918 49.1591L37.6045 49.5549C37.4178 49.6372 37.2187 49.6881 37.0153 49.7055C36.8987 49.7207 36.7804 49.6953 36.6803 49.6336C36.6031 49.5671 36.5442 49.4819 36.5093 49.3862L36.3609 49.0151C36.3399 48.9681 36.329 48.9171 36.329 48.8656C36.329 48.8141 36.3399 48.7631 36.3609 48.716C36.4124 48.6155 36.4901 48.5308 36.5858 48.4709V48.4552C36.4472 48.4916 36.3016 48.4916 36.163 48.4552C36.1017 48.4387 36.0453 48.4076 35.9987 48.3645C35.952 48.3214 35.9166 48.2676 35.8954 48.2078ZM36.1203 47.5961L36.2867 48.0144C36.3086 48.0776 36.3494 48.1326 36.4036 48.1718C36.4561 48.206 36.5194 48.2196 36.5813 48.21C36.643 48.2051 36.7041 48.1938 36.7635 48.1763C36.8152 48.1606 36.8872 48.1336 36.9884 48.0976L37.5933 47.857L37.1908 46.8472L36.5858 47.0901C36.4331 47.1406 36.2923 47.2217 36.172 47.3285C36.1388 47.3636 36.117 47.408 36.1094 47.4557C36.1018 47.5034 36.1087 47.5524 36.1293 47.5961H36.1203ZM36.7455 48.8735L36.8737 49.195C36.8874 49.2408 36.914 49.2817 36.9503 49.3127C36.9866 49.3438 37.031 49.3639 37.0783 49.3705C37.2191 49.3748 37.3588 49.3447 37.4854 49.2828L38.0611 49.0579L37.6945 48.1133L37.1075 48.3517C36.9741 48.3918 36.8553 48.47 36.7657 48.5766C36.7384 48.6209 36.7229 48.6715 36.721 48.7236C36.719 48.7756 36.7305 48.8272 36.7545 48.8735H36.7455Z" fill="#F2F2F2"/>
<path d="M33.0349 47.8882C33.286 47.7639 33.55 47.6674 33.822 47.6003C34.6316 47.3934 35.1024 47.5509 35.2343 48.0726L35.5806 49.4421C35.7201 49.9931 35.3872 50.3709 34.5776 50.5666C34.3119 50.6343 34.0398 50.6735 33.7658 50.6835L33.6848 50.3642C33.9574 50.3649 34.229 50.334 34.4944 50.272C34.5942 50.2472 34.6919 50.2149 34.7868 50.1753C34.8668 50.1394 34.9423 50.0941 35.0117 50.0403C35.0837 49.9893 35.1367 49.9157 35.1623 49.8312C35.1894 49.7364 35.1894 49.6359 35.1623 49.5411L34.8205 48.1918C34.7351 47.8589 34.418 47.7645 33.867 47.9039C33.6037 47.9751 33.35 48.0778 33.1114 48.2098L33.0349 47.8882Z" fill="#F2F2F2"/>
<path d="M32.0927 47.9804L32.5425 47.9287L32.8933 50.8815L32.4436 50.9354L32.2906 49.6558C32.2028 49.6609 32.1173 49.6863 32.041 49.7301C31.9769 49.7841 31.9268 49.8527 31.8948 49.9302L31.5642 50.6049C31.5053 50.7514 31.4173 50.8845 31.3056 50.9962C31.1732 51.07 31.0253 51.1116 30.8738 51.1176L30.6692 51.1423L30.631 50.832L30.8559 50.805C30.93 50.7958 30.9985 50.7608 31.0493 50.7061C31.1166 50.6236 31.1719 50.532 31.2134 50.4339L31.4383 49.928C31.4743 49.8391 31.5228 49.7558 31.5822 49.6806C31.6372 49.6213 31.706 49.5765 31.7824 49.5501C31.6654 49.5344 31.4203 49.3635 31.0425 49.0329L30.1047 48.2121L30.6692 48.1446L31.5935 48.9677C31.7211 49.0914 31.8613 49.2015 32.0118 49.296C32.0803 49.3342 32.1583 49.3522 32.2367 49.3477L32.0927 47.9804Z" fill="#F2F2F2"/>
<path d="M27.3701 48.1445L27.8334 48.1558L28.1505 49.0666L29.4256 49.0936L29.7809 48.194L30.2307 48.2053L28.9826 51.1513L28.4676 51.14L27.3701 48.1445ZM28.2539 49.3747L28.7284 50.724H28.7689L29.3041 49.3927L28.2539 49.3747Z" fill="#F2F2F2"/>
<path d="M26.7247 48.0327L27.2622 48.1226L26.104 49.2718C26.2931 49.2978 26.4714 49.3756 26.619 49.4967C26.6839 49.5499 26.7326 49.6202 26.7597 49.6997C26.7867 49.7792 26.7909 49.8647 26.7719 49.9464L26.6864 50.4524C26.6829 50.5459 26.6514 50.6361 26.5961 50.7114C26.5408 50.7868 26.4642 50.8438 26.3761 50.8752C26.1054 50.9231 25.8278 50.9162 25.5598 50.855L24.5298 50.6818L25.02 47.7583L25.4698 47.8325L25.2607 49.0851L25.6857 49.1548L26.7247 48.0327ZM26.2569 50.3332L26.3244 49.9262C26.336 49.8746 26.3347 49.8209 26.3205 49.7699C26.3064 49.7189 26.2799 49.6722 26.2434 49.6339C26.1072 49.5324 25.945 49.4716 25.7757 49.4584L25.1999 49.3617L25.0178 50.4659L25.6317 50.5694C26.0118 50.6323 26.2187 50.5536 26.2569 50.3332Z" fill="#F2F2F2"/>
<path d="M22.9756 47.1553L23.3962 47.3104L22.3594 50.099L21.9389 49.9438L22.3887 48.7362C22.3078 48.7013 22.2203 48.6844 22.1323 48.6867C22.049 48.7045 21.9716 48.7432 21.9074 48.7992L21.3025 49.249C21.1824 49.3505 21.0433 49.427 20.8932 49.4738C20.7382 49.4807 20.5838 49.4498 20.4434 49.3839L20.25 49.3119L20.3579 49.0196L20.5828 49.1005C20.6549 49.13 20.7357 49.13 20.8077 49.1005C20.9064 49.0607 20.9977 49.0044 21.0776 48.9341L21.5139 48.5878C21.5863 48.5255 21.6673 48.474 21.7545 48.4349C21.8307 48.407 21.9126 48.3985 21.9929 48.4101C21.8962 48.3449 21.7545 48.0773 21.5701 47.6118L21.1203 46.4536L21.651 46.6515L22.1008 47.8052C22.1575 47.9742 22.233 48.1364 22.3257 48.2887C22.3692 48.3558 22.4319 48.4084 22.5056 48.4394L22.9756 47.1553Z" fill="#F2F2F2"/>
<path d="M18.026 47.5061L18.3161 46.9596C18.3599 46.8599 18.4316 46.775 18.5226 46.7152C18.6136 46.6553 18.7199 46.6231 18.8288 46.6223C19.1163 46.6404 19.3954 46.7268 19.6429 46.8742L20.0365 47.0833L20.5379 46.1343L20.9315 46.3434L19.5372 48.9723L18.6804 48.5226C18.5724 48.4671 18.4802 48.4154 18.4038 48.3674C18.3249 48.3157 18.2498 48.2586 18.1789 48.1965C18.1124 48.1412 18.0568 48.0741 18.0147 47.9986C17.9791 47.929 17.9606 47.8519 17.9608 47.7737C17.9594 47.6804 17.9818 47.5883 18.026 47.5061ZM18.6894 47.1845L18.442 47.6635C18.4051 47.7274 18.3915 47.8021 18.4038 47.8749C18.4179 47.9468 18.4559 48.0118 18.5117 48.0593C18.5606 48.1063 18.6132 48.1491 18.6691 48.1875C18.7141 48.2167 18.7726 48.2505 18.8423 48.2864L19.2921 48.5113L19.9195 47.3262L19.4697 47.0878C19.3327 47.0088 19.1781 46.9655 19.02 46.9619C18.9489 46.9617 18.8794 46.9828 18.8205 47.0225C18.7616 47.0622 18.7159 47.1186 18.6894 47.1845Z" fill="#F2F2F2"/>
<path d="M17.0591 43.9482L18.7277 45.1289L17.0118 47.5577L15.3792 46.404L15.5591 46.1499L16.8297 47.0494L17.3896 46.2556L16.245 45.446L16.4181 45.1896L17.5628 45.9992L18.179 45.1266L16.8724 44.2024L17.0591 43.9482Z" fill="#F2F2F2"/>
<path d="M14.3603 45.547L13.011 44.2696L14.8101 42.3513L14.5852 42.1512L15.3408 41.3506L15.6197 41.6137L15.0979 42.1669L16.5754 43.5612L17.0972 43.008L17.3805 43.2734L16.6429 44.065L16.4562 43.8896C16.1791 43.962 15.9192 44.0889 15.6916 44.2629C15.3301 44.5409 14.9944 44.851 14.6886 45.1894L14.3603 45.547ZM13.5575 44.3191L14.2928 45.0095L14.4368 44.8566C14.7167 44.5553 15.0239 44.2805 15.3543 44.0357C15.589 43.8479 15.8506 43.6963 16.1302 43.586L15.1294 42.6437L13.5575 44.3191Z" fill="#F2F2F2"/>
<path d="M14.2212 41.1551L14.5472 41.5779L12.1927 43.3904L11.9431 43.0689L13.8883 41.5666L10.9648 41.8028L10.6365 41.3777L12.9933 39.5674L13.2429 39.889L11.2662 41.4159L14.2212 41.1551Z" fill="#F2F2F2"/>
<path d="M9.26219 38.3954L9.75244 39.2725L12.0778 37.9727L12.3027 38.3662L9.97733 39.6638L10.4698 40.5431L10.1977 40.696L8.99683 38.5461L9.26219 38.3954Z" fill="#F2F2F2"/>
<path d="M10.5442 34.4355L10.7039 34.8516L9.41306 35.3418L9.97753 36.8193L11.2661 36.3291L11.4235 36.7451L8.64395 37.8021L8.48653 37.3883L9.68518 36.9385L9.12296 35.461L7.92432 35.9108L7.76465 35.497L10.5442 34.4355Z" fill="#F2F2F2"/>
<path d="M9.83584 31.3232L9.93254 31.773L9.1207 32.2925L9.38831 33.5384L10.3418 33.6778L10.434 34.1073L7.28563 33.5744L7.17993 33.0729L9.83584 31.3232ZM8.84409 32.4679L7.64769 33.2415V33.282L9.06673 33.4934L8.84409 32.4679Z" fill="#F2F2F2"/>
<path d="M9.79521 30.6666L9.83344 31.2108L8.44589 30.3472C8.46398 30.5384 8.42814 30.7309 8.34244 30.9027C8.30586 30.9774 8.24929 31.0405 8.17903 31.0849C8.10876 31.1294 8.02754 31.1535 7.94439 31.1546L7.4339 31.1906C7.34208 31.2087 7.24693 31.199 7.16073 31.1625C7.07453 31.126 7.00126 31.0645 6.9504 30.9859C6.83918 30.7344 6.781 30.4626 6.77948 30.1876L6.70752 29.1463L9.67602 28.9395L9.70525 29.3892L8.43914 29.4769L8.46838 29.9087L9.79521 30.6666ZM7.4474 30.7453L7.85894 30.7161C7.91181 30.7156 7.96374 30.7019 8.01006 30.6764C8.05637 30.6509 8.09563 30.6143 8.1243 30.5699C8.19285 30.4146 8.21473 30.2427 8.18727 30.0751L8.14679 29.4927L7.02236 29.5714L7.06509 30.1921C7.10107 30.5721 7.22476 30.761 7.4474 30.7453Z" fill="#F2F2F2"/>
<path d="M7.87239 24.5834L9.27118 24.7633C9.41685 24.7767 9.55457 24.8358 9.66473 24.932C9.7678 25.0242 9.84002 25.1459 9.87163 25.2806C9.90672 25.4144 9.92708 25.5516 9.93234 25.6899C9.93674 25.8327 9.92921 25.9756 9.90986 26.1171C9.80491 26.9402 9.48482 27.315 8.94959 27.2416L7.5553 27.0617C6.99083 26.9875 6.7637 26.5399 6.86939 25.7124C6.97509 24.8848 7.30342 24.5115 7.87239 24.5834ZM9.2217 25.1906L7.81617 25.0085C7.45185 24.9605 7.23521 25.2101 7.16624 25.7573C7.14544 25.8618 7.13341 25.9679 7.13026 26.0744C7.13299 26.1645 7.14812 26.2538 7.17524 26.3398C7.19796 26.4282 7.2484 26.507 7.31917 26.5647C7.39815 26.6228 7.4914 26.6586 7.58903 26.6681L8.99457 26.8503C9.3334 26.8938 9.53804 26.6411 9.60851 26.0924C9.67148 25.5279 9.54329 25.2333 9.20596 25.1906H9.2217Z" fill="#F2F2F2"/>
<path d="M8.39402 21.7138L8.98997 21.8802C9.09894 21.8986 9.19995 21.9491 9.28007 22.0252C9.36019 22.1013 9.41578 22.1996 9.43974 22.3075C9.48409 22.5917 9.46019 22.8823 9.37003 23.1553L9.25084 23.5849L10.2831 23.8705L10.1661 24.2978L7.29883 23.5062L7.55745 22.5684C7.59118 22.4514 7.62042 22.3435 7.6519 22.267C7.68363 22.177 7.72275 22.0898 7.76884 22.0062C7.80684 21.9292 7.85956 21.8604 7.92401 21.8038C7.98437 21.7547 8.05513 21.7201 8.13091 21.7026C8.2182 21.6845 8.30859 21.6884 8.39402 21.7138ZM8.8438 22.2918L8.32206 22.1478C8.25287 22.1239 8.17761 22.1239 8.10842 22.1478C8.04142 22.1781 7.98614 22.2294 7.951 22.294C7.91466 22.3514 7.8845 22.4125 7.86104 22.4762C7.84305 22.5257 7.82281 22.5886 7.80032 22.6651L7.67664 23.1508L8.96973 23.5107L9.10691 23.0204C9.15354 22.8704 9.16205 22.7112 9.13165 22.5571C9.11532 22.4909 9.08039 22.4307 9.03098 22.3837C8.98157 22.3367 8.91974 22.3048 8.85279 22.2918H8.8438Z" fill="#F2F2F2"/>
<path d="M9.07099 19.2782L8.58523 20.4521L11.0477 21.4641L10.8791 21.8756L8.12646 20.7512L8.78313 19.1567L9.07099 19.2782Z" fill="#F2F2F2"/>
<path d="M12.6737 18.1582L12.4488 18.5652L11.493 18.4393L10.8926 19.5637L11.5313 20.2856L11.3289 20.6769L9.2644 18.2257L9.50503 17.7759L12.6737 18.1582ZM11.1759 18.3831L9.75466 18.2032L9.73667 18.2391L10.6812 19.3276L11.1759 18.3831Z" fill="#F2F2F2"/>
<path d="M14.3491 15.8983L14.0837 16.2559L12.9773 15.4283L12.0305 16.6944L13.1347 17.5287L12.8693 17.884L10.4878 16.0962L10.7532 15.7409L11.7809 16.5077L12.7277 15.2416L11.6954 14.4748L11.963 14.1172L14.3491 15.8983Z" fill="#F2F2F2"/>
<path d="M15.17 15.0303L14.7832 15.4014L12.7188 13.256L13.0134 12.9726L14.718 14.7425L14.1693 11.8662L14.5538 11.4951L16.6183 13.636L16.3214 13.9306L14.5876 12.1315L15.17 15.0303Z" fill="#F2F2F2"/>
<path d="M17.9925 11.1642L18.3388 11.6477C18.3999 11.7272 18.4373 11.8223 18.4468 11.9221C18.456 12.0079 18.446 12.0947 18.4175 12.1762C18.3805 12.2586 18.3304 12.3346 18.2691 12.4011C18.2059 12.4755 18.1367 12.5447 18.0622 12.608C17.9948 12.6619 17.916 12.7226 17.8238 12.7879C17.5619 12.9737 17.2843 13.1362 16.994 13.2736L16.7961 12.997C17.0814 12.8859 17.3549 12.7465 17.6125 12.581C17.6867 12.5292 17.7474 12.482 17.7946 12.4438C17.8494 12.396 17.9006 12.3441 17.9475 12.2886C17.9994 12.2351 18.0332 12.1667 18.0442 12.093C18.0552 12.0192 18.0366 11.944 17.9925 11.8838L17.7024 11.4768C17.5945 11.3216 17.3718 11.3643 17.0277 11.6005L16.524 11.9603L16.3576 11.7354L16.8074 11.4228C17.1447 11.1822 17.2571 10.973 17.1424 10.8246L16.8456 10.4108C16.7534 10.2804 16.5442 10.3321 16.2227 10.5615C16.1147 10.638 15.973 10.7481 15.7999 10.8943L15.53 11.1192L15.3501 10.8651C15.6402 10.6402 15.8718 10.449 16.045 10.3231C16.2464 10.1663 16.4752 10.0481 16.7197 9.97454C16.8006 9.95134 16.8869 9.95501 16.9655 9.98502C17.0442 10.015 17.111 10.0697 17.1559 10.141L17.4798 10.5907C17.5076 10.6283 17.5258 10.6722 17.5328 10.7184C17.5399 10.7646 17.5356 10.8119 17.5202 10.8561C17.4876 10.9557 17.4304 11.0454 17.3538 11.117V11.1327C17.4086 11.1055 17.4649 11.0814 17.5225 11.0607C17.5746 11.0435 17.628 11.0308 17.6822 11.0225C17.7386 11.0127 17.7967 11.0206 17.8486 11.045C17.9065 11.0709 17.9563 11.1121 17.9925 11.1642Z" fill="#F2F2F2"/>
<path d="M21.4802 10.6157L21.0709 10.8405L20.3535 10.1861L19.2291 10.7731L19.3416 11.7288L18.9525 11.9312L18.6287 8.7581L19.0784 8.52197L21.4802 10.6157ZM20.1129 9.96349L19.047 9.00548L19.0087 9.02347L19.1819 10.447L20.1129 9.96349Z" fill="#F2F2F2"/>
<path d="M24.388 10.4222L23.9922 10.5549L23.7494 9.83527L21.8153 10.4942L20.8506 7.67636L21.2711 7.53469L22.1279 10.0602L23.6144 9.55416L22.7599 7.02644L23.1804 6.88477L24.388 10.4222Z" fill="#F2F2F2"/>
<path d="M25.3078 9.45069L24.7794 9.53839L24.2869 6.61487L24.6894 6.54741L25.0965 8.96943L26.2659 6.28429L26.7966 6.19434L27.2868 9.1291L26.8866 9.19657L26.4728 6.73406L25.3078 9.45069Z" fill="#F2F2F2"/>
<path d="M28.2495 9.07296H27.7053L28.6364 7.72364C28.4446 7.73199 28.2544 7.68599 28.0876 7.59096C28.0163 7.54986 27.9576 7.48996 27.9179 7.41778C27.8782 7.34561 27.8592 7.26394 27.8627 7.18166V6.66892C27.8489 6.57676 27.8629 6.48256 27.903 6.39842C27.9431 6.31428 28.0074 6.24402 28.0876 6.19666C28.3453 6.09983 28.62 6.05623 28.895 6.06848L29.9407 6.05273L29.9879 9.02573H29.5381L29.5179 7.75737H29.0861L28.2495 9.07296ZM28.2945 6.72514V7.13669C28.2924 7.18948 28.3034 7.24197 28.3266 7.28946C28.3497 7.33695 28.3843 7.37796 28.4272 7.4088C28.5792 7.48575 28.7503 7.51699 28.9197 7.49875H29.4999L29.4819 6.37432L28.859 6.38557C28.4812 6.38782 28.29 6.50925 28.2945 6.73414V6.72514Z" fill="#F2F2F2"/>
<path d="M31.3798 7.96436L30.8356 8.79194L30.4893 8.75821L30.9975 7.92613L30.6669 7.00635L31.0132 7.04233L31.3798 7.96436ZM32.1557 8.04307L31.6114 8.87065L31.2606 8.83692L31.7689 8.00259L31.4383 7.08506L31.7846 7.12104L32.1557 8.04307Z" fill="#F2F2F2"/>
<path d="M29.1602 27.3493L29.3851 27.3673L29.9114 21.3516L31.3214 23.1979L30.7682 10.8472H30.6422C29.7427 14.8951 28.8431 18.9378 27.9436 22.9753L29.6977 21.3471L29.1602 27.3493Z" fill="#F2F2F2"/>
<path d="M29.2208 29.2453L28.9959 29.2251L28.4067 35.2341L27.0146 33.3743C27.1646 37.4927 27.307 41.6111 27.4419 45.7295L27.5701 45.743C28.5101 41.7085 29.4509 37.6748 30.3924 33.6419L28.6226 35.252L29.2208 29.2453Z" fill="#F2F2F2"/>
<path d="M48.7838 28.3637V28.2468L35.2524 26.749L37.2021 28.222H30.4893C30.4459 27.9645 30.3205 27.7279 30.1317 27.5474C29.8898 27.3472 29.5856 27.2376 29.2715 27.2376C28.9575 27.2376 28.6533 27.3472 28.4113 27.5474C28.2226 27.7279 28.0972 27.9645 28.0538 28.222H26.0298V28.4199H28.0538C28.0972 28.6775 28.2226 28.9141 28.4113 29.0946C28.6533 29.2948 28.9575 29.4043 29.2715 29.4043C29.5856 29.4043 29.8898 29.2948 30.1317 29.0946C30.3213 28.9147 30.4468 28.6778 30.4893 28.4199H37.2066L35.3198 29.857L48.7838 28.3637ZM29.1669 29.2048C28.9507 29.1939 28.7444 29.1106 28.5812 28.9682C28.418 28.8258 28.3075 28.6327 28.2674 28.4199H29.1669V29.2048ZM29.1669 28.222H28.2674C28.3075 28.0092 28.418 27.8161 28.5812 27.6738C28.7444 27.5314 28.9507 27.4481 29.1669 27.4372V28.222ZM29.3761 29.2048V28.4199H30.2756C30.2348 28.6324 30.124 28.8251 29.961 28.9673C29.798 29.1095 29.5921 29.1931 29.3761 29.2048ZM29.3761 28.222V27.4372C29.5921 27.4488 29.798 27.5324 29.961 27.6747C30.124 27.8169 30.2348 28.0096 30.2756 28.222H29.3761Z" fill="#F2F2F2"/>
<path d="M23.2411 29.857L21.3656 28.4199H28.0829C28.1263 28.6775 28.2517 28.9141 28.4405 29.0946C28.6824 29.2948 28.9866 29.4043 29.3007 29.4043C29.6147 29.4043 29.9189 29.2948 30.1609 29.0946C30.3504 28.9147 30.476 28.6778 30.5184 28.4199H32.5424V28.222H30.5184C30.476 27.9642 30.3504 27.7273 30.1609 27.5474C29.9189 27.3472 29.6147 27.2376 29.3007 27.2376C28.9866 27.2376 28.6824 27.3472 28.4405 27.5474C28.2517 27.7279 28.1263 27.9645 28.0829 28.222H21.3656L23.3153 26.749L9.78394 28.2468V28.3637L23.2411 29.857ZM29.394 28.4199H30.2936C30.2527 28.6324 30.142 28.8251 29.979 28.9673C29.8159 29.1095 29.61 29.1931 29.394 29.2048V28.4199ZM29.394 27.4372C29.61 27.4488 29.8159 27.5324 29.979 27.6747C30.142 27.8169 30.2527 28.0096 30.2936 28.222H29.394V27.4372ZM28.2831 28.4199H29.1826V29.2048C28.9664 29.1939 28.76 29.1106 28.5969 28.9682C28.4337 28.8258 28.3232 28.6327 28.2831 28.4199ZM28.2831 28.222C28.3232 28.0092 28.4337 27.8161 28.5969 27.6738C28.76 27.5314 28.9664 27.4481 29.1826 27.4372V28.222H28.2831Z" fill="#F2F2F2"/>
<path d="M29.1714 30.2301C30.2656 30.2301 31.1527 29.343 31.1527 28.2488C31.1527 27.1546 30.2656 26.2676 29.1714 26.2676C28.0772 26.2676 27.1902 27.1546 27.1902 28.2488C27.1902 29.343 28.0772 30.2301 29.1714 30.2301Z" fill="#F2F2F2"/>
<path d="M27.1902 28.3301H31.1527" stroke="white" stroke-width="2"/>
<path d="M29.0049 30.2256L29.3647 26.2788" stroke="white" stroke-width="2"/>
<path d="M22.4451 20.9336V22.175C22.4644 22.4044 22.4165 22.6344 22.307 22.837C22.1976 23.0395 22.0314 23.2057 21.8289 23.3152C21.4196 23.5355 20.7517 23.6457 19.8251 23.6457H17.0928V16.2515H19.7442C20.2507 16.2334 20.7567 16.2987 21.2419 16.4449C21.5257 16.5179 21.7753 16.6872 21.9481 16.9239C22.067 17.1478 22.1245 17.3992 22.1145 17.6525V18.6533C22.1235 18.7807 22.1053 18.9085 22.0611 19.0283C22.0169 19.1481 21.9477 19.2572 21.8581 19.3482C21.6407 19.5301 21.3794 19.6518 21.1002 19.7012V19.7462C21.4534 19.796 21.7875 19.9371 22.0695 20.1555C22.1875 20.2478 22.2827 20.3659 22.3478 20.5009C22.413 20.6358 22.4462 20.7838 22.4451 20.9336ZM21.0778 18.6083V17.7537C21.0877 17.6361 21.0641 17.518 21.0095 17.4133C20.955 17.3086 20.8718 17.2215 20.7697 17.1623C20.446 17.0254 20.0947 16.9669 19.7442 16.9914H18.2172V19.4876H19.7914C20.1392 19.5159 20.4876 19.4424 20.7944 19.2762C20.8934 19.1972 20.9712 19.0947 21.0206 18.9781C21.0701 18.8615 21.0897 18.7344 21.0778 18.6083ZM21.3386 22.13V21.0056C21.3473 20.8397 21.3058 20.6752 21.2194 20.5333C21.1281 20.408 20.9948 20.3194 20.8439 20.2837C20.6972 20.2387 20.5466 20.2078 20.3941 20.1915C20.2614 20.1802 20.0748 20.1757 19.8319 20.1757H18.2172V22.8744H19.8364C20.2346 22.9006 20.6339 22.8423 21.008 22.7035C21.1137 22.6513 21.2014 22.5689 21.2603 22.4669C21.3191 22.3648 21.3464 22.2476 21.3386 22.13Z" fill="#F2F2F2"/>
<path d="M41.2794 23.6452H36.2083V16.251H41.176V17.0246H37.3034V19.4399H40.7892V20.227H37.3034V22.8806H41.2794V23.6452Z" fill="#F2F2F2"/>
<path d="M22.2652 40.5279C21.5848 40.677 20.8904 40.7524 20.194 40.7528C18.1205 40.7528 17.083 40.0848 17.0815 38.749V35.2408C17.0815 33.827 18.119 33.1201 20.194 33.1201C20.8748 33.1212 21.5535 33.1966 22.2179 33.345V34.1636C21.5636 33.9918 20.8907 33.9004 20.2142 33.8915C19.9584 33.8883 19.7027 33.9056 19.4496 33.9432C19.2265 33.9778 19.0083 34.039 18.7997 34.1254C18.5962 34.204 18.4245 34.3479 18.3117 34.5346C18.1908 34.7474 18.1316 34.9896 18.1408 35.234V38.6995C18.1408 39.5496 18.8469 39.9746 20.2592 39.9746C20.9372 39.9601 21.6108 39.8626 22.2652 39.6845V40.5279Z" fill="#F2F2F2"/>
<path d="M42.0552 34.0127H39.5814V40.6311H38.457V34.0127H35.9473V33.2368H42.0552V34.0127Z" fill="#F2F2F2"/>
</svg>